<svg width="263" height="228" viewBox="0 0 263 228" fill="none" xmlns="http://www.w3.org/2000/svg">
    <path d="M94.6007 114.827L19.9453 157.926V71.3673L94.6007 28.276V114.827Z" fill="white" fill-opacity="0.8"/>
    <path d="M18.4785 158.77L19.9377 159.646L96.0599 115.702L94.6007 114.826L18.4785 158.77Z" fill="#FAFAFA"/>
    <path d="M98.8256 22.6308L17.1816 69.7694V164.431L98.8256 117.292V22.6308ZM96.0609 115.702L19.9464 159.646V71.3668L96.0609 27.4153V115.702Z" fill="#F0F0F0"/>
    <path d="M96.0607 115.702L94.6016 114.826V28.2746L96.0607 27.4145V115.702Z" fill="#E0E0E0"/>
    <path d="M98.8253 22.6313L97.3354 21.7865L15.6914 68.9175L17.1813 69.7699L98.8253 22.6313Z" fill="#FAFAFA"/>
    <path d="M15.6914 68.9168L17.1813 69.7693V164.431L15.6914 163.578V68.9168Z" fill="#E0E0E0"/>
    <path d="M21.1602 112.424V114.144L96.0613 70.8378L94.6021 69.9623L21.1602 112.424Z" fill="#FAFAFA"/>
    <path d="M55.6484 50.7625L57.1306 49.9024V138.189L55.6484 137.337V50.7625Z" fill="#E0E0E0"/>
    <path d="M59.8956 48.3118L57.1309 49.9015V138.189L59.8956 136.591V48.3118Z" fill="#F0F0F0"/>
    <path d="M96.0613 70.8375V74.0246L19.916 118.153V114.966L96.0613 70.8375Z" fill="#F0F0F0"/>
    <path d="M57.1308 93.4019L55.6486 92.488L19.9375 113.124V114.967L57.1308 93.4019Z" fill="#FAFAFA"/>
    <path d="M110.223 55.2504L111.459 55.9876L136.787 41.3653L135.551 40.628L110.223 55.2504Z" fill="#FAFAFA"/>
    <path d="M135.551 40.6271L111.459 54.5353V34.0456L135.551 20.1451V40.6271Z" fill="white" fill-opacity="0.8"/>
    <path d="M139.115 15.3838L109.164 32.7017V60.0188L139.115 42.7085V15.3838ZM136.811 41.3645L111.468 55.9562V34.0457L136.811 19.4541V41.3645Z" fill="#F0F0F0"/>
    <path d="M136.787 41.3658L135.551 40.6286V20.1465L136.787 19.4246V41.3658Z" fill="#E0E0E0"/>
    <path d="M139.114 15.3844L137.863 14.6702L107.873 31.9804L109.125 32.7023L139.114 15.3844Z" fill="#FAFAFA"/>
    <path d="M107.873 31.9806L109.125 32.7025V60.0195L107.873 59.3053V31.9806Z" fill="#E0E0E0"/>
    <path d="M134.614 39.8663L112.396 52.6992V51.025L117.949 38.1998L121.413 41.4099L120.929 44.382L127.841 30.3817L134.614 38.1998V39.8663Z" fill="#F0F0F0"/>
    <path d="M121.206 32.0104C120.727 32.3205 120.328 32.7396 120.043 33.2336C119.757 33.7275 119.592 34.2821 119.562 34.852C119.563 35.9041 120.292 36.3265 121.206 35.8043C121.685 35.4921 122.083 35.0714 122.369 34.5763C122.654 34.0813 122.819 33.5258 122.849 32.9551C122.849 31.9106 122.112 31.4882 121.206 32.0104Z" fill="#F0F0F0"/>
    <path d="M110.398 97.7695L111.635 98.5067L136.971 83.8844L135.734 83.1471L110.398 97.7695Z" fill="#FAFAFA"/>
    <path d="M135.734 83.1462L111.635 97.0544V76.5646L135.734 62.6642V83.1462Z" fill="white" fill-opacity="0.8"/>
    <path d="M139.299 57.9029L109.348 75.2208V102.538L139.299 85.2276V57.9029ZM136.995 83.8836L111.652 98.4753V76.5648L136.995 61.9732V83.8836Z" fill="#F0F0F0"/>
    <path d="M136.971 83.8849L135.734 83.1477V62.6656L136.971 61.9437V83.8849Z" fill="#E0E0E0"/>
    <path d="M139.298 57.9035L138.046 57.1893L108.057 74.5072L109.308 75.2214L139.298 57.9035Z" fill="#FAFAFA"/>
    <path d="M108.057 74.5065L109.308 75.2208V102.538L108.057 101.824V74.5065Z" fill="#E0E0E0"/>
    <path d="M134.79 82.393L112.58 95.2183V93.5441L118.133 80.7188L121.588 83.929L121.112 86.9011L128.016 72.9008L134.79 80.7188V82.393Z" fill="#F0F0F0"/>
    <path d="M121.382 74.5293C120.903 74.8415 120.505 75.2622 120.219 75.7573C119.933 76.2523 119.769 76.8078 119.738 77.3785C119.738 78.423 120.506 78.8454 121.382 78.3232C121.86 78.0118 122.257 77.5923 122.543 77.0986C122.828 76.605 122.994 76.051 123.025 75.4816C123.025 74.4295 122.288 74.0071 121.382 74.5293Z" fill="#F0F0F0"/>
    <path d="M239.107 112.23L237.402 113.251L210.838 97.9144L212.543 96.893L239.107 112.23Z" fill="#FAFAFA"/>
    <path d="M212.541 96.8941L237.401 111.24V46.8679L212.541 32.5297V96.8941Z" fill="white" fill-opacity="0.8"/>
    <path d="M207.619 99.7733L240.642 118.827V45.001L207.619 25.9474V99.7733ZM210.814 31.5306L237.378 46.8902V113.274L210.814 97.9148V31.5306Z" fill="#F0F0F0"/>
    <path d="M210.838 97.9149L212.543 96.8935V32.529L210.838 31.5307V97.9149Z" fill="#E0E0E0"/>
    <path d="M207.611 25.9476L209.347 24.9569L242.355 44.0105L240.619 45.0012L207.611 25.9476Z" fill="#FAFAFA"/>
    <path d="M242.355 44.0109L240.619 45.0016V118.835L242.355 117.837V44.0109Z" fill="#E0E0E0"/>
    <path d="M215.045 94.9035L234.913 106.369V49.8845L215.045 38.4109V94.9035Z" fill="#F0F0F0"/>
    <path d="M215.045 94.9035L234.913 106.369V49.8845L215.045 38.4109V94.9035Z" fill="#F0F0F0"/>
    <path d="M234.913 86.8263C233.991 87.1466 233.039 87.3706 232.071 87.4944C228.837 87.9571 225.543 87.7453 222.394 86.8723C219.991 86.1965 217.587 85.1521 215.045 85.6743V94.8901L217.733 96.426C218.679 94.8997 219.938 93.5911 221.427 92.5861C225.267 90.2131 229.176 91.9948 233.108 91.6645C233.717 91.6077 234.32 91.5024 234.913 91.3497V86.8263Z" fill="#FAFAFA"/>
    <path d="M234.912 77.4351C230.466 76.6671 225.904 76.214 222.732 72.3434C220.175 69.2254 218.977 64.3257 218.124 59.449C217.272 54.5723 216.704 49.4652 215.091 45.1569C215.091 45.1108 215.052 45.0724 215.037 45.0263V74.4707C215.283 74.9391 215.536 75.4076 215.805 75.853C218.723 80.7758 223.024 84.4314 227.939 83.5866C230.243 83.1872 232.624 81.8356 234.912 81.2827V77.4351Z" fill="#FAFAFA"/>
    <path d="M234.913 65.4612C231.503 62.0129 229.675 55.5772 230.513 48.9649C230.574 48.4734 230.651 47.9819 230.735 47.4981L223.102 43.0592C223.102 43.7734 223.155 44.4799 223.171 45.1942C223.247 49.3336 223.171 53.5728 223.793 57.4818C224.883 64.025 228.155 69.2473 232.502 71.39C233.272 71.7645 234.084 72.048 234.921 72.2347L234.913 65.4612Z" fill="#FAFAFA"/>
    <path d="M203.383 207.828C197.869 202.137 194.628 187.822 200.004 183.306H227.382C232.758 187.822 229.525 202.121 224.011 207.82L223.865 207.973L223.673 208.165C223.519 208.319 223.35 208.465 223.174 208.611L223.043 208.718C222.905 208.826 222.774 208.933 222.628 209.033C222.399 209.2 222.161 209.354 221.914 209.494C217.375 212.144 210.018 212.144 205.479 209.494C205.229 209.356 204.988 209.202 204.757 209.033L204.373 208.734L204.212 208.603C204.036 208.465 203.882 208.319 203.728 208.173L203.513 207.958L203.383 207.828Z" fill="#EBEBEB"/>
    <path d="M225.009 181.525C231.252 185.166 231.252 191.079 225.009 194.727C218.765 198.375 208.628 198.375 202.384 194.727C196.14 191.079 196.14 185.166 202.384 181.525C208.628 177.885 218.757 177.877 225.009 181.525Z" fill="#FAFAFA"/>
    <path d="M221.999 183.253C226.607 185.933 226.607 190.272 221.999 192.952C217.391 195.633 209.98 195.633 205.388 192.952C200.795 190.272 200.78 185.933 205.388 183.253C209.996 180.572 217.414 180.596 221.999 183.253Z" fill="#E0E0E0"/>
    <path d="M205.386 187.86C209.994 185.188 217.413 185.188 221.998 187.86C223.111 188.47 224.055 189.346 224.747 190.41C224.055 191.474 223.111 192.35 221.998 192.96C217.39 195.64 209.979 195.64 205.386 192.96C204.274 192.352 203.331 191.476 202.645 190.41C203.331 189.345 204.274 188.468 205.386 187.86Z" fill="#EBEBEB"/>
    <path d="M211.853 151.368C209.756 153.672 203.927 154.271 201.508 148.127C199.242 142.367 196.8 136.907 196.132 134.787C196.034 134.511 195.992 134.218 196.01 133.926C196.027 133.633 196.104 133.347 196.234 133.085C196.364 132.823 196.546 132.589 196.769 132.399C196.992 132.208 197.25 132.065 197.53 131.976C197.53 131.976 197.699 128.812 203.059 130.955C208.42 133.098 212.206 136.331 214.579 141.622C216.952 146.913 215.431 150.661 211.853 151.368Z" fill="#E0E0E0"/>
    <path opacity="0.45" d="M211.853 151.368C209.756 153.672 203.927 154.271 201.508 148.127C199.242 142.367 196.8 136.907 196.132 134.787C196.034 134.511 195.992 134.218 196.01 133.926C196.027 133.633 196.104 133.347 196.234 133.085C196.364 132.823 196.546 132.589 196.769 132.399C196.992 132.208 197.25 132.065 197.53 131.976C197.53 131.976 197.699 128.812 203.059 130.955C208.42 133.098 212.206 136.331 214.579 141.622C216.952 146.913 215.431 150.661 211.853 151.368Z" fill="white" fill-opacity="0.8"/>
    <path d="M214.173 159.492C214.082 158.416 213.928 157.347 213.712 156.289C213.269 154.188 212.673 152.122 211.931 150.107C210.424 146.003 208.331 142.139 205.718 138.634C204.267 136.637 202.631 134.78 200.833 133.089C200.78 133.043 200.734 133.166 200.772 133.204C206.786 139.475 210.962 147.277 212.845 155.76C213.113 156.927 213.359 158.102 213.574 159.277C213.789 160.452 213.92 161.681 214.119 162.879C214.119 163.002 214.327 163.071 214.335 162.879C214.368 161.747 214.314 160.615 214.173 159.492Z" fill="#E0E0E0"/>
    <path opacity="0.1" d="M214.173 159.492C214.082 158.416 213.928 157.347 213.712 156.289C213.269 154.188 212.673 152.122 211.931 150.107C210.424 146.003 208.331 142.139 205.718 138.634C204.267 136.637 202.631 134.78 200.833 133.089C200.78 133.043 200.734 133.166 200.772 133.204C206.786 139.475 210.962 147.277 212.845 155.76C213.113 156.927 213.359 158.102 213.574 159.277C213.789 160.452 213.92 161.681 214.119 162.879C214.119 163.002 214.327 163.071 214.335 162.879C214.368 161.747 214.314 160.615 214.173 159.492Z" fill="black"/>
    <path d="M215.969 149.777C211.146 151.267 207.567 147.473 208.811 141.614C210.056 135.754 216.246 129.165 218.58 130.923C220.047 129.464 223.265 129.986 224.778 134.763C226.291 139.54 224.916 151.866 215.969 149.777Z" fill="#E0E0E0"/>
    <path opacity="0.25" d="M215.969 149.777C211.146 151.267 207.567 147.473 208.811 141.614C210.056 135.754 216.246 129.165 218.58 130.923C220.047 129.464 223.265 129.986 224.778 134.763C226.291 139.54 224.916 151.866 215.969 149.777Z" fill="white" fill-opacity="0.8"/>
    <path d="M218.797 134.51C217.427 137.944 216.355 141.49 215.594 145.108C214.772 148.77 214.151 152.475 213.736 156.205C212.956 163.425 212.633 170.686 212.768 177.947C212.768 179.951 212.806 181.955 212.845 183.96C212.883 185.964 212.845 188.115 213.029 190.173C213.098 190.941 214.22 190.749 214.235 190.027C214.304 186.417 214.104 182.785 214.066 179.175C214.028 175.566 214.066 172.033 214.135 168.462C214.258 161.187 214.91 153.931 216.086 146.751C216.431 144.747 216.815 142.75 217.276 140.776C217.737 138.803 218.367 136.652 218.912 134.594C218.935 134.51 218.843 134.402 218.797 134.51Z" fill="#E0E0E0"/>
    <path opacity="0.1" d="M218.797 134.51C217.427 137.944 216.355 141.49 215.594 145.108C214.772 148.77 214.151 152.475 213.736 156.205C212.956 163.425 212.633 170.686 212.768 177.947C212.768 179.951 212.806 181.955 212.845 183.96C212.883 185.964 212.845 188.115 213.029 190.173C213.098 190.941 214.22 190.749 214.235 190.027C214.304 186.417 214.104 182.785 214.066 179.175C214.028 175.566 214.066 172.033 214.135 168.462C214.258 161.187 214.91 153.931 216.086 146.751C216.431 144.747 216.815 142.75 217.276 140.776C217.737 138.803 218.367 136.652 218.912 134.594C218.935 134.51 218.843 134.402 218.797 134.51Z" fill="black"/>
    <path d="M208.128 167.072C206.024 169.453 201.216 169.246 197.968 164.991C194.719 160.737 192.784 144.747 197.338 145.792C198.306 143.657 210.885 148.787 212.498 159.216C213.673 166.781 208.128 167.072 208.128 167.072Z" fill="#E0E0E0"/>
    <path opacity="0.25" d="M208.128 167.072C206.024 169.453 201.216 169.246 197.968 164.991C194.719 160.737 192.784 144.747 197.338 145.792C198.306 143.657 210.885 148.787 212.498 159.216C213.673 166.781 208.128 167.072 208.128 167.072Z" fill="white" fill-opacity="0.8"/>
    <path d="M211.893 174.621C211.75 173.638 211.542 172.666 211.271 171.711C210.746 169.752 210.12 167.822 209.397 165.928C207.906 162.066 206.022 158.368 203.775 154.892C202.567 152.931 201.236 151.048 199.789 149.255C199.751 149.209 199.712 149.316 199.735 149.355C200.857 150.991 201.993 152.611 203.007 154.324C204.021 156.036 204.996 157.941 205.856 159.807C207.529 163.413 208.918 167.144 210.011 170.966C210.318 172.049 210.572 173.147 210.887 174.23C211.201 175.313 211.655 176.449 211.923 177.586C211.962 177.747 212.177 177.809 212.154 177.586C212.054 176.58 212.023 175.574 211.893 174.621Z" fill="#E0E0E0"/>
    <path opacity="0.1" d="M211.893 174.621C211.75 173.638 211.542 172.666 211.271 171.711C210.746 169.752 210.12 167.822 209.397 165.928C207.906 162.066 206.022 158.368 203.775 154.892C202.567 152.931 201.236 151.048 199.789 149.255C199.751 149.209 199.712 149.316 199.735 149.355C200.857 150.991 201.993 152.611 203.007 154.324C204.021 156.036 204.996 157.941 205.856 159.807C207.529 163.413 208.918 167.144 210.011 170.966C210.318 172.049 210.572 173.147 210.887 174.23C211.201 175.313 211.655 176.449 211.923 177.586C211.962 177.747 212.177 177.809 212.154 177.586C212.054 176.58 212.023 175.574 211.893 174.621Z" fill="black"/>
    <path d="M215.832 164.707C213.075 164.078 212.937 160.775 216.385 156.713C219.834 152.65 228.496 150.884 228.911 152.596C230.839 152.596 230.839 158.633 226.569 164.177C222.299 169.722 216.086 168.432 215.832 164.707Z" fill="#E0E0E0"/>
    <path opacity="0.25" d="M215.832 164.707C213.075 164.078 212.937 160.775 216.385 156.713C219.834 152.65 228.496 150.884 228.911 152.596C230.839 152.596 230.839 158.633 226.569 164.177C222.299 169.722 216.086 168.432 215.832 164.707Z" fill="white" fill-opacity="0.8"/>
    <path d="M221.224 158.808C217.582 161.343 214.804 164.931 213.26 169.091C213.167 169.329 213.574 169.675 213.674 169.413C215.237 165.299 217.844 161.662 221.239 158.861C221.239 158.861 221.262 158.777 221.224 158.808Z" fill="#E0E0E0"/>
    <path opacity="0.1" d="M221.224 158.808C217.582 161.343 214.804 164.931 213.26 169.091C213.167 169.329 213.574 169.675 213.674 169.413C215.237 165.299 217.844 161.662 221.239 158.861C221.239 158.861 221.262 158.777 221.224 158.808Z" fill="black"/>
    <path d="M218.974 184.851C215.134 186.387 216.8 190.933 220.51 194.389C223.725 197.179 227.866 198.669 232.121 198.567C234.679 198.383 235.339 198.029 235.339 198.029C235.568 195.931 235.568 193.814 235.339 191.716C234.929 189.41 233.862 187.27 232.267 185.554C230.673 183.838 228.617 182.618 226.346 182.04C220.402 180.427 218.974 182.585 218.974 184.851Z" fill="#E0E0E0"/>
    <path opacity="0.45" d="M218.974 184.851C215.134 186.387 216.8 190.933 220.51 194.389C223.725 197.179 227.866 198.669 232.121 198.567C234.679 198.383 235.339 198.029 235.339 198.029C235.568 195.931 235.568 193.814 235.339 191.716C234.929 189.41 233.862 187.27 232.267 185.554C230.673 183.838 228.617 182.618 226.346 182.04C220.402 180.427 218.974 182.585 218.974 184.851Z" fill="white" fill-opacity="0.8"/>
    <path d="M229.532 191.555C227.826 189.519 225.864 187.712 223.696 186.179C221.522 184.75 218.627 183.529 216.016 184.42C215.01 184.766 213.435 185.772 213.627 187.024C213.627 187.147 213.865 187.454 214.011 187.285C214.415 186.705 214.875 186.168 215.386 185.68C215.987 185.241 216.696 184.976 217.437 184.912C219.309 184.773 221.181 185.196 222.812 186.125C225.393 187.492 227.474 189.619 229.525 191.647C229.525 191.639 229.555 191.578 229.532 191.555Z" fill="#E0E0E0"/>
    <path opacity="0.1" d="M229.532 191.555C227.826 189.519 225.864 187.712 223.696 186.179C221.522 184.75 218.627 183.529 216.016 184.42C215.01 184.766 213.435 185.772 213.627 187.024C213.627 187.147 213.865 187.454 214.011 187.285C214.415 186.705 214.875 186.168 215.386 185.68C215.987 185.241 216.696 184.976 217.437 184.912C219.309 184.773 221.181 185.196 222.812 186.125C225.393 187.492 227.474 189.619 229.525 191.647C229.525 191.639 229.555 191.578 229.532 191.555Z" fill="black"/>
    <path d="M204.458 165.322C204.819 163.586 202.308 159.431 194.474 158.633C186.641 157.834 180.796 161.152 179.614 162.664C178.431 164.177 177.84 165.775 179.26 166.174C180.681 166.574 185.558 167.042 188.768 168.524C191.978 170.006 198.498 174.361 202.945 173.063C207.392 171.765 206.67 167.05 204.458 165.322Z" fill="#E0E0E0"/>
    <path opacity="0.45" d="M204.458 165.322C204.819 163.586 202.308 159.431 194.474 158.633C186.641 157.834 180.796 161.152 179.614 162.664C178.431 164.177 177.84 165.775 179.26 166.174C180.681 166.574 185.558 167.042 188.768 168.524C191.978 170.006 198.498 174.361 202.945 173.063C207.392 171.765 206.67 167.05 204.458 165.322Z" fill="white" fill-opacity="0.8"/>
    <path d="M210.402 171.373C207.099 164.561 198.598 162.518 191.625 162.518C189.339 162.525 187.063 162.819 184.851 163.394C184.851 163.394 184.813 163.478 184.851 163.478C188.595 162.841 192.415 162.802 196.171 163.363C199.888 163.848 203.435 165.215 206.516 167.349C208.011 168.472 209.267 169.882 210.21 171.496C210.34 171.673 210.463 171.519 210.402 171.373Z" fill="#E0E0E0"/>
    <path opacity="0.1" d="M210.402 171.373C207.099 164.561 198.598 162.518 191.625 162.518C189.339 162.525 187.063 162.819 184.851 163.394C184.851 163.394 184.813 163.478 184.851 163.478C188.595 162.841 192.415 162.802 196.171 163.363C199.888 163.848 203.435 165.215 206.516 167.349C208.011 168.472 209.267 169.882 210.21 171.496C210.34 171.673 210.463 171.519 210.402 171.373Z" fill="black"/>
    <path d="M222.675 156.198C222.575 158.932 226.423 160.522 230.147 158.156C233.872 155.791 237.773 153.487 241.229 152.596C244.685 151.705 246.313 148.887 245.223 147.528C244.132 146.168 242.397 142.728 233.327 143.849C224.257 144.97 221.039 149.063 219.795 151.951C218.551 154.839 221.308 156.989 222.675 156.198Z" fill="#E0E0E0"/>
    <path opacity="0.45" d="M222.675 156.198C222.575 158.932 226.423 160.522 230.147 158.156C233.872 155.791 237.773 153.487 241.229 152.596C244.685 151.705 246.313 148.887 245.223 147.528C244.132 146.168 242.397 142.728 233.327 143.849C224.257 144.97 221.039 149.063 219.795 151.951C218.551 154.839 221.308 156.989 222.675 156.198Z" fill="white" fill-opacity="0.8"/>
    <path d="M237.442 147.52C236.13 147.39 234.806 147.529 233.549 147.927C232.403 148.22 231.288 148.618 230.216 149.117C228.08 150.113 226.154 151.508 224.54 153.226C224.082 153.71 223.657 154.223 223.266 154.762C222.866 155.242 222.537 155.778 222.29 156.352C222.229 156.528 222.498 156.82 222.651 156.636C223.104 156.121 223.419 155.484 223.865 154.939C224.316 154.353 224.803 153.797 225.324 153.272C226.372 152.215 227.546 151.289 228.818 150.515C230.032 149.761 231.319 149.131 232.658 148.633C233.426 148.365 234.156 148.142 234.916 147.95C235.717 147.707 236.552 147.593 237.389 147.612C237.458 147.62 237.481 147.52 237.442 147.52Z" fill="#E0E0E0"/>
    <path opacity="0.1" d="M237.442 147.52C236.13 147.39 234.806 147.529 233.549 147.927C232.403 148.22 231.288 148.618 230.216 149.117C228.08 150.113 226.154 151.508 224.54 153.226C224.082 153.71 223.657 154.223 223.266 154.762C222.866 155.242 222.537 155.778 222.29 156.352C222.229 156.528 222.498 156.82 222.651 156.636C223.104 156.121 223.419 155.484 223.865 154.939C224.316 154.353 224.803 153.797 225.324 153.272C226.372 152.215 227.546 151.289 228.818 150.515C230.032 149.761 231.319 149.131 232.658 148.633C233.426 148.365 234.156 148.142 234.916 147.95C235.717 147.707 236.552 147.593 237.389 147.612C237.458 147.62 237.481 147.52 237.442 147.52Z" fill="black"/>
    <path d="M216.2 170.966C214.926 169.691 211.477 169.991 209.841 173.746C208.206 177.502 211.639 181.618 212.023 182.77C213.597 181.864 214.826 182.401 217.598 181.864C219.144 181.499 220.518 180.612 221.487 179.353C222.457 178.095 222.963 176.54 222.92 174.952C222.697 171.504 221.246 169.23 216.2 170.966Z" fill="#E0E0E0"/>
    <path opacity="0.45" d="M216.2 170.966C214.926 169.691 211.477 169.991 209.841 173.746C208.206 177.502 211.639 181.618 212.023 182.77C213.597 181.864 214.826 182.401 217.598 181.864C219.144 181.499 220.518 180.612 221.487 179.353C222.457 178.095 222.963 176.54 222.92 174.952C222.697 171.504 221.246 169.23 216.2 170.966Z" fill="white" fill-opacity="0.8"/>
    <path d="M216.115 170.582C215.421 171.02 214.842 171.618 214.425 172.325C213.978 172.979 213.612 173.686 213.335 174.429C212.741 175.95 212.577 177.605 212.859 179.214C212.859 179.275 212.92 179.214 212.912 179.214C212.777 177.598 213.041 175.973 213.68 174.483C213.987 173.808 214.371 173.172 214.825 172.586C215.06 172.272 215.317 171.974 215.593 171.695C215.862 171.466 216.107 171.208 216.322 170.927C216.453 170.797 216.307 170.482 216.115 170.582Z" fill="#E0E0E0"/>
    <path opacity="0.1" d="M216.115 170.582C215.421 171.02 214.842 171.618 214.425 172.325C213.978 172.979 213.612 173.686 213.335 174.429C212.741 175.95 212.577 177.605 212.859 179.214C212.859 179.275 212.92 179.214 212.912 179.214C212.777 177.598 213.041 175.973 213.68 174.483C213.987 173.808 214.371 173.172 214.825 172.586C215.06 172.272 215.317 171.974 215.593 171.695C215.862 171.466 216.107 171.208 216.322 170.927C216.453 170.797 216.307 170.482 216.115 170.582Z" fill="black"/>
    <path d="M210.18 178.568C210.065 175.773 207.031 173.561 202.715 172.279C200.598 171.614 198.335 171.564 196.19 172.133C194.045 172.703 192.105 173.869 190.596 175.496C187.448 178.922 185.82 181.832 187.102 182.654C188.385 183.476 194.091 185.565 197.854 186.732C201.617 187.899 206.478 188.268 210.211 186.033C213.943 183.798 213.674 179.966 210.18 178.568Z" fill="#E0E0E0"/>
    <path opacity="0.25" d="M210.18 178.568C210.065 175.773 207.031 173.561 202.715 172.279C200.598 171.614 198.335 171.564 196.19 172.133C194.045 172.703 192.105 173.869 190.596 175.496C187.448 178.922 185.82 181.832 187.102 182.654C188.385 183.476 194.091 185.565 197.854 186.732C201.617 187.899 206.478 188.268 210.211 186.033C213.943 183.798 213.674 179.966 210.18 178.568Z" fill="white" fill-opacity="0.8"/>
    <path d="M210.417 178.254C208.958 177.519 207.364 177.093 205.733 177.002C204.171 176.853 202.598 176.874 201.04 177.063C199.394 177.267 197.767 177.611 196.179 178.092C195.35 178.33 194.528 178.607 193.714 178.906C192.938 179.157 192.183 179.468 191.456 179.836C191.456 179.836 191.41 179.943 191.456 179.928C192.224 179.767 192.992 179.459 193.76 179.221C194.528 178.983 195.426 178.722 196.271 178.499C197.841 178.079 199.441 177.776 201.056 177.593C202.674 177.409 204.307 177.409 205.925 177.593C207.423 177.839 208.899 178.201 210.341 178.676C210.679 178.776 210.586 178.354 210.417 178.254Z" fill="#E0E0E0"/>
    <path opacity="0.1" d="M210.417 178.254C208.958 177.519 207.364 177.093 205.733 177.002C204.171 176.853 202.598 176.874 201.04 177.063C199.394 177.267 197.767 177.611 196.179 178.092C195.35 178.33 194.528 178.607 193.714 178.906C192.938 179.157 192.183 179.468 191.456 179.836C191.456 179.836 191.41 179.943 191.456 179.928C192.224 179.767 192.992 179.459 193.76 179.221C194.528 178.983 195.426 178.722 196.271 178.499C197.841 178.079 199.441 177.776 201.056 177.593C202.674 177.409 204.307 177.409 205.925 177.593C207.423 177.839 208.899 178.201 210.341 178.676C210.679 178.776 210.586 178.354 210.417 178.254Z" fill="black"/>
    <path d="M219.072 174.406C216 171.957 217.022 166.081 227.812 165.767C238.602 165.452 246.305 168.27 245.959 171.741C247.695 173.477 246.819 178.338 238.08 179.859C229.34 181.38 216.853 180.619 219.072 174.406Z" fill="#E0E0E0"/>
    <path opacity="0.25" d="M219.072 174.406C216 171.957 217.022 166.081 227.812 165.767C238.602 165.452 246.305 168.27 245.959 171.741C247.695 173.477 246.819 178.338 238.08 179.859C229.34 181.38 216.853 180.619 219.072 174.406Z" fill="white" fill-opacity="0.8"/>
    <path d="M240.882 171.781C237.698 171.256 234.468 171.068 231.244 171.22C228.247 171.198 225.258 171.541 222.343 172.242C221.598 172.433 220.87 172.69 220.17 173.01C219.846 173.16 219.53 173.33 219.225 173.517C218.98 173.663 218.711 173.793 218.619 174.077C218.61 174.123 218.612 174.169 218.625 174.214C218.637 174.258 218.66 174.299 218.692 174.332C218.723 174.366 218.762 174.392 218.806 174.408C218.849 174.423 218.895 174.429 218.941 174.423C219.597 174.167 220.229 173.853 220.83 173.486C221.436 173.217 222.06 172.992 222.697 172.81C223.922 172.45 225.176 172.193 226.444 172.042C229.463 171.672 232.504 171.506 235.545 171.543C237.319 171.543 239.085 171.704 240.859 171.842C240.921 171.912 240.936 171.789 240.882 171.781Z" fill="#E0E0E0"/>
    <path opacity="0.1" d="M240.882 171.781C237.698 171.256 234.468 171.068 231.244 171.22C228.247 171.198 225.258 171.541 222.343 172.242C221.598 172.433 220.87 172.69 220.17 173.01C219.846 173.16 219.53 173.33 219.225 173.517C218.98 173.663 218.711 173.793 218.619 174.077C218.61 174.123 218.612 174.169 218.625 174.214C218.637 174.258 218.66 174.299 218.692 174.332C218.723 174.366 218.762 174.392 218.806 174.408C218.849 174.423 218.895 174.429 218.941 174.423C219.597 174.167 220.229 173.853 220.83 173.486C221.436 173.217 222.06 172.992 222.697 172.81C223.922 172.45 225.176 172.193 226.444 172.042C229.463 171.672 232.504 171.506 235.545 171.543C237.319 171.543 239.085 171.704 240.859 171.842C240.921 171.912 240.936 171.789 240.882 171.781Z" fill="black"/>
    <path d="M109.039 196.303L90.1701 185.406C86.8678 183.501 86.8678 180.414 90.1701 178.494L148.268 144.948C150.119 144.009 152.166 143.52 154.243 143.52C156.319 143.52 158.366 144.009 160.218 144.948L179.087 155.861C182.389 157.766 182.389 160.853 179.087 162.773L120.989 196.319C119.136 197.255 117.089 197.742 115.012 197.739C112.936 197.737 110.89 197.245 109.039 196.303Z" fill="#E0E0E0"/>
    <path d="M167.36 84.0195L152.914 75.6792H152.861L152.753 75.6178C145.626 71.5782 135.858 72.2003 125.006 78.4516C103.226 90.9774 85.5625 121.589 85.5625 146.733C85.5625 159.235 89.9323 168.029 96.99 172.184L97.0976 172.245H97.1513L111.597 180.585L114.108 173.988C117.939 173.002 121.61 171.48 125.014 169.465C146.794 156.893 164.449 126.312 164.449 101.161C164.481 97.235 163.964 93.324 162.913 89.5413L167.36 84.0195Z" fill="#1BC19A"/>
    <path opacity="0.4" d="M167.36 84.0195L152.914 75.6792H152.861L152.753 75.6178C145.626 71.5782 135.858 72.2003 125.006 78.4516C103.226 90.9774 85.5625 121.589 85.5625 146.733C85.5625 159.235 89.9323 168.029 96.99 172.184L97.0976 172.245H97.1513L111.597 180.585L114.108 173.988C117.939 173.002 121.61 171.48 125.014 169.465C146.794 156.893 164.449 126.312 164.449 101.161C164.481 97.235 163.964 93.324 162.913 89.5413L167.36 84.0195Z" fill="white" fill-opacity="0.8"/>
    <path opacity="0.4" d="M85.9081 140.588C85.6875 142.629 85.5722 144.68 85.5625 146.732C85.5625 159.235 89.9323 168.028 96.99 172.183L97.0976 172.244H97.1513L111.597 180.585L114.108 173.988C114.922 173.78 115.752 173.542 116.597 173.266L120.321 160.41L85.9081 140.588Z" fill="#1BC19A"/>
    <path d="M167.502 148.5C182.902 121.826 182.901 92.993 167.5 84.1009C152.098 75.2087 127.128 89.6243 111.727 116.299C96.3265 142.974 96.3273 171.806 111.729 180.699C127.131 189.591 152.101 175.175 167.502 148.5Z" fill="#1BC19A"/>
    <path d="M121.996 177.121C112.212 177.121 106.375 168.911 106.375 155.172C106.375 132.425 123.017 103.602 142.708 92.2363C147.877 89.2565 152.892 87.6821 157.223 87.6821C167.007 87.6821 172.844 95.8842 172.844 109.631C172.844 132.371 156.202 161.193 136.511 172.567C131.35 175.547 126.327 177.121 121.996 177.121Z" fill="#1BC19A"/>
    <path opacity="0.15" d="M121.996 177.121C112.212 177.121 106.375 168.911 106.375 155.172C106.375 132.425 123.017 103.602 142.708 92.2363C147.877 89.2565 152.892 87.6821 157.223 87.6821C167.007 87.6821 172.844 95.8842 172.844 109.631C172.844 132.371 156.202 161.193 136.511 172.567C131.35 175.547 126.327 177.121 121.996 177.121Z" fill="black"/>
    <path d="M169.211 107.474C169.211 98.7187 166.838 92.2292 162.591 88.6581C160.877 87.9964 159.053 87.6654 157.215 87.6828C152.884 87.6828 147.869 89.2571 142.7 92.2369C123.025 103.603 106.375 132.448 106.375 155.173C106.375 163.92 108.748 170.417 112.995 173.988C114.711 174.645 116.534 174.976 118.371 174.964C122.702 174.964 127.717 173.389 132.878 170.41C152.577 159.036 169.211 130.214 169.211 107.474Z" fill="#FAFAFA"/>
    <path d="M149.774 137.324C149.564 137.324 149.356 137.285 149.16 137.209L133.416 131.15L149.137 101.667C149.235 101.455 149.376 101.265 149.55 101.109C149.724 100.954 149.928 100.835 150.15 100.761C150.371 100.686 150.606 100.658 150.838 100.677C151.071 100.696 151.298 100.763 151.504 100.873C151.711 100.982 151.892 101.133 152.039 101.315C152.185 101.498 152.292 101.708 152.355 101.933C152.417 102.158 152.433 102.394 152.401 102.625C152.369 102.857 152.291 103.079 152.17 103.28L138.346 129.337L150.396 133.983C150.771 134.128 151.084 134.399 151.279 134.75C151.475 135.101 151.542 135.51 151.468 135.905C151.394 136.3 151.184 136.657 150.875 136.913C150.565 137.17 150.176 137.31 149.774 137.309V137.324Z" fill="#37474F"/>
    <path d="M135.981 136.733C137.618 135.666 138.98 134.228 139.956 132.536C140.933 130.844 141.497 128.946 141.603 126.995C141.603 123.409 139.084 121.957 135.981 123.746C134.344 124.815 132.982 126.254 132.005 127.947C131.028 129.64 130.464 131.54 130.359 133.492C130.359 137.056 132.878 138.53 135.981 136.733Z" fill="#455A64"/>
    <path d="M135.982 164.704C135.521 164.972 135.145 164.704 135.145 164.158V157.538C135.152 157.234 135.232 156.937 135.378 156.67C135.524 156.403 135.73 156.174 135.982 156.002C136.442 155.741 136.819 156.002 136.819 156.555V163.168C136.811 163.472 136.732 163.77 136.586 164.037C136.441 164.304 136.233 164.533 135.982 164.704Z" fill="#1BC19A"/>
    <path d="M135.911 106.812C135.451 107.08 135.082 106.812 135.082 106.266V99.6388C135.088 99.3353 135.167 99.0377 135.311 98.7706C135.455 98.5035 135.661 98.2746 135.911 98.1028C136.372 97.8417 136.749 98.1028 136.749 98.6557V105.276C136.741 105.58 136.661 105.878 136.515 106.145C136.37 106.412 136.163 106.64 135.911 106.812Z" fill="#1BC19A"/>
    <path d="M107.91 147.906C107.933 147.607 108.026 147.317 108.182 147.061C108.338 146.804 108.553 146.589 108.809 146.431L114.576 143.122C115.076 142.837 115.467 143.037 115.467 143.567C115.443 143.866 115.349 144.155 115.193 144.411C115.037 144.667 114.823 144.883 114.569 145.041L108.84 148.351C108.302 148.643 107.903 148.444 107.91 147.906Z" fill="#1BC19A"/>
    <path d="M157.768 119.053C157.792 118.754 157.886 118.465 158.042 118.209C158.198 117.953 158.412 117.737 158.666 117.579L164.403 114.261C164.894 113.977 165.294 114.176 165.286 114.714C165.264 115.013 165.171 115.303 165.014 115.559C164.858 115.816 164.643 116.031 164.388 116.189L158.658 119.499C158.167 119.783 157.768 119.583 157.768 119.053Z" fill="#1BC19A"/>
</svg>
