<svg width="25" height="25" viewBox="0 0 25 25" fill="none" xmlns="http://www.w3.org/2000/svg">
    <path fill-rule="evenodd" clip-rule="evenodd" d="M2.64941 12.5C2.64941 12.0858 2.9852 11.75 3.39941 11.75H21.3994C21.8136 11.75 22.1494 12.0858 22.1494 12.5C22.1494 12.9142 21.8136 13.25 21.3994 13.25H3.39941C2.9852 13.25 2.64941 12.9142 2.64941 12.5Z" fill="#C2CEF8"/>
    <path fill-rule="evenodd" clip-rule="evenodd" d="M9.92973 5.96967C10.2226 6.26256 10.2226 6.73744 9.92973 7.03033L4.46007 12.5L9.92973 17.9697C10.2226 18.2626 10.2226 18.7374 9.92973 19.0303C9.63683 19.3232 9.16196 19.3232 8.86907 19.0303L2.86908 13.0303C2.57619 12.7374 2.57619 12.2626 2.86908 11.9697L8.86907 5.96967C9.16196 5.67678 9.63683 5.67678 9.92973 5.96967Z" fill="#C2CEF8"/>
</svg>
