<svg width="25" height="25" viewBox="0 0 25 25" fill="none" xmlns="http://www.w3.org/2000/svg">
    <path fill-rule="evenodd" clip-rule="evenodd" d="M22.3506 12.5C22.3506 12.9142 22.0148 13.25 21.6006 13.25L3.60059 13.25C3.18638 13.25 2.85059 12.9142 2.85059 12.5C2.85059 12.0858 3.18638 11.75 3.60059 11.75L21.6006 11.75C22.0148 11.75 22.3506 12.0858 22.3506 12.5Z" fill="#335BE9"/>
    <path fill-rule="evenodd" clip-rule="evenodd" d="M15.0703 19.0303C14.7774 18.7374 14.7774 18.2626 15.0703 17.9697L20.5399 12.5L15.0703 7.03033C14.7774 6.73744 14.7774 6.26256 15.0703 5.96967C15.3632 5.67678 15.838 5.67678 16.1309 5.96967L22.1309 11.9697C22.4238 12.2626 22.4238 12.7374 22.1309 13.0303L16.1309 19.0303C15.838 19.3232 15.3632 19.3232 15.0703 19.0303Z" fill="#335BE9"/>
</svg>
