<svg width="15" height="12" viewBox="0 0 15 12" fill="none" xmlns="http://www.w3.org/2000/svg">
<path opacity="0.5" d="M14.3867 6.57518L9.73917 11.2227C9.425 11.5368 8.905 11.5368 8.59083 11.2227C8.27667 10.9085 8.27667 10.3885 8.59083 10.0743L11.8517 6.81352L0.812499 6.81352C0.368333 6.81352 -9.53674e-07 6.44518 -9.53674e-07 6.00102C-9.53674e-07 5.55685 0.368333 5.18852 0.812499 5.18852L11.8517 5.18852L8.59083 1.92768C8.27667 1.61352 8.27667 1.09352 8.59083 0.779349C8.75333 0.616849 8.95917 0.541016 9.165 0.541016C9.37083 0.541016 9.5875 0.627682 9.73917 0.779349L14.3867 5.42685C14.5383 5.57852 14.625 5.78435 14.625 6.00102C14.625 6.21768 14.5383 6.42351 14.3867 6.57518Z" fill="black"/>
</svg>
