<svg width="50" height="50" viewBox="0 0 50 50" fill="none" xmlns="http://www.w3.org/2000/svg">
<path d="M18.7503 45.8332H31.2503C41.667 45.8332 45.8337 41.6665 45.8337 31.2498V18.7498C45.8337 8.33317 41.667 4.1665 31.2503 4.1665H18.7503C8.33366 4.1665 4.16699 8.33317 4.16699 18.7498V31.2498C4.16699 41.6665 8.33366 45.8332 18.7503 45.8332Z" stroke="#8E8EA9" stroke-width="2" stroke-linecap="round" stroke-linejoin="round"/>
<path d="M4.16699 27.0833H12.0003C13.5837 27.0833 15.0212 27.9792 15.7295 29.3958L17.5837 33.125C18.7503 35.4167 20.8337 35.4167 21.3337 35.4167H28.6878C30.2712 35.4167 31.7087 34.5208 32.417 33.1042L34.2712 29.375C34.9795 27.9583 36.417 27.0625 38.0003 27.0625H45.792" stroke="#8E8EA9" stroke-width="2" stroke-linecap="round" stroke-linejoin="round"/>
</svg>
