<svg width="34" height="34" viewBox="0 0 34 34" fill="none" xmlns="http://www.w3.org/2000/svg">
<path fill-rule="evenodd" clip-rule="evenodd" d="M34 17C34 26.3882 26.3882 34 17 34C7.61175 34 0 26.3882 0 17C0 7.61175 7.61175 0 17 0C26.3882 0 34 7.61175 34 17Z" fill="#272C3C"/>
<path d="M24.6239 9.4921C23.2217 8.80147 21.7181 8.29265 20.1459 8.00122C20.1173 7.9956 20.0887 8.00965 20.0739 8.03777C19.8805 8.40697 19.6663 8.88862 19.5163 9.26719C17.8254 8.99545 16.1431 8.99545 14.4868 9.26719C14.3368 8.8802 14.1148 8.40697 13.9205 8.03777C13.9058 8.01059 13.8772 7.99654 13.8485 8.00122C12.2773 8.29172 10.7736 8.80054 9.37052 9.4921C9.35838 9.49772 9.34797 9.5071 9.34106 9.51928C6.48894 14.0931 5.70763 18.5545 6.09092 22.9606C6.09265 22.9822 6.10392 23.0028 6.11953 23.0159C8.00127 24.4993 9.82406 25.3998 11.613 25.9967C11.6416 26.0061 11.672 25.9949 11.6902 25.9695C12.1134 25.3492 12.4906 24.6952 12.814 24.0073C12.8331 23.967 12.8149 23.9192 12.7759 23.9033C12.1775 23.6597 11.6078 23.3626 11.0598 23.0253C11.0164 22.9981 11.0129 22.9316 11.0528 22.8997C11.1681 22.8069 11.2835 22.7104 11.3936 22.613C11.4135 22.5952 11.4413 22.5914 11.4647 22.6026C15.0652 24.3672 18.9631 24.3672 22.521 22.6026C22.5445 22.5905 22.5722 22.5942 22.593 22.612C22.7032 22.7095 22.8185 22.8069 22.9347 22.8997C22.9746 22.9316 22.972 22.9981 22.9286 23.0253C22.3806 23.3692 21.8108 23.6597 21.2116 23.9024C21.1726 23.9183 21.1553 23.967 21.1744 24.0073C21.5047 24.6942 21.882 25.3483 22.2973 25.9686C22.3147 25.9949 22.3459 26.0061 22.3745 25.9967C24.1721 25.3998 25.9949 24.4993 27.8766 23.0159C27.8931 23.0028 27.9035 22.9831 27.9053 22.9616C28.364 17.8676 27.1369 13.4428 24.6525 9.52021C24.6465 9.5071 24.6361 9.49772 24.6239 9.4921ZM13.3517 20.2778C12.2677 20.2778 11.3745 19.2095 11.3745 17.8976C11.3745 16.5857 12.2504 15.5175 13.3517 15.5175C14.4616 15.5175 15.3462 16.5951 15.3288 17.8976C15.3288 19.2095 14.453 20.2778 13.3517 20.2778ZM20.6619 20.2778C19.5779 20.2778 18.6847 19.2095 18.6847 17.8976C18.6847 16.5857 19.5606 15.5175 20.6619 15.5175C21.7718 15.5175 22.6563 16.5951 22.639 17.8976C22.639 19.2095 21.7718 20.2778 20.6619 20.2778Z" fill="white"/>
</svg>
