<svg width="34" height="34" viewBox="0 0 34 34" fill="none" xmlns="http://www.w3.org/2000/svg">
<g clip-path="url(#clip0_1_42262)">
<rect width="34" height="34" rx="17" fill="white"/>
<path fill-rule="evenodd" clip-rule="evenodd" d="M34 17C34 26.3882 26.3882 34 17 34C7.61175 34 0 26.3882 0 17C0 7.61175 7.61175 0 17 0C26.3882 0 34 7.61175 34 17Z" fill="#272C3C"/>
<path d="M12 18.0329H14.9033V26H18.7744V18.0329H21.3555L21.8713 14.8978H18.7744V12.7032C18.7744 11.8247 19.0967 11.1352 20.5164 11.1352H22V8.25021C21.1619 8.12511 20.258 8 19.4199 8C16.774 8 14.9033 9.56712 14.9033 12.3891V14.8978H12V18.0329Z" fill="white"/>
</g>
<rect x="0.1" y="0.1" width="33.8" height="33.8" rx="16.9" stroke="#1F2E47" stroke-width="0.2"/>
<defs>
<clipPath id="clip0_1_42262">
<rect width="34" height="34" rx="17" fill="white"/>
</clipPath>
</defs>
</svg>
