<svg width="15" height="16" viewBox="0 0 15 16" fill="none" xmlns="http://www.w3.org/2000/svg">
    <path d="M8.5 15L6.5 13M6.5 13L8.5 11M6.5 13H9.5C11.1569 13 12.5 11.6569 12.5 10V5M2.5 11C3.60457 11 4.5 11.8954 4.5 13C4.5 14.1046 3.60457 15 2.5 15C1.39543 15 0.5 14.1046 0.5 13C0.5 11.8954 1.39543 11 2.5 11ZM2.5 11V6C2.5 4.34315 3.84315 3 5.5 3H8M6.5 1L8.5 3L6.5 5M12.5 5C11.3954 5 10.5 4.10457 10.5 3C10.5 1.89543 11.3954 1 12.5 1C13.6046 1 14.5 1.89543 14.5 3C14.5 4.10457 13.6046 5 12.5 5Z" stroke="white"/>
</svg>
