<svg width="20" height="19" viewBox="0 0 20 19" fill="none" xmlns="http://www.w3.org/2000/svg">
<g clip-path="url(#clip0_19_15899)">
<path fill-rule="evenodd" clip-rule="evenodd" d="M9.96903 1.33354H9.01237C8.81749 1.33354 8.33208 1.37602 7.94941 1.54593L7.9494 1.54594C7.47109 1.75833 7.47108 1.75833 7.31164 1.81143C7.24647 1.83313 7.03921 1.79273 6.75522 1.73737C6.34443 1.6573 5.77308 1.54593 5.23888 1.54593C4.33537 1.54593 2.74094 2.8734 1.83743 4.25397C0.933921 5.63454 0.668183 6.69651 1.78428 7.59919C2.02499 7.79387 2.24592 7.96632 2.45134 8.12666C3.1984 8.70979 3.74031 9.13279 4.28222 9.88244C4.97314 10.8382 5.45147 10.8382 6.03609 10.8382H6.99275C6.99275 11.5398 6.87351 13.2078 6.40445 14.431L7.1226 14.8071L7.28243 14.5408L7.38899 14.594V14.8071L7.68106 14.9323C8.08507 14.2212 8.33396 13.4665 8.42774 13.0684C8.53403 13.3693 8.78914 14.2684 8.95922 15.4578C9.12929 16.6472 9.17181 17.1924 9.17181 17.3163C8.99465 17.3163 8.67222 17.4118 8.79977 17.7941C8.95922 18.272 9.91587 18.5906 10.6068 17.7411C11.1595 17.0614 11.4749 14.3073 11.5635 13.0153C11.7583 13.5639 12.3394 14.8843 13.1047 15.7764C13.8701 16.6685 15.0181 17.1039 15.4964 17.2101L15.4432 16.9446L14.9118 16.626L15.0181 16.3605C14.6283 16.0419 13.785 15.0436 13.5299 13.5993C13.2748 12.1551 13.1756 11.1568 13.1579 10.8382H14.274C14.6283 10.8382 15.4007 10.7108 15.6558 10.201C15.9747 9.56384 16.5593 8.60807 17.8349 7.86468C19.1104 7.1213 19.3762 6.05933 18.6852 4.89115C17.9943 3.72298 16.9314 2.44861 16.0279 1.91762C15.3452 1.51645 14.8446 1.60023 14.3198 1.68807C14.1499 1.7165 13.9776 1.74535 13.7957 1.75833C13.6527 1.76853 13.5274 1.78265 13.4141 1.79543C12.9377 1.84912 12.6735 1.87889 12.2012 1.49283C11.8965 1.31886 11.4135 1.32301 10.5769 1.33021C10.3921 1.3318 10.1902 1.33354 9.96903 1.33354Z" fill="white"/>
<path fill-rule="evenodd" clip-rule="evenodd" d="M7.61261 10.1175L8.40834 11.0172C8.19614 10.0857 8.53212 8.75913 8.72664 8.21226C8.65591 8.49452 8.51444 9.12254 8.51444 9.37657C8.51444 9.69412 8.51444 10.435 8.72664 11.3347C8.79655 11.6312 8.87797 11.8988 8.96332 12.1794C9.13704 12.7506 9.32703 13.3752 9.46932 14.4043C9.63339 15.591 9.68486 16.5547 9.68813 16.9046C9.68611 17.0199 9.66667 17.2609 9.62639 17.4209C9.58376 17.5903 9.43103 17.6679 9.35999 17.6856L9.51983 17.8443C9.69742 17.8267 9.96946 17.7682 10.2125 17.5268C10.3723 17.368 10.5408 17.0975 10.5408 16.8858C10.5408 16.5683 10.5727 15.6321 10.7425 14.4043C10.8848 13.3752 11.0748 12.7506 11.2485 12.1794C11.3338 11.8988 11.4153 11.6312 11.4852 11.3347C11.6974 10.435 11.6974 9.69412 11.6974 9.37657C11.6974 9.12254 11.5559 8.49452 11.4852 8.21226C11.6797 8.75913 12.0157 10.0857 11.8035 11.0172L12.5992 10.1175C12.4577 9.8176 12.1218 8.99553 11.9096 8.10641C11.6443 6.99502 11.8565 5.98947 12.1218 5.46024C12.3339 5.03685 12.7053 4.5429 12.8644 4.34884C12.6169 4.70167 12.1111 5.54491 12.0687 6.09532C12.0263 6.64572 12.051 6.88917 12.0687 6.94209C12.1218 6.76568 12.2703 6.39169 12.44 6.30701C12.6522 6.20116 13.1297 6.46578 12.9705 6.88917C12.8432 7.22788 12.4931 7.34784 12.3339 7.36548C12.387 7.41841 12.5355 7.52425 12.7053 7.52425C12.875 7.52425 12.9882 7.38312 13.0236 7.31256C13.0059 7.40076 12.9281 7.60893 12.7583 7.73595C12.5886 7.86296 12.44 7.93 12.387 7.94764C12.387 7.98292 12.4188 8.06407 12.5461 8.10641C12.6735 8.14875 12.8468 8.15933 12.9175 8.15933C12.8821 8.24754 12.7689 8.43454 12.5992 8.47688C12.4294 8.51921 12.3516 8.45923 12.3339 8.42395C12.3516 8.54744 12.44 8.78383 12.6522 8.74149C12.9175 8.68857 13.2358 8.3181 13.2888 7.47133C13.3419 6.62455 13.2358 6.30701 13.0766 6.09532C12.9175 5.88362 12.7053 5.88362 12.5461 5.88362C12.4188 5.88362 12.2809 6.02475 12.2278 6.09532C12.2809 5.95419 12.4719 5.68251 12.8114 5.72485C12.9811 5.76719 13.0943 5.88362 13.1297 5.93655C13.1297 5.84834 13.0978 5.62959 12.9705 5.46024C12.9636 5.45107 12.9568 5.4421 12.9502 5.43329C12.8028 5.23868 12.7145 5.12207 12.9175 4.66638C13.1297 4.19007 13.2888 3.76668 13.1297 3.02576C12.9705 2.28483 12.0687 1.96729 11.6974 1.96729H10.1592H10.1059H8.51444C8.1431 1.96729 7.24128 2.28483 7.08213 3.02576C6.92299 3.76668 7.08213 4.19007 7.29433 4.66638C7.49733 5.12207 7.40902 5.23868 7.26164 5.43329C7.25496 5.4421 7.24817 5.45107 7.24128 5.46024C7.11396 5.62959 7.08213 5.84834 7.08213 5.93655C7.1175 5.88362 7.23067 5.76719 7.40042 5.72485C7.73993 5.68251 7.93091 5.95419 7.98396 6.09532C7.93091 6.02475 7.79298 5.88362 7.66567 5.88362C7.50652 5.88362 7.29432 5.88362 7.13517 6.09532C6.97603 6.30701 6.86993 6.62455 6.92298 7.47133C6.97603 8.3181 7.29432 8.68857 7.55956 8.74149C7.77176 8.78383 7.86017 8.54744 7.87785 8.42395C7.86017 8.45923 7.78237 8.51921 7.61261 8.47688C7.44286 8.43454 7.32969 8.24754 7.29432 8.15933C7.36505 8.15933 7.53834 8.14875 7.66566 8.10641C7.79298 8.06407 7.82481 7.98292 7.82481 7.94764C7.77176 7.93 7.62322 7.86296 7.45347 7.73595C7.28371 7.60893 7.20591 7.40076 7.18822 7.31256C7.22359 7.38312 7.33676 7.52425 7.50651 7.52425C7.67627 7.52425 7.82481 7.41841 7.87785 7.36548C7.71871 7.34784 7.36859 7.22788 7.24127 6.88917C7.08213 6.46578 7.55956 6.20116 7.77176 6.30701C7.94151 6.39169 8.09005 6.76568 8.1431 6.94209C8.16078 6.88917 8.18554 6.64572 8.1431 6.09532C8.10066 5.54491 7.59493 4.70167 7.34737 4.34884C7.50652 4.5429 7.87786 5.03685 8.09005 5.46024C8.35529 5.98947 8.56749 6.99502 8.30224 8.10641C8.09005 8.99553 7.75408 9.8176 7.61261 10.1175Z" fill="#1BC19A"/>
<path d="M5.25368 3.68506C4.55909 4.13699 3.98526 4.79396 3.77274 5.08181C4.12247 4.62213 5.42694 4.42681 6.08283 5.25446C6.74614 6.09146 6.52504 6.56228 5.86173 7.81779C5.33108 8.82219 5.53007 9.80568 5.6959 10.1719C5.36424 9.64874 4.4356 8.42462 3.37431 7.71316C2.0477 6.82384 1.55021 6.82383 2.15825 4.99288C2.76628 3.16193 4.97731 2.06336 5.58534 2.32492C6.19337 2.58649 6.1381 3.10962 5.25368 3.68506Z" fill="#1BC19A"/>
<path d="M14.9592 3.68506C15.6538 4.13699 16.2276 4.79396 16.4402 5.08181C16.0904 4.62213 14.7859 4.42681 14.1301 5.25446C13.4668 6.09146 13.6879 6.56228 14.3512 7.81779C14.8818 8.82219 14.6828 9.80568 14.517 10.1719C14.8486 9.64874 15.7773 8.42462 16.8386 7.71316C18.1652 6.82384 18.6627 6.82383 18.0546 4.99288C17.4466 3.16193 15.2356 2.06336 14.6276 2.32492C14.0195 2.58649 14.0748 3.10962 14.9592 3.68506Z" fill="#1BC19A"/>
<path fill-rule="evenodd" clip-rule="evenodd" d="M6.88867 14.1519L7.12263 14.2744L7.28247 14.008L7.38903 14.0613V14.1887C7.44053 14.0695 7.48899 13.9468 7.53364 13.8208C8.01206 12.4701 8.2404 11.7807 8.29476 11.6048L7.69674 11.0244C7.5766 11.5907 7.2549 12.9679 6.88867 14.1519Z" fill="#1BC19A"/>
<path d="M13.386 14.3484C12.9945 13.1243 12.643 11.6224 12.5161 11.0244L11.9181 11.6048C11.9725 11.7807 12.2008 12.4701 12.6792 13.8208C13.1576 15.1715 14.0746 16.1423 14.4733 16.4588L14.582 16.3006C14.3464 16.1599 13.7774 15.5724 13.386 14.3484Z" fill="#1BC19A"/>
<path fill-rule="evenodd" clip-rule="evenodd" d="M7.71483 2.80175C7.7638 2.76909 7.77703 2.70291 7.74438 2.65393C7.71174 2.60494 7.64558 2.5917 7.59661 2.62436C7.44563 2.72506 7.35427 2.86982 7.30095 3.00417C7.24784 3.13799 7.22949 3.26864 7.22949 3.35265C7.22949 3.41152 7.2772 3.45925 7.33605 3.45925C7.3949 3.45925 7.44261 3.41152 7.44261 3.35265C7.44261 3.29452 7.45623 3.19066 7.49902 3.08285C7.54159 2.97558 7.61008 2.87161 7.71483 2.80175ZM12.4983 2.85505C12.4493 2.82239 12.4361 2.75621 12.4687 2.70722C12.5013 2.65824 12.5675 2.645 12.6165 2.67766C12.7675 2.77836 12.8588 2.92312 12.9121 3.05747C12.9652 3.19129 12.9836 3.32194 12.9836 3.40595C12.9836 3.46482 12.9359 3.51255 12.877 3.51255C12.8182 3.51255 12.7705 3.46482 12.7705 3.40595C12.7705 3.34782 12.7569 3.24396 12.7141 3.13615C12.6715 3.02888 12.603 2.92491 12.4983 2.85505ZM9.82226 10.9627C9.8549 11.0117 9.84166 11.0779 9.79269 11.1105L8.52264 11.9574C8.47367 11.9901 8.40751 11.9768 8.37487 11.9278C8.34223 11.8788 8.35547 11.8126 8.40444 11.78L9.67449 10.9331C9.72346 10.9005 9.78962 10.9137 9.82226 10.9627ZM9.72212 11.9253C9.77625 11.9022 9.80141 11.8396 9.77832 11.7854C9.75523 11.7313 9.69263 11.7061 9.6385 11.7292L8.52829 12.203C8.47416 12.2261 8.44899 12.2887 8.47208 12.3429C8.49517 12.397 8.55777 12.4222 8.6119 12.3991L9.72212 11.9253ZM9.83198 12.4733C9.85458 12.5277 9.82884 12.5901 9.7745 12.6127L8.87739 12.9858C8.82305 13.0084 8.76069 12.9826 8.7381 12.9282C8.71551 12.8739 8.74124 12.8115 8.79558 12.7889L9.69269 12.4158C9.74703 12.3932 9.80939 12.4189 9.83198 12.4733ZM9.77531 13.3052C9.82947 13.2822 9.85468 13.2196 9.83164 13.1654C9.8086 13.1112 9.74602 13.086 9.69187 13.109L8.9546 13.4229C8.90045 13.4459 8.87523 13.5086 8.89828 13.5627C8.92132 13.6169 8.9839 13.6421 9.03805 13.6191L9.77531 13.3052ZM9.9382 13.7576C9.96124 13.8118 9.93602 13.8744 9.88187 13.8974L9.14461 14.2113C9.09046 14.2344 9.02788 14.2091 9.00483 14.155C8.98179 14.1008 9.00701 14.0382 9.06116 14.0151L9.79842 13.7013C9.85257 13.6782 9.91515 13.7034 9.9382 13.7576ZM9.93489 14.5312C9.9891 14.5083 10.0145 14.4458 9.99159 14.3915C9.96869 14.3373 9.90618 14.3119 9.85197 14.3348L9.22126 14.6013C9.16705 14.6242 9.14166 14.6867 9.16456 14.741C9.18746 14.7952 9.24997 14.8206 9.30418 14.7977L9.93489 14.5312ZM9.94143 15.0987C9.95972 15.1547 9.92919 15.2149 9.87325 15.2332L9.40238 15.3871C9.34644 15.4054 9.28628 15.3749 9.26799 15.3189C9.24971 15.263 9.28023 15.2028 9.33617 15.1845L9.80704 15.0305C9.86298 15.0122 9.92315 15.0428 9.94143 15.0987ZM9.92653 15.7129C9.98247 15.6946 10.013 15.6344 9.99471 15.5784C9.97643 15.5225 9.91626 15.4919 9.86032 15.5102L9.38945 15.6642C9.33351 15.6825 9.30299 15.7427 9.32127 15.7986C9.33955 15.8546 9.39972 15.8851 9.45566 15.8668L9.92653 15.7129ZM9.36928 16.2452C9.36928 16.1863 9.41698 16.1386 9.47583 16.1386H10.7545C10.8134 16.1386 10.8611 16.1863 10.8611 16.2452C10.8611 16.3041 10.8134 16.3518 10.7545 16.3518H9.47583C9.41698 16.3518 9.36928 16.3041 9.36928 16.2452ZM9.53066 17.0599C9.48019 17.0296 9.41474 17.046 9.38446 17.0964C9.35418 17.1469 9.37055 17.2124 9.42101 17.2427L10.2202 17.7224C10.2707 17.7527 10.3361 17.7363 10.3664 17.6858C10.3967 17.6353 10.3803 17.5699 10.3298 17.5396L9.53066 17.0599ZM10.3348 10.967C10.3651 10.9165 10.4305 10.9001 10.481 10.9304L11.7151 11.6707C11.7655 11.701 11.7819 11.7664 11.7516 11.8169C11.7214 11.8674 11.6559 11.8838 11.6055 11.8535L10.3714 11.1133C10.3209 11.083 10.3046 11.0175 10.3348 10.967ZM10.5219 11.7295C10.468 11.706 10.4052 11.7308 10.3818 11.7848C10.3583 11.8388 10.3831 11.9016 10.437 11.925L11.4047 12.3455C11.4587 12.369 11.5214 12.3442 11.5449 12.2902C11.5683 12.2362 11.5436 12.1734 11.4896 12.15L10.5219 11.7295ZM10.3284 12.4719C10.3518 12.4178 10.4146 12.393 10.4686 12.4164L11.3297 12.7895C11.3837 12.8129 11.4085 12.8757 11.3851 12.9297C11.3617 12.9837 11.299 13.0085 11.245 12.9851L10.3839 12.612C10.3299 12.5886 10.305 12.5259 10.3284 12.4719ZM10.4671 13.0554C10.4128 13.0328 10.3504 13.0585 10.3278 13.1129C10.3052 13.1673 10.331 13.2296 10.3853 13.2522L11.1398 13.5661C11.1942 13.5887 11.2565 13.563 11.2791 13.5086C11.3017 13.4542 11.276 13.3919 11.2217 13.3693L10.4671 13.0554ZM10.2224 13.7558C10.2464 13.7021 10.3095 13.678 10.3632 13.702L11.0644 14.0159C11.1182 14.0399 11.1422 14.103 11.1182 14.1567C11.0941 14.2105 11.0311 14.2346 10.9774 14.2105L10.2761 13.8967C10.2224 13.8726 10.1984 13.8096 10.2224 13.7558ZM10.3577 14.3334C10.3028 14.3124 10.2412 14.3399 10.2201 14.3949C10.1991 14.4499 10.2266 14.5115 10.2816 14.5326L10.823 14.7398C10.878 14.7609 10.9396 14.7334 10.9606 14.6784C10.9816 14.6234 10.9541 14.5618 10.8992 14.5407L10.3577 14.3334ZM10.3274 15.092C10.3494 15.0374 10.4115 15.011 10.4661 15.033L10.8477 15.1869C10.9022 15.209 10.9286 15.2711 10.9066 15.3257C10.8846 15.3803 10.8225 15.4067 10.7679 15.3847L10.3864 15.2307C10.3318 15.2087 10.3054 15.1466 10.3274 15.092ZM10.3655 15.5153C10.3124 15.49 10.2488 15.5125 10.2235 15.5657C10.1981 15.6188 10.2207 15.6824 10.2738 15.7078L10.7087 15.915C10.7618 15.9404 10.8254 15.9178 10.8507 15.8646C10.876 15.8115 10.8535 15.7479 10.8004 15.7226L10.3655 15.5153ZM9.47583 16.7782C9.47583 16.7193 9.52354 16.6716 9.58239 16.6716H10.7545C10.8134 16.6716 10.8611 16.7193 10.8611 16.7782C10.8611 16.8371 10.8134 16.8848 10.7545 16.8848H9.58239C9.52354 16.8848 9.47583 16.8371 9.47583 16.7782ZM9.1967 9.84649C9.29921 9.65604 9.59298 9.42286 10.1152 9.42286C10.3712 9.42286 10.5453 9.49211 10.6687 9.57724C10.7939 9.66358 10.8728 9.77017 10.9336 9.85708C10.9674 9.90531 11.0338 9.91704 11.082 9.88328C11.1302 9.84952 11.142 9.78305 11.1082 9.73482C11.0447 9.64407 10.9478 9.51082 10.7897 9.40173C10.6298 9.29142 10.4133 9.20966 10.1152 9.20966C9.52918 9.20966 9.15519 9.47394 9.00906 9.74541C8.98116 9.79725 9.00055 9.8619 9.05236 9.88981C9.10418 9.91772 9.1688 9.89833 9.1967 9.84649ZM9.90206 10.169C9.76338 10.169 9.63323 10.2156 9.55118 10.2977C9.50957 10.3394 9.4421 10.3394 9.40049 10.2977C9.35887 10.2561 9.35887 10.1886 9.40049 10.147C9.53155 10.0159 9.72108 9.95585 9.90206 9.95585C9.96091 9.95585 10.0086 10.0036 10.0086 10.0625C10.0086 10.1213 9.96091 10.169 9.90206 10.169ZM10.4128 10.1911C10.4001 10.1784 10.3907 10.1746 10.3824 10.1725C10.3705 10.1696 10.3569 10.169 10.3283 10.169C10.2694 10.169 10.2217 10.1213 10.2217 10.0625C10.2217 10.0036 10.2694 9.95585 10.3283 9.95585L10.3318 9.95585C10.3871 9.95581 10.4789 9.95574 10.5635 10.0404C10.6051 10.082 10.6051 10.1495 10.5635 10.1911C10.5219 10.2328 10.4544 10.2328 10.4128 10.1911ZM10.0619 8.72996C9.62344 8.72996 9.39981 8.90077 9.32943 8.97117C9.28782 9.0128 9.22035 9.0128 9.17873 8.97117C9.13712 8.92954 9.13712 8.86205 9.17873 8.82042C9.28595 8.71316 9.56265 8.51677 10.0619 8.51677C10.555 8.51677 10.8193 8.67954 10.9415 8.81987C10.9801 8.86428 10.9754 8.93161 10.931 8.97027C10.8867 9.00892 10.8193 9.00426 10.7807 8.95985C10.707 8.87512 10.5065 8.72996 10.0619 8.72996ZM9.37393 8.17954C9.40451 8.15506 9.49473 8.10512 9.62437 8.06101C9.75139 8.01779 9.906 7.98377 10.0619 7.98377C10.371 7.98377 10.5857 8.11758 10.6868 8.185C10.7357 8.21766 10.8019 8.20442 10.8345 8.15543C10.8672 8.10645 10.854 8.04026 10.805 8.00761C10.693 7.93289 10.4348 7.77057 10.0619 7.77057C9.87681 7.77057 9.69855 7.81058 9.55575 7.85917C9.41557 7.90686 9.29901 7.96648 9.2408 8.01306C9.19484 8.04984 9.18739 8.11692 9.22415 8.1629C9.26092 8.20887 9.32797 8.21632 9.37393 8.17954ZM9.99998 6.60392C9.51633 6.60392 9.24235 6.80584 9.17611 6.88536C9.13843 6.93059 9.07124 6.9367 9.02603 6.89901C8.98082 6.86132 8.97471 6.7941 9.01239 6.74887C9.12374 6.61519 9.46068 6.39072 9.99998 6.39072C10.533 6.39072 10.868 6.57534 10.9811 6.68844C11.0227 6.73007 11.0227 6.79756 10.9811 6.83919C10.9395 6.88082 10.872 6.88082 10.8304 6.83919C10.7658 6.77462 10.4899 6.60392 9.99998 6.60392ZM9.25728 7.54711C9.39214 7.46279 9.74124 7.29681 10.0533 7.29681C10.3617 7.29681 10.6367 7.46005 10.7309 7.5386C10.7762 7.57629 10.8433 7.57018 10.881 7.52495C10.9187 7.47973 10.9126 7.41251 10.8674 7.37482C10.7485 7.27571 10.4268 7.08361 10.0533 7.08361C9.68332 7.08361 9.29362 7.27297 9.14433 7.36631C9.09442 7.39752 9.07925 7.46328 9.11044 7.51321C9.14163 7.56313 9.20737 7.57831 9.25728 7.54711Z" fill="white"/>
</g>
<defs>
<clipPath id="clip0_19_15899">
<rect width="18.2213" height="18.2213" fill="white" transform="translate(0.942383 0.688477)"/>
</clipPath>
</defs>
</svg>
