<svg width="211" height="211" viewBox="0 0 211 211" fill="none" xmlns="http://www.w3.org/2000/svg">
    <path fill-rule="evenodd" clip-rule="evenodd" d="M104.645 7.54366H93.6067C91.3582 7.54366 85.7572 8.0338 81.3419 9.99437L81.3418 9.99443C75.8227 12.4451 75.8227 12.4451 73.983 13.0578C73.231 13.3082 70.8396 12.8421 67.5627 12.2033C62.8228 11.2794 56.2303 9.99437 50.0665 9.99437C39.6414 9.99437 21.2441 25.3113 10.819 41.2409C0.393879 57.1706 -2.67233 69.4241 10.2058 79.8397C12.9831 82.0859 15.5323 84.0758 17.9025 85.9259C26.5225 92.6543 32.7753 97.535 39.0281 106.185C47.0003 117.213 52.5194 117.213 59.2651 117.213H70.3035C70.3035 125.309 68.9276 144.554 63.5154 158.668L71.8017 163.008L73.646 159.935L74.8755 160.549V163.008L78.2455 164.453C82.9072 156.247 85.779 147.54 86.861 142.945C88.0875 146.417 91.0311 156.792 92.9934 170.516C94.9558 184.24 95.4464 190.53 95.4464 191.96C93.4023 191.96 89.6819 193.063 91.1537 197.474C92.9934 202.988 104.032 206.664 112.004 196.861C118.382 189.019 122.02 157.241 123.042 142.333C125.291 148.664 131.996 163.899 140.826 174.192C149.657 184.485 162.903 189.509 168.422 190.734L167.809 187.671L161.677 183.995L162.903 180.932C158.406 177.255 148.676 165.737 145.732 149.072C142.789 132.407 141.644 120.889 141.44 117.213H154.318C158.406 117.213 167.318 115.743 170.262 109.861C173.941 102.509 180.687 91.4805 195.405 82.9031C210.123 74.3256 213.189 62.072 205.217 48.5931C197.245 35.1142 184.98 20.4099 174.555 14.2831C166.678 9.65418 160.902 10.6209 154.846 11.6345C152.886 11.9624 150.897 12.2953 148.799 12.4451C147.149 12.5628 145.703 12.7258 144.395 12.8731C138.899 13.4927 135.851 13.8362 130.401 9.3817C126.885 7.3743 121.312 7.42224 111.659 7.50528C109.527 7.52361 107.197 7.54366 104.645 7.54366Z" fill="white"/>
    <path fill-rule="evenodd" clip-rule="evenodd" d="M77.4593 108.894L86.6408 119.275C84.1924 108.527 88.069 93.22 90.3134 86.9099C89.4973 90.1667 87.865 97.4132 87.865 100.344C87.865 104.008 87.865 112.557 90.3134 122.939C91.1201 126.359 92.0596 129.447 93.0444 132.685C95.0489 139.275 97.2411 146.482 98.8828 158.357C100.776 172.05 101.37 183.169 101.408 187.206C101.384 188.537 101.16 191.317 100.695 193.164C100.203 195.118 98.4411 196.014 97.6214 196.217L99.4657 198.049C101.515 197.846 104.654 197.17 107.457 194.385C109.302 192.553 111.246 189.432 111.246 186.989C111.246 183.326 111.614 172.524 113.573 158.357C115.215 146.482 117.407 139.275 119.412 132.685C120.396 129.447 121.336 126.359 122.143 122.939C124.591 112.557 124.591 104.008 124.591 100.344C124.591 97.4132 122.959 90.1667 122.143 86.9099C124.387 93.22 128.264 108.527 125.815 119.275L134.997 108.894C133.364 105.433 129.488 95.9476 127.039 85.6886C123.979 72.8648 126.427 61.2624 129.488 55.1558C131.936 50.2706 136.221 44.5711 138.057 42.332C135.201 46.4031 129.365 56.1329 128.876 62.4837C128.386 68.8345 128.672 71.6435 128.876 72.2542C129.488 70.2187 131.202 65.9034 133.16 64.9263C135.609 63.705 141.118 66.7583 139.281 71.6435C137.812 75.5517 133.773 76.9359 131.936 77.1394C132.548 77.7501 134.262 78.9714 136.221 78.9714C138.18 78.9714 139.485 77.343 139.894 76.5288C139.69 77.5465 138.792 79.9484 136.833 81.414C134.874 82.8796 133.16 83.6531 132.548 83.8566C132.548 84.2637 132.916 85.2001 134.385 85.6886C135.854 86.1771 137.853 86.2993 138.669 86.2993C138.261 87.317 136.955 89.4747 134.997 89.9632C133.038 90.4517 132.14 89.7596 131.936 89.3525C132.14 90.7774 133.16 93.505 135.609 93.0165C138.669 92.4058 142.342 88.1312 142.954 78.3607C143.566 68.5902 142.342 64.9263 140.506 62.4837C138.669 60.0411 136.221 60.0411 134.385 60.0411C132.916 60.0411 131.324 61.6695 130.712 62.4837C131.324 60.8553 133.528 57.7206 137.445 58.2091C139.404 58.6976 140.71 60.0411 141.118 60.6517C141.118 59.634 140.75 57.1099 139.281 55.1558C139.202 55.05 139.123 54.9465 139.046 54.8449C137.346 52.5994 136.327 51.2538 138.669 45.996C141.118 40.5001 142.954 35.6148 141.118 27.0657C139.281 18.5165 128.876 14.8525 124.591 14.8525H106.843H106.228H87.865C83.5804 14.8525 73.1747 18.5165 71.3384 27.0657C69.5021 35.6148 71.3384 40.5001 73.7868 45.996C76.1291 51.2538 75.1101 52.5994 73.4096 54.8449C73.3326 54.9465 73.2542 55.05 73.1747 55.1558C71.7056 57.1099 71.3384 59.634 71.3384 60.6517C71.7464 60.0411 73.0522 58.6976 75.011 58.2091C78.9284 57.7206 81.132 60.8553 81.7441 62.4837C81.132 61.6695 79.5405 60.0411 78.0715 60.0411C76.2352 60.0411 73.7867 60.0411 71.9504 62.4837C70.1141 64.9263 68.8899 68.5902 69.502 78.3607C70.1141 88.1312 73.7867 92.4058 76.8472 93.0165C79.2956 93.505 80.3158 90.7774 80.5198 89.3525C80.3158 89.7596 79.418 90.4517 77.4593 89.9632C75.5006 89.4747 74.1948 87.317 73.7867 86.2993C74.6028 86.2993 76.6023 86.1771 78.0714 85.6886C79.5404 85.2001 79.9077 84.2637 79.9077 83.8566C79.2956 83.6531 77.5817 82.8796 75.623 81.414C73.6643 79.9484 72.7665 77.5465 72.5625 76.5288C72.9706 77.343 74.2764 78.9714 76.2351 78.9714C78.1938 78.9714 79.9077 77.7501 80.5198 77.1394C78.6835 76.9359 74.6436 75.5517 73.1746 71.6435C71.3383 66.7583 76.8472 63.705 79.2956 64.9263C81.2543 65.9034 82.9682 70.2187 83.5803 72.2542C83.7843 71.6435 84.07 68.8345 83.5803 62.4837C83.0906 56.1329 77.2553 46.4031 74.3988 42.332C76.2351 44.5711 80.5198 50.2706 82.9682 55.1558C86.0287 61.2624 88.4771 72.8648 85.4166 85.6886C82.9682 95.9476 79.0916 105.433 77.4593 108.894Z" fill="#1BC19A"/>
    <path d="M50.2363 34.6768C42.2217 39.8915 35.6005 47.4718 33.1484 50.7932C37.1838 45.4892 52.2354 43.2355 59.8033 52.7853C67.4569 62.443 64.9057 67.8755 57.2521 82.3622C51.1293 93.9515 53.4254 105.299 55.3388 109.525C51.5119 103.489 40.7969 89.3641 28.5512 81.155C13.2441 70.8936 7.5039 70.8934 14.5197 49.7671C21.5354 28.6407 47.0473 15.9649 54.063 18.983C61.0788 22.001 60.441 28.0371 50.2363 34.6768Z" fill="#1BC19A"/>
    <path d="M162.22 34.6768C170.234 39.8915 176.856 47.4718 179.308 50.7932C175.272 45.4892 160.221 43.2355 152.653 52.7853C144.999 62.443 147.55 67.8755 155.204 82.3622C161.327 93.9515 159.031 105.299 157.117 109.525C160.944 103.489 171.659 89.3641 183.905 81.155C199.212 70.8936 204.952 70.8934 197.936 49.7671C190.921 28.6407 165.409 15.9649 158.393 18.983C151.377 22.001 152.015 28.0371 162.22 34.6768Z" fill="#1BC19A"/>
    <path fill-rule="evenodd" clip-rule="evenodd" d="M69.1025 155.447L71.8021 156.861L73.6463 153.788L74.8759 154.402V155.873C75.4701 154.497 76.0293 153.081 76.5445 151.627C82.0647 136.042 84.6994 128.087 85.3267 126.058L78.4264 119.361C77.0401 125.896 73.3283 141.786 69.1025 155.447Z" fill="#1BC19A"/>
    <path d="M144.067 157.715C139.55 143.591 135.493 126.261 134.03 119.361L127.129 126.058C127.757 128.087 130.391 136.042 135.912 151.627C141.432 167.212 152.012 178.414 156.613 182.066L157.867 180.24C155.149 178.616 148.583 171.839 144.067 157.715Z" fill="#1BC19A"/>
    <path fill-rule="evenodd" clip-rule="evenodd" d="M78.6313 24.483C79.1963 24.1062 79.349 23.3426 78.9723 22.7773C78.5956 22.2121 77.8323 22.0594 77.2673 22.4362C75.5251 23.5981 74.471 25.2684 73.8557 26.8187C73.2429 28.3627 73.0312 29.8702 73.0312 30.8395C73.0312 31.5188 73.5817 32.0695 74.2608 32.0695C74.9398 32.0695 75.4903 31.5188 75.4903 30.8395C75.4903 30.1688 75.6475 28.9704 76.1412 27.7265C76.6324 26.4888 77.4226 25.2891 78.6313 24.483ZM133.825 25.098C133.26 24.7212 133.107 23.9575 133.484 23.3923C133.86 22.8271 134.624 22.6744 135.189 23.0512C136.931 24.2131 137.985 25.8834 138.6 27.4337C139.213 28.9777 139.425 30.4852 139.425 31.4545C139.425 32.1338 138.874 32.6845 138.195 32.6845C137.516 32.6845 136.966 32.1338 136.966 31.4545C136.966 30.7838 136.808 29.5854 136.315 28.3415C135.824 27.1038 135.033 25.9041 133.825 25.098ZM102.948 118.648C103.324 119.213 103.172 119.977 102.607 120.354L87.9522 130.125C87.3871 130.502 86.6238 130.349 86.2472 129.784C85.8706 129.219 86.0233 128.455 86.5883 128.078L101.243 118.307C101.808 117.93 102.571 118.083 102.948 118.648ZM101.792 129.755C102.417 129.488 102.707 128.766 102.441 128.141C102.174 127.516 101.452 127.226 100.828 127.492L88.0174 132.959C87.3928 133.225 87.1024 133.948 87.3688 134.573C87.6353 135.197 88.3576 135.488 88.9822 135.221L101.792 129.755ZM103.06 136.078C103.321 136.705 103.024 137.425 102.397 137.686L92.0455 141.991C91.4185 142.252 90.6989 141.954 90.4382 141.327C90.1776 140.7 90.4745 139.98 91.1016 139.719L101.453 135.414C102.08 135.154 102.799 135.451 103.06 136.078ZM102.406 145.677C103.031 145.411 103.322 144.688 103.056 144.063C102.79 143.438 102.068 143.147 101.443 143.413L92.9364 147.035C92.3115 147.301 92.0206 148.023 92.2865 148.648C92.5524 149.273 93.2744 149.564 93.8992 149.298L102.406 145.677ZM104.286 150.897C104.551 151.522 104.26 152.244 103.636 152.51L95.1287 156.132C94.5039 156.398 93.7819 156.107 93.516 155.481C93.2501 154.856 93.541 154.134 94.1659 153.868L102.673 150.247C103.298 149.981 104.02 150.272 104.286 150.897ZM104.247 159.823C104.873 159.559 105.166 158.837 104.902 158.211C104.637 157.585 103.916 157.292 103.291 157.557L96.0132 160.632C95.3876 160.896 95.0947 161.618 95.3589 162.243C95.6231 162.869 96.3444 163.162 96.97 162.898L104.247 159.823ZM104.323 166.371C104.534 167.017 104.182 167.711 103.536 167.922L98.1031 169.699C97.4576 169.91 96.7634 169.558 96.5524 168.912C96.3414 168.266 96.6937 167.572 97.3391 167.361L102.772 165.584C103.418 165.373 104.112 165.725 104.323 166.371ZM104.151 173.457C104.796 173.246 105.149 172.552 104.938 171.906C104.727 171.26 104.032 170.908 103.387 171.119L97.9538 172.896C97.3084 173.107 96.9562 173.801 97.1672 174.447C97.3781 175.092 98.0724 175.445 98.7178 175.234L104.151 173.457ZM97.7211 179.6C97.7211 178.92 98.2715 178.37 98.9506 178.37H113.705C114.384 178.37 114.934 178.92 114.934 179.6C114.934 180.279 114.384 180.83 113.705 180.83H98.9506C98.2715 180.83 97.7211 180.279 97.7211 179.6ZM99.5832 189C99.0009 188.65 98.2456 188.839 97.8963 189.422C97.5469 190.004 97.7357 190.76 98.318 191.109L107.539 196.644C108.122 196.994 108.877 196.805 109.226 196.222C109.576 195.64 109.387 194.884 108.804 194.535L99.5832 189ZM108.862 118.698C109.211 118.115 109.966 117.926 110.549 118.275L124.788 126.817C125.37 127.166 125.559 127.922 125.21 128.504C124.861 129.087 124.106 129.276 123.523 128.927L109.284 120.385C108.702 120.036 108.513 119.28 108.862 118.698ZM111.021 127.495C110.398 127.225 109.674 127.511 109.404 128.134C109.133 128.757 109.419 129.481 110.041 129.752L121.207 134.603C121.829 134.874 122.554 134.588 122.824 133.965C123.095 133.342 122.809 132.618 122.186 132.347L111.021 127.495ZM108.788 136.061C109.058 135.438 109.782 135.151 110.405 135.421L120.341 139.726C120.964 139.996 121.25 140.72 120.98 141.344C120.711 141.967 119.987 142.254 119.364 141.984L109.428 137.679C108.805 137.409 108.518 136.685 108.788 136.061ZM110.389 142.794C109.762 142.533 109.042 142.83 108.781 143.458C108.521 144.085 108.817 144.805 109.444 145.066L118.151 148.687C118.778 148.948 119.497 148.651 119.758 148.024C120.019 147.396 119.722 146.677 119.095 146.416L110.389 142.794ZM107.565 150.876C107.842 150.256 108.569 149.978 109.189 150.256L117.281 153.877C117.9 154.155 118.178 154.882 117.901 155.502C117.623 156.122 116.896 156.4 116.276 156.123L108.185 152.501C107.565 152.224 107.287 151.496 107.565 150.876ZM109.126 157.541C108.492 157.298 107.781 157.616 107.539 158.25C107.296 158.885 107.613 159.596 108.248 159.839L114.495 162.23C115.129 162.473 115.84 162.155 116.082 161.521C116.325 160.886 116.008 160.175 115.374 159.933L109.126 157.541ZM108.776 166.293C109.03 165.663 109.747 165.358 110.376 165.613L114.779 167.389C115.409 167.643 115.714 168.36 115.46 168.99C115.206 169.62 114.489 169.925 113.86 169.67L109.457 167.894C108.827 167.64 108.522 166.923 108.776 166.293ZM109.216 171.178C108.603 170.886 107.869 171.146 107.577 171.759C107.285 172.372 107.545 173.106 108.158 173.399L113.176 175.79C113.789 176.082 114.523 175.822 114.815 175.209C115.107 174.595 114.847 173.861 114.234 173.569L109.216 171.178ZM98.9506 185.75C98.9506 185.07 99.5011 184.52 100.18 184.52H113.705C114.384 184.52 114.934 185.07 114.934 185.75C114.934 186.429 114.384 186.98 113.705 186.98H100.18C99.5011 186.98 98.9506 186.429 98.9506 185.75ZM95.7298 105.768C96.9127 103.571 100.302 100.88 106.328 100.88C109.282 100.88 111.291 101.68 112.715 102.662C114.159 103.658 115.069 104.888 115.771 105.891C116.161 106.447 116.927 106.583 117.484 106.193C118.04 105.803 118.175 105.037 117.786 104.48C117.053 103.433 115.935 101.895 114.111 100.637C112.266 99.3638 109.767 98.4204 106.328 98.4204C99.5661 98.4204 95.2508 101.47 93.5648 104.602C93.2428 105.2 93.4665 105.946 94.0644 106.268C94.6623 106.59 95.4079 106.367 95.7298 105.768ZM103.869 109.49C102.268 109.49 100.767 110.028 99.82 110.975C99.3398 111.455 98.5614 111.455 98.0812 110.975C97.601 110.495 97.601 109.716 98.0812 109.236C99.5934 107.723 101.78 107.03 103.869 107.03C104.548 107.03 105.098 107.581 105.098 108.26C105.098 108.94 104.548 109.49 103.869 109.49ZM109.762 109.745C109.615 109.599 109.506 109.554 109.411 109.53C109.273 109.496 109.117 109.49 108.787 109.49C108.108 109.49 107.557 108.94 107.557 108.26C107.557 107.581 108.108 107.03 108.787 107.03L108.827 107.03C109.465 107.03 110.524 107.029 111.5 108.006C111.98 108.486 111.98 109.265 111.5 109.745C111.02 110.225 110.242 110.225 109.762 109.745ZM105.713 92.8855C100.654 92.8855 98.0733 94.8563 97.2613 95.6687C96.7811 96.149 96.0027 96.149 95.5225 95.6687C95.0424 95.1883 95.0424 94.4095 95.5225 93.9292C96.7596 92.6916 99.9523 90.4255 105.713 90.4255C111.402 90.4255 114.453 92.3036 115.862 93.9229C116.307 94.4352 116.254 95.2122 115.741 95.6582C115.229 96.1042 114.453 96.0504 114.007 95.538C113.156 94.5604 110.843 92.8855 105.713 92.8855ZM97.7747 86.5345C98.1277 86.252 99.1686 85.6757 100.664 85.1668C102.13 84.6681 103.914 84.2756 105.713 84.2756C109.279 84.2756 111.757 85.8195 112.923 86.5974C113.488 86.9742 114.251 86.8215 114.628 86.2563C115.005 85.6911 114.852 84.9274 114.287 84.5506C112.994 83.6885 110.016 81.8156 105.713 81.8156C103.577 81.8156 101.52 82.2772 99.8727 82.8378C98.2552 83.3881 96.9103 84.076 96.2386 84.6136C95.7084 85.0379 95.6224 85.8119 96.0466 86.3424C96.4708 86.8728 97.2445 86.9588 97.7747 86.5345ZM104.998 68.3542C99.4179 68.3542 96.2565 70.684 95.4922 71.6016C95.0575 72.1234 94.2822 72.1939 93.7605 71.7591C93.2389 71.3242 93.1684 70.5486 93.6031 70.0267C94.888 68.4843 98.7758 65.8942 104.998 65.8942C111.149 65.8942 115.014 68.0245 116.319 69.3294C116.799 69.8098 116.799 70.5886 116.319 71.0689C115.839 71.5492 115.06 71.5492 114.58 71.0689C113.835 70.3239 110.651 68.3542 104.998 68.3542ZM96.4288 79.2371C97.9849 78.2642 102.013 76.3491 105.613 76.3491C109.172 76.3491 112.345 78.2326 113.433 79.139C113.954 79.5739 114.73 79.5034 115.164 78.9815C115.599 78.4596 115.529 77.6841 115.007 77.2492C113.635 76.1056 109.923 73.8891 105.613 73.8891C101.345 73.8891 96.8481 76.074 95.1255 77.1511C94.5497 77.5111 94.3746 78.2699 94.7345 78.846C95.0944 79.422 95.853 79.5971 96.4288 79.2371Z" fill="white"/>
</svg>
