<svg width="45" height="46" viewBox="0 0 45 46" fill="none" xmlns="http://www.w3.org/2000/svg">
<path fill-rule="evenodd" clip-rule="evenodd" d="M22.2923 2.09367H19.9297C19.4485 2.09367 18.2497 2.19858 17.3046 2.61821L17.3046 2.61822C16.1233 3.14275 16.1233 3.14275 15.7296 3.27388C15.5686 3.32749 15.0568 3.22772 14.3554 3.091C13.3409 2.89325 11.9299 2.61821 10.6106 2.61821C8.37926 2.61821 4.4416 5.89657 2.21026 9.30607C-0.0210825 12.7156 -0.677359 15.3383 2.079 17.5676C2.67346 18.0483 3.21908 18.4742 3.72638 18.8702C5.57136 20.3103 6.90967 21.355 8.248 23.2063C9.95432 25.5668 11.1356 25.5668 12.5794 25.5668H14.942C14.942 27.2995 14.6475 31.4187 13.4891 34.4396L15.2627 35.3686L15.6574 34.7107L15.9206 34.8423V35.3686L16.6419 35.6777C17.6397 33.9214 18.2543 32.0578 18.4859 31.0744C18.7484 31.8175 19.3785 34.0381 19.7985 36.9755C20.2185 39.9129 20.3235 41.2592 20.3235 41.5652C19.886 41.5652 19.0897 41.8012 19.4047 42.7454C19.7985 43.9256 22.1611 44.7124 23.8674 42.6143C25.2324 40.9357 26.0112 34.1342 26.23 30.9433C26.7113 32.2983 28.1463 35.5592 30.0364 37.7623C31.9265 39.9653 34.7616 41.0406 35.9429 41.3029L35.8116 40.6472L34.4991 39.8604L34.7616 39.2048C33.799 38.4179 31.7165 35.9526 31.0864 32.3858C30.4564 28.8189 30.2114 26.3536 30.1677 25.5668H32.924C33.799 25.5668 35.7066 25.252 36.3367 23.9931C37.1242 22.4195 38.568 20.0591 41.7181 18.2232C44.8683 16.3873 45.5245 13.7646 43.8182 10.8797C42.1119 7.99473 39.4868 4.8475 37.2554 3.53615C35.5696 2.5454 34.3333 2.75231 33.0371 2.96924C32.6177 3.03944 32.192 3.11069 31.7427 3.14275C31.3896 3.16795 31.0801 3.20283 30.8003 3.23437C29.6238 3.36697 28.9714 3.4405 27.8051 2.48708C27.0525 2.05742 25.8596 2.06768 23.7936 2.08546C23.3373 2.08938 22.8384 2.09367 22.2923 2.09367Z" fill="#1C202C"/>
<path fill-rule="evenodd" clip-rule="evenodd" d="M16.4745 23.7858L18.4397 26.0077C17.9156 23.7074 18.7454 20.4311 19.2258 19.0805C19.0511 19.7776 18.7017 21.3286 18.7017 21.956C18.7017 22.7402 18.7017 24.57 19.2258 26.7919C19.3984 27.524 19.5995 28.185 19.8103 28.878C20.2393 30.2885 20.7085 31.831 21.0599 34.3726C21.4651 37.3034 21.5922 39.6833 21.6003 40.5475C21.5953 40.8323 21.5473 41.4274 21.4478 41.8226C21.3426 42.2409 20.9654 42.4326 20.7899 42.4761L21.1847 42.8682C21.6233 42.8247 22.2951 42.6801 22.8952 42.084C23.2899 41.6919 23.706 41.0239 23.706 40.5011C23.706 39.7168 23.7849 37.4049 24.2042 34.3726C24.5556 31.831 25.0248 30.2885 25.4538 28.878C25.6646 28.185 25.8657 27.524 26.0383 26.7919C26.5624 24.57 26.5624 22.7402 26.5624 21.956C26.5624 21.3286 26.213 19.7776 26.0383 19.0805C26.5187 20.4311 27.3484 23.7074 26.8244 26.0077L28.7896 23.7858C28.4402 23.0451 27.6105 21.0149 27.0864 18.8191C26.4314 16.0744 26.9554 13.591 27.6105 12.284C28.1345 11.2384 29.0516 10.0185 29.4446 9.53929C28.8332 10.4106 27.5843 12.4932 27.4794 13.8525C27.3746 15.2117 27.4358 15.813 27.4794 15.9437C27.6105 15.508 27.9773 14.5844 28.3965 14.3753C28.9206 14.1139 30.0997 14.7674 29.7066 15.813C29.3922 16.6495 28.5275 16.9457 28.1345 16.9893C28.2655 17.12 28.6323 17.3814 29.0516 17.3814C29.4708 17.3814 29.7503 17.0329 29.8376 16.8586C29.794 17.0764 29.6018 17.5905 29.1826 17.9042C28.7634 18.2179 28.3965 18.3834 28.2655 18.427C28.2655 18.5141 28.3441 18.7146 28.6586 18.8191C28.973 18.9237 29.4009 18.9498 29.5756 18.9498C29.4883 19.1677 29.2088 19.6295 28.7896 19.734C28.3703 19.8386 28.1782 19.6905 28.1345 19.6033C28.1782 19.9083 28.3965 20.4921 28.9206 20.3875C29.5756 20.2568 30.3617 19.3419 30.4927 17.2507C30.6237 15.1595 30.3617 14.3753 29.9687 13.8525C29.5756 13.3296 29.0516 13.3296 28.6585 13.3296C28.3441 13.3296 28.0035 13.6782 27.8725 13.8525C28.0035 13.5039 28.4751 12.833 29.3136 12.9375C29.7328 13.0421 30.0123 13.3296 30.0997 13.4603C30.0997 13.2425 30.021 12.7023 29.7066 12.284C29.6896 12.2614 29.6728 12.2392 29.6563 12.2175C29.2924 11.7369 29.0743 11.4489 29.5756 10.3235C30.0997 9.14719 30.4927 8.10157 30.0997 6.27175C29.7066 4.44193 27.4794 3.65771 26.5624 3.65771H22.7636H22.632H18.7017C17.7846 3.65771 15.5575 4.44193 15.1644 6.27175C14.7714 8.10157 15.1644 9.14719 15.6885 10.3235C16.1898 11.4489 15.9717 11.7369 15.6077 12.2175C15.5913 12.2392 15.5745 12.2614 15.5575 12.284C15.243 12.7023 15.1644 13.2425 15.1644 13.4603C15.2518 13.3296 15.5313 13.0421 15.9505 12.9375C16.789 12.833 17.2606 13.5039 17.3916 13.8525C17.2606 13.6782 16.92 13.3296 16.6056 13.3296C16.2125 13.3296 15.6885 13.3296 15.2954 13.8525C14.9024 14.3753 14.6404 15.1595 14.7714 17.2507C14.9024 19.3419 15.6885 20.2568 16.3435 20.3875C16.8676 20.4921 17.0859 19.9083 17.1296 19.6033C17.0859 19.6905 16.8938 19.8386 16.4745 19.734C16.0553 19.6295 15.7758 19.1677 15.6885 18.9498C15.8631 18.9498 16.2911 18.9237 16.6055 18.8191C16.92 18.7146 16.9986 18.5141 16.9986 18.427C16.8676 18.3834 16.5007 18.2179 16.0815 17.9042C15.6623 17.5905 15.4701 17.0764 15.4264 16.8586C15.5138 17.0329 15.7933 17.3814 16.2125 17.3814C16.6317 17.3814 16.9986 17.12 17.1296 16.9893C16.7365 16.9457 15.8719 16.6495 15.5575 15.813C15.1644 14.7674 16.3435 14.1139 16.8676 14.3753C17.2868 14.5844 17.6536 15.508 17.7846 15.9437C17.8283 15.813 17.8894 15.2117 17.7846 13.8525C17.6798 12.4932 16.4309 10.4106 15.8195 9.53929C16.2125 10.0185 17.1296 11.2384 17.6536 12.284C18.3087 13.591 18.8327 16.0744 18.1777 18.8191C17.6536 21.0149 16.8239 23.0451 16.4745 23.7858Z" fill="white"/>
<path d="M10.6472 7.9009C8.93178 9.01701 7.51461 10.6395 6.98977 11.3504C7.85349 10.2151 11.0751 9.73276 12.6949 11.7767C14.333 13.8438 13.7869 15.0066 12.1488 18.1072C10.8383 20.5878 11.3298 23.0166 11.7393 23.9209C10.9202 22.629 8.62681 19.6059 6.0058 17.8488C2.72954 15.6526 1.50094 15.6525 3.00256 11.1307C4.50418 6.60896 9.96461 3.89589 11.4662 4.54186C12.9679 5.18783 12.8313 6.47977 10.6472 7.9009Z" fill="white"/>
<path d="M34.6155 7.9009C36.3309 9.01701 37.7481 10.6395 38.2729 11.3504C37.4092 10.2151 34.1876 9.73276 32.5678 11.7767C30.9297 13.8438 31.4757 15.0066 33.1139 18.1072C34.4244 20.5878 33.9329 23.0166 33.5234 23.9209C34.3425 22.629 36.6359 19.6059 39.2569 17.8488C42.5332 15.6526 43.7618 15.6525 42.2601 11.1307C40.7585 6.60896 35.2981 3.89589 33.7965 4.54186C32.2948 5.18783 32.4314 6.47977 34.6155 7.9009Z" fill="white"/>
<path fill-rule="evenodd" clip-rule="evenodd" d="M14.6855 33.75L15.2633 34.0527L15.6581 33.3948L15.9212 33.5264V33.8411C16.0484 33.5467 16.1681 33.2436 16.2784 32.9323C17.4599 29.5966 18.0238 27.894 18.1581 27.4597L16.6812 26.0264C16.3845 27.425 15.59 30.826 14.6855 33.75Z" fill="white"/>
<path d="M30.7308 34.2354C29.7641 31.2124 28.8958 27.5031 28.5825 26.0264L27.1056 27.4597C27.2399 27.894 27.8038 29.5966 28.9853 32.9323C30.1668 36.2681 32.4314 38.6656 33.416 39.4474L33.6846 39.0565C33.1028 38.709 31.6975 37.2584 30.7308 34.2354Z" fill="white"/>
<path fill-rule="evenodd" clip-rule="evenodd" d="M16.725 5.71915C16.8459 5.6385 16.8786 5.47505 16.798 5.35407C16.7173 5.2331 16.554 5.20041 16.433 5.28106C16.0601 5.52975 15.8345 5.88725 15.7028 6.21906C15.5717 6.54954 15.5264 6.87221 15.5264 7.07967C15.5264 7.22506 15.6442 7.34293 15.7895 7.34293C15.9349 7.34293 16.0527 7.22506 16.0527 7.07967C16.0527 6.93612 16.0863 6.67961 16.192 6.41336C16.2971 6.14845 16.4663 5.89168 16.725 5.71915ZM28.5383 5.85078C28.4174 5.77013 28.3847 5.60668 28.4653 5.4857C28.5459 5.36473 28.7093 5.33204 28.8302 5.41269C29.2031 5.66138 29.4287 6.01888 29.5604 6.35069C29.6916 6.68117 29.7369 7.00384 29.7369 7.2113C29.7369 7.35669 29.6191 7.47456 29.4737 7.47456C29.3284 7.47456 29.2106 7.35669 29.2106 7.2113C29.2106 7.06775 29.1769 6.81124 29.0713 6.54499C28.9661 6.28008 28.797 6.02331 28.5383 5.85078ZM21.9296 25.8738C22.0102 25.9947 21.9775 26.1582 21.8565 26.2388L18.72 28.3303C18.599 28.4109 18.4356 28.3782 18.355 28.2572C18.2744 28.1362 18.3071 27.9728 18.4281 27.8921L21.5646 25.8007C21.6856 25.7201 21.8489 25.7528 21.9296 25.8738ZM21.6823 28.251C21.8159 28.194 21.8781 28.0393 21.8211 27.9056C21.764 27.7719 21.6094 27.7097 21.4757 27.7667L18.7339 28.9368C18.6002 28.9938 18.5381 29.1485 18.5951 29.2822C18.6521 29.4159 18.8067 29.4781 18.9404 29.4211L21.6823 28.251ZM21.9536 29.6044C22.0094 29.7386 21.9458 29.8927 21.8116 29.9485L19.5961 30.8699C19.4619 30.9257 19.3079 30.8622 19.2521 30.7279C19.1963 30.5936 19.2598 30.4396 19.394 30.3837L21.6096 29.4623C21.7438 29.4065 21.8978 29.4701 21.9536 29.6044ZM21.8136 31.6589C21.9474 31.6019 22.0096 31.4473 21.9527 31.3135C21.8958 31.1797 21.7413 31.1174 21.6075 31.1744L19.7868 31.9495C19.653 32.0064 19.5907 32.161 19.6477 32.2948C19.7046 32.4286 19.8591 32.4909 19.9928 32.434L21.8136 31.6589ZM22.2159 32.7761C22.2728 32.9099 22.2105 33.0645 22.0768 33.1214L20.256 33.8966C20.1223 33.9535 19.9677 33.8912 19.9108 33.7574C19.8539 33.6236 19.9162 33.469 20.0499 33.4121L21.8707 32.637C22.0044 32.58 22.159 32.6423 22.2159 32.7761ZM22.2077 34.6866C22.3416 34.6301 22.4043 34.4756 22.3477 34.3417C22.2912 34.2077 22.1368 34.145 22.0029 34.2016L20.4453 34.8598C20.3114 34.9163 20.2487 35.0708 20.3053 35.2047C20.3618 35.3386 20.5162 35.4014 20.6501 35.3448L22.2077 34.6866ZM22.2239 36.0882C22.269 36.2264 22.1936 36.375 22.0555 36.4202L20.8926 36.8004C20.7545 36.8456 20.6059 36.7702 20.5607 36.632C20.5156 36.4938 20.591 36.3451 20.7291 36.3L21.892 35.9197C22.0301 35.8746 22.1787 35.95 22.2239 36.0882ZM22.1871 37.6049C22.3252 37.5597 22.4006 37.411 22.3554 37.2728C22.3103 37.1346 22.1617 37.0592 22.0236 37.1044L20.8607 37.4846C20.7225 37.5298 20.6471 37.6785 20.6923 37.8167C20.7375 37.9549 20.886 38.0303 21.0242 37.9851L22.1871 37.6049ZM20.8109 38.9195C20.8109 38.7742 20.9287 38.6563 21.074 38.6563H24.2319C24.3772 38.6563 24.4951 38.7742 24.4951 38.9195C24.4951 39.0649 24.3772 39.1828 24.2319 39.1828H21.074C20.9287 39.1828 20.8109 39.0649 20.8109 38.9195ZM21.2094 40.9315C21.0848 40.8567 20.9231 40.8971 20.8484 41.0218C20.7736 41.1465 20.814 41.3082 20.9386 41.383L22.9123 42.5677C23.0369 42.6425 23.1986 42.6021 23.2734 42.4774C23.3481 42.3527 23.3077 42.191 23.1831 42.1162L21.2094 40.9315ZM23.1954 25.8844C23.2702 25.7597 23.4318 25.7192 23.5564 25.794L26.6041 27.6222C26.7287 27.6969 26.7692 27.8586 26.6944 27.9833C26.6197 28.108 26.4581 28.1485 26.3334 28.0737L23.2858 26.2456C23.1611 26.1708 23.1207 26.0091 23.1954 25.8844ZM23.6575 27.7674C23.5242 27.7095 23.3692 27.7706 23.3113 27.904C23.2534 28.0374 23.3145 28.1924 23.4478 28.2504L25.8376 29.2887C25.9709 29.3467 26.1259 29.2855 26.1838 29.1522C26.2417 29.0188 26.1806 28.8637 26.0473 28.8058L23.6575 27.7674ZM23.1796 29.6008C23.2374 29.4674 23.3923 29.4061 23.5257 29.4638L25.6523 30.3853C25.7857 30.443 25.8469 30.598 25.7892 30.7315C25.7314 30.8649 25.5765 30.9262 25.4431 30.8684L23.3165 29.947C23.1831 29.8892 23.1219 29.7342 23.1796 29.6008ZM23.5221 31.0419C23.3879 30.9861 23.2339 31.0497 23.1781 31.1839C23.1223 31.3182 23.1859 31.4723 23.3201 31.5281L25.1835 32.3032C25.3177 32.359 25.4717 32.2954 25.5275 32.1612C25.5833 32.0269 25.5198 31.8729 25.3856 31.817L23.5221 31.0419ZM22.9177 32.7717C22.9771 32.639 23.1327 32.5795 23.2654 32.6389L24.9973 33.414C25.1299 33.4734 25.1894 33.6291 25.13 33.7618C25.0707 33.8946 24.915 33.954 24.7823 33.8946L23.0505 33.1195C22.9178 33.0601 22.8584 32.9044 22.9177 32.7717ZM23.252 34.1982C23.1163 34.1463 22.9641 34.2142 22.9122 34.35C22.8602 34.4858 22.9282 34.638 23.0639 34.69L24.401 35.2019C24.5368 35.2538 24.6889 35.1859 24.7408 35.0501C24.7928 34.9143 24.7249 34.7621 24.5891 34.7101L23.252 34.1982ZM23.177 36.0715C23.2314 35.9366 23.3847 35.8714 23.5195 35.9258L24.4619 36.3061C24.5967 36.3604 24.6619 36.5138 24.6075 36.6487C24.5532 36.7835 24.3998 36.8487 24.2651 36.7943L23.3227 36.4141C23.1879 36.3597 23.1227 36.2063 23.177 36.0715ZM23.2711 37.117C23.1399 37.0544 22.9829 37.1101 22.9204 37.2414C22.8579 37.3727 22.9136 37.5298 23.0448 37.5923L24.1187 38.1042C24.2499 38.1667 24.407 38.111 24.4695 37.9797C24.532 37.8485 24.4763 37.6914 24.3451 37.6288L23.2711 37.117ZM21.074 40.2359C21.074 40.0905 21.1918 39.9726 21.3372 39.9726H24.2319C24.3772 39.9726 24.4951 40.0905 24.4951 40.2359C24.4951 40.3812 24.3772 40.4991 24.2319 40.4991H21.3372C21.1918 40.4991 21.074 40.3812 21.074 40.2359ZM20.3847 23.1171C20.6378 22.6468 21.3633 22.0709 22.653 22.0709C23.2852 22.0709 23.7153 22.2419 24.02 22.4521C24.3291 22.6654 24.524 22.9286 24.6742 23.1432C24.7576 23.2624 24.9216 23.2913 25.0407 23.208C25.1598 23.1246 25.1887 22.9604 25.1054 22.8413C24.9486 22.6172 24.7093 22.2881 24.3188 22.0187C23.9239 21.7463 23.3891 21.5443 22.653 21.5443C21.2058 21.5443 20.2821 22.197 19.9213 22.8675C19.8524 22.9955 19.9002 23.1551 20.0282 23.2241C20.1562 23.293 20.3158 23.2451 20.3847 23.1171ZM22.1266 23.9137C21.7841 23.9137 21.4627 24.0288 21.2601 24.2315C21.1573 24.3343 20.9907 24.3343 20.8879 24.2315C20.7852 24.1287 20.7852 23.962 20.8879 23.8592C21.2116 23.5354 21.6797 23.3872 22.1266 23.3872C22.272 23.3872 22.3898 23.505 22.3898 23.6504C22.3898 23.7958 22.272 23.9137 22.1266 23.9137ZM23.3879 23.9682C23.3566 23.9369 23.3333 23.9274 23.3128 23.9223C23.2835 23.9149 23.25 23.9137 23.1793 23.9137C23.0339 23.9137 22.9161 23.7958 22.9161 23.6504C22.9161 23.505 23.0339 23.3872 23.1793 23.3872L23.1879 23.3872C23.3245 23.3871 23.5512 23.3869 23.7601 23.5959C23.8629 23.6987 23.8629 23.8654 23.7601 23.9682C23.6573 24.071 23.4907 24.071 23.3879 23.9682ZM22.5214 20.3597C21.4386 20.3597 20.8863 20.7815 20.7124 20.9554C20.6097 21.0582 20.4431 21.0582 20.3403 20.9554C20.2375 20.8526 20.2375 20.6859 20.3403 20.5831C20.6051 20.3182 21.2884 19.8332 22.5214 19.8332C23.7391 19.8332 24.392 20.2351 24.6936 20.5817C24.789 20.6914 24.7775 20.8577 24.6678 20.9531C24.5582 21.0486 24.392 21.0371 24.2966 20.9274C24.1145 20.7182 23.6194 20.3597 22.5214 20.3597ZM20.8223 19.0003C20.8979 18.9399 21.1207 18.8165 21.4408 18.7076C21.7545 18.6009 22.1364 18.5169 22.5214 18.5169C23.2847 18.5169 23.815 18.8473 24.0646 19.0138C24.1855 19.0945 24.3489 19.0618 24.4295 18.9408C24.5102 18.8198 24.4775 18.6564 24.3566 18.5757C24.0799 18.3912 23.4423 17.9903 22.5214 17.9903C22.0643 17.9903 21.624 18.0891 21.2714 18.2091C20.9252 18.3269 20.6373 18.4741 20.4936 18.5892C20.3801 18.68 20.3617 18.8457 20.4525 18.9592C20.5432 19.0728 20.7088 19.0912 20.8223 19.0003ZM22.3685 15.1091C21.174 15.1091 20.4974 15.6078 20.3338 15.8042C20.2408 15.9159 20.0748 15.931 19.9632 15.8379C19.8515 15.7448 19.8364 15.5788 19.9295 15.4671C20.2045 15.137 21.0366 14.5826 22.3685 14.5826C23.6849 14.5826 24.5122 15.0386 24.7914 15.3179C24.8942 15.4207 24.8942 15.5874 24.7914 15.6902C24.6886 15.793 24.522 15.793 24.4192 15.6902C24.2598 15.5307 23.5783 15.1091 22.3685 15.1091ZM20.5343 17.4384C20.8673 17.2302 21.7295 16.8203 22.5001 16.8203C23.2618 16.8203 23.941 17.2234 24.1737 17.4174C24.2853 17.5105 24.4513 17.4954 24.5443 17.3837C24.6374 17.272 24.6223 17.106 24.5106 17.013C24.217 16.7682 23.4226 16.2938 22.5001 16.2938C21.5864 16.2938 20.624 16.7614 20.2553 16.992C20.1321 17.069 20.0946 17.2314 20.1716 17.3547C20.2487 17.478 20.411 17.5155 20.5343 17.4384Z" fill="#1C202C"/>
</svg>
