<svg width="20" height="21" viewBox="0 0 20 21" fill="none" xmlns="http://www.w3.org/2000/svg">
<path fill-rule="evenodd" clip-rule="evenodd" d="M10.0259 4.04175C10.3711 4.0422 10.6505 4.32239 10.6501 4.66757L10.6348 16.3342C10.6343 16.6794 10.3541 16.9589 10.0089 16.9584C9.66377 16.958 9.38431 16.6778 9.38477 16.3326L9.40006 4.66593C9.40051 4.32075 9.6807 4.0413 10.0259 4.04175Z" fill="white"/>
<path fill-rule="evenodd" clip-rule="evenodd" d="M3.54199 10.5C3.54199 10.1548 3.82181 9.875 4.16699 9.875H15.8337C16.1788 9.875 16.4587 10.1548 16.4587 10.5C16.4587 10.8452 16.1788 11.125 15.8337 11.125H4.16699C3.82181 11.125 3.54199 10.8452 3.54199 10.5Z" fill="white"/>
</svg>
