<svg width="34" height="34" viewBox="0 0 34 34" fill="none" xmlns="http://www.w3.org/2000/svg">
<g clip-path="url(#clip0_1_42271)">
<path fill-rule="evenodd" clip-rule="evenodd" d="M34 17C34 26.3882 26.3882 34 17 34C7.61175 34 0 26.3882 0 17C0 7.61175 7.61175 0 17 0C26.3882 0 34 7.61175 34 17Z" fill="#272C3C"/>
<path fill-rule="evenodd" clip-rule="evenodd" d="M17.6092 12.5503C15.956 13.2374 12.6509 14.6611 7.69537 16.8201C6.89071 17.1403 6.46854 17.4534 6.43029 17.7594C6.36512 18.2779 7.01396 18.4819 7.89512 18.7581C8.01554 18.7964 8.14021 18.8346 8.26771 18.8771C9.13612 19.159 10.3035 19.4891 10.9098 19.5019C11.4609 19.5132 12.0757 19.2865 12.7543 18.8219C17.384 15.6953 19.7739 14.1157 19.924 14.0817C20.0303 14.0576 20.1776 14.0265 20.2768 14.1157C20.376 14.2035 20.366 14.3707 20.3561 14.416C20.291 14.6895 17.7495 17.0539 16.432 18.2779C16.0211 18.659 15.7307 18.9295 15.6712 18.9919C15.538 19.1293 15.402 19.261 15.2717 19.3871C14.4642 20.1635 13.8607 20.7471 15.3057 21.6991C15.9999 22.1567 16.5552 22.535 17.1091 22.9118C17.714 23.324 18.3175 23.7349 19.0995 24.2477C19.2979 24.378 19.4877 24.5126 19.6733 24.6444C20.3774 25.1473 21.0106 25.5978 21.7926 25.527C22.246 25.4845 22.7163 25.058 22.9543 23.7845C23.5167 20.7726 24.6245 14.2503 24.881 11.5615C24.8966 11.3382 24.8871 11.1139 24.8526 10.8928C24.832 10.7142 24.745 10.5499 24.609 10.4324C24.4064 10.2666 24.0919 10.2312 23.9502 10.234C23.3113 10.2454 22.331 10.5868 17.6092 12.5503Z" fill="white"/>
</g>
<defs>
<clipPath id="clip0_1_42271">
<rect width="34" height="34" rx="17" fill="white"/>
</clipPath>
</defs>
</svg>
