<svg width="122" height="35" viewBox="0 0 122 35" fill="none" xmlns="http://www.w3.org/2000/svg">
    <circle cx="17.5" cy="17.5" r="16" fill="#D9D9D9" stroke="white" stroke-width="2"/>
    <path d="M17.5 2.5C25.785 2.5 32.5 9.21632 32.5 17.5C32.5 25.785 25.785 32.5 17.5 32.5C9.21632 32.5 2.5 25.7844 2.5 17.5C2.5 9.21632 9.21632 2.5 17.5 2.5Z" fill="#F5AC37"/>
    <path fill-rule="evenodd" clip-rule="evenodd" d="M10.3563 25.7685V25.8245L10.3536 25.8265V25.836H16.86C17.5964 25.8461 18.3302 25.7874 19.0538 25.6578C19.8159 25.5086 20.5584 25.2737 21.2665 24.9551C21.5735 24.8129 21.868 24.641 22.1652 24.4676C22.2405 24.4237 22.3159 24.3797 22.3917 24.3361C22.7413 24.087 23.0761 23.817 23.3947 23.5301C24.2669 22.7417 24.9419 21.7583 25.3637 20.6614C25.3921 20.5385 25.5122 20.4595 25.6358 20.4832H27.4077C27.5487 20.4832 27.5953 20.4359 27.5953 20.2766V19.1419C27.6048 19.0333 27.6048 18.9232 27.5953 18.8145C27.5953 18.7861 27.6026 18.7578 27.6099 18.7295C27.6244 18.6731 27.6389 18.6169 27.5953 18.5607H26.115C25.9361 18.5607 25.9361 18.5418 25.9361 18.3825C25.9874 17.8115 25.9874 17.2384 25.9361 16.6674C25.9267 16.4986 25.9645 16.4986 26.0955 16.4986H27.3894C27.54 16.4986 27.596 16.4608 27.596 16.3109V14.7733C27.5913 14.6714 27.589 14.6198 27.562 14.5936C27.5342 14.5667 27.4804 14.5667 27.3712 14.5667H25.6931C25.5622 14.589 25.4366 14.5006 25.413 14.3696C25.2206 13.8667 24.9756 13.3855 24.6806 12.9352C24.3836 12.4911 24.0488 12.0739 23.6776 11.6885C23.1841 11.1957 22.63 10.7678 22.0279 10.4134C21.12 9.88623 20.127 9.51701 19.0936 9.32598C18.5921 9.2335 18.0851 9.17748 17.5748 9.15723H10.544C10.3563 9.15723 10.3563 9.19503 10.3563 9.34488V14.398C10.3563 14.5762 10.3185 14.5762 10.1781 14.5762H8.16255C8.0127 14.5762 8.0127 14.6039 8.0127 14.7071V16.3568C8.0127 16.5067 8.05927 16.5067 8.172 16.5067H10.2065C10.3563 16.5067 10.3563 16.5344 10.3563 16.6471V18.4095C10.3563 18.5688 10.3091 18.5688 10.1876 18.5688H8.0127V20.3502C8.0127 20.5 8.05927 20.5 8.172 20.5H10.2065C10.3563 20.5 10.3563 20.5183 10.3563 20.6404V22.8437V23.5841V25.7685ZM23.3036 14.4155C23.3198 14.4574 23.3198 14.504 23.3036 14.5465H23.3489C23.33 14.6025 23.2361 14.6214 23.2361 14.6214H12.4178C12.2396 14.6214 12.2396 14.5836 12.2396 14.4432V11.1154C12.2396 10.9932 12.2585 10.9372 12.3989 10.9372H17.4331C17.969 10.9325 18.5037 10.9885 19.0268 11.106C20.0636 11.3517 21.0282 11.8404 21.8395 12.5309C22.0015 12.6517 22.146 12.7942 22.2709 12.9528C22.5355 13.2154 22.7677 13.5076 22.9648 13.8249C23.0957 14.0105 23.2085 14.2083 23.3036 14.4155ZM23.7525 18.5587H18.0527H12.465C12.351 18.5587 12.2949 18.5587 12.2672 18.5306C12.2403 18.5033 12.2403 18.4495 12.2403 18.3434V16.6748C12.2403 16.5432 12.2781 16.4966 12.4185 16.4966H23.762C23.8841 16.4966 23.9402 16.5432 23.9402 16.6559C23.9867 17.2364 23.9867 17.8196 23.9402 18.3994C23.9314 18.5587 23.874 18.5587 23.7525 18.5587ZM23.3036 20.5088C23.1443 20.4913 22.9837 20.4913 22.8244 20.5088H12.4279C12.2875 20.5088 12.2403 20.5088 12.2403 20.6965V23.95C12.2403 24.0999 12.2403 24.1377 12.4279 24.1377H17.2279C17.4574 24.1552 17.6869 24.139 17.9117 24.0911C18.6083 24.0411 19.2934 23.8899 19.9468 23.6408C20.1844 23.5585 20.4139 23.4512 20.6306 23.3222H20.6961C21.8213 22.737 22.7353 21.8177 23.3117 20.689C23.3117 20.689 23.3772 20.5473 23.3036 20.5102V20.5088Z" fill="#FEFEFD"/>
    <circle cx="40.5" cy="17.5" r="16" fill="#D9D9D9" stroke="white" stroke-width="2"/>
    <path d="M40.5 32.5C48.7843 32.5 55.5 25.7843 55.5 17.5C55.5 9.21573 48.7843 2.5 40.5 2.5C32.2157 2.5 25.5 9.21573 25.5 17.5C25.5 25.7843 32.2157 32.5 40.5 32.5Z" fill="#00DCFA"/>
    <path d="M43.6669 7.1875C40.0388 7.1875 36.9572 9.9775 36.57 13.5691C32.9766 13.9572 30.1875 17.0388 30.1875 20.6659C30.1885 22.5609 30.9416 24.3779 32.2814 25.7179C33.6213 27.0579 35.4382 27.8113 37.3331 27.8125C40.9612 27.8125 44.055 25.0225 44.43 21.4309C48.0225 21.0428 50.8125 17.9613 50.8125 14.3341C50.8115 12.4391 50.0584 10.6221 48.7186 9.28211C47.3787 7.94211 45.5618 7.18874 43.6669 7.1875ZM49.1381 15.1337C48.9597 16.3057 48.4114 17.3899 47.5731 18.2281C46.7349 19.0664 45.6507 19.6147 44.4787 19.7931V15.1337H49.1381ZM31.8619 19.8663C32.0379 18.6921 32.5852 17.6051 33.4236 16.7645C34.262 15.9239 35.3476 15.3738 36.5212 15.1947V19.8541H31.8619V19.8663ZM42.8053 21.4787C42.6117 22.7914 41.9524 23.9906 40.9477 24.8573C39.943 25.7239 38.66 26.2002 37.3331 26.1991C36.0065 26.2002 34.7238 25.724 33.7192 24.8576C32.7147 23.9911 32.0554 22.7921 31.8619 21.4797H42.8053V21.4787ZM42.8663 15.1337V19.8541H38.1337V15.1337H42.8663ZM49.1381 13.5212H38.1947C38.3883 12.2086 39.0476 11.0094 40.0523 10.1427C41.057 9.27606 42.34 8.7998 43.6669 8.80094C44.9935 8.79979 46.2762 9.27596 47.2808 10.1424C48.2853 11.0089 48.9446 12.2079 49.1381 13.5203V13.5212Z" fill="white"/>
    <circle cx="62.5" cy="17.5" r="16" fill="#D9D9D9" stroke="white" stroke-width="2"/>
    <circle cx="62.5" cy="17.5" r="15" fill="#EDF0F2"/>
    <ellipse cx="62.4963" cy="17.5041" rx="11.2434" ry="11.2434" fill="#C8D2D9"/>
    <path d="M69.6339 26.1804C67.9197 27.5957 65.8187 28.466 63.6034 28.677C60.641 28.9671 57.6785 28.0704 55.3665 26.1804C53.0633 24.2904 51.6041 21.5653 51.3052 18.594C51.0854 16.3787 51.525 14.1547 52.5711 12.1943C53.6172 10.234 55.2259 8.62529 57.1862 7.57919C59.1465 6.5331 61.3706 6.08477 63.5858 6.30454C65.8011 6.5243 67.8933 7.3858 69.6163 8.80111L67.3483 11.5702C66.1791 10.612 64.7462 10.0142 63.2342 9.87358C61.7222 9.72413 60.2102 10.0318 58.874 10.7439C57.5378 11.4559 56.4478 12.5547 55.7269 13.8909C55.0149 15.2271 54.716 16.7479 54.8654 18.2511C55.0676 20.273 56.061 22.1367 57.6345 23.4201C59.2081 24.7123 61.2299 25.3189 63.2518 25.1167C64.7638 24.9673 66.1879 24.3695 67.3571 23.4113L69.6339 26.1804Z" fill="url(#paint0_linear_0_1)"/>
    <path d="M62.531 26.7076C67.6033 26.7076 71.7086 22.5935 71.7086 17.5301C71.7086 12.4578 67.6033 8.34375 62.531 8.34375C57.4588 8.34375 53.3447 12.4578 53.3447 17.5301C53.3447 22.6023 57.4588 26.7076 62.531 26.7076Z" fill="white"/>
    <path fill-rule="evenodd" clip-rule="evenodd" d="M63.3574 17.7762C63.3047 17.7762 63.0585 17.7938 62.4959 17.7938C62.0476 17.7938 61.7311 17.7762 61.6169 17.7762C59.8851 17.6971 58.6016 17.407 58.6016 17.0466C58.6016 16.6861 59.8939 16.396 61.6169 16.3169V17.4861C61.7311 17.4949 62.0564 17.5125 62.5047 17.5125C63.041 17.5125 63.3135 17.4861 63.3574 17.4861V16.3257C65.0804 16.4048 66.3727 16.6949 66.3727 17.0553C66.3727 17.407 65.0892 17.7059 63.3574 17.7762ZM63.3574 16.2026V15.1653H65.7661V13.583H59.217V15.1653H61.6257V16.2026C59.6653 16.2906 58.1973 16.6773 58.1973 17.1345C58.1973 17.5916 59.6653 17.9784 61.6257 18.0663V21.398H63.3662V18.0663C65.3178 17.9784 66.7858 17.5916 66.7858 17.1345C66.7858 16.6773 65.3178 16.2906 63.3574 16.2026Z" fill="#283947"/>
    <circle cx="83.5" cy="17.5" r="16" fill="#D9D9D9" stroke="white" stroke-width="2"/>
    <path fill-rule="evenodd" clip-rule="evenodd" d="M83.5 2.5C91.8333 2.5 98.5 9.24228 98.5 17.4997C98.5 25.8328 91.7576 32.4994 83.5 32.4994C75.2424 32.5751 68.5 25.8328 68.5 17.4997C68.5 9.24228 75.2424 2.5 83.5 2.5Z" fill="url(#paint1_linear_0_1)"/>
    <path fill-rule="evenodd" clip-rule="evenodd" d="M75.25 9.75H84.1686C87.7965 9.75 91.5 12.3083 91.5 17.5C91.5 22.6917 87.7965 25.25 84.1686 25.25H77.593V16.8981H81.4477V21.4879H84.0174C85.6802 21.4879 87.6453 19.6068 87.6453 17.5C87.6453 15.3932 85.7558 13.5121 84.0174 13.5121H79.7849C77.8953 13.5121 76.3837 12.233 75.25 9.75Z" fill="white"/>
    <circle cx="104.5" cy="17.5" r="16" fill="#D9D9D9" stroke="white" stroke-width="2"/>
    <path d="M119.051 21.1286C117.047 29.1644 108.908 34.0548 100.872 32.0509C92.8383 30.0476 87.9479 21.9081 89.9522 13.873C91.9546 5.83629 100.094 0.945493 108.128 2.94885C116.164 4.95221 121.054 13.0926 119.051 21.1287L119.051 21.1286H119.051Z" fill="#F7931A"/>
    <path fill-rule="evenodd" clip-rule="evenodd" d="M111.564 15.6371C111.863 13.6409 110.343 12.5679 108.265 11.8521L108.939 9.1481L107.293 8.73795L106.637 11.3708C106.204 11.2628 105.759 11.1611 105.318 11.0603L105.979 8.41014L104.334 8L103.659 10.7031C103.301 10.6216 102.949 10.541 102.608 10.4561L102.61 10.4476L100.34 9.88077L99.9024 11.6388C99.9024 11.6388 101.124 11.9187 101.098 11.936C101.764 12.1023 101.885 12.5436 101.865 12.8933L101.097 15.9738C101.143 15.9854 101.202 16.0023 101.268 16.0287L101.22 16.0168L101.22 16.0168C101.18 16.0066 101.138 15.996 101.094 15.9856L100.018 20.301C99.9363 20.5035 99.7296 20.8074 99.2635 20.692C99.28 20.7159 98.0672 20.3934 98.0672 20.3934L97.25 22.2776L99.392 22.8115C99.6266 22.8704 99.8583 22.9308 100.088 22.9906L100.088 22.9907C100.248 23.0325 100.407 23.0739 100.566 23.1143L99.8844 25.8493L101.529 26.2595L102.203 23.5535C102.652 23.6755 103.088 23.7879 103.515 23.8939L102.843 26.5872L104.489 26.9973L105.17 24.2674C107.976 24.7986 110.087 24.5845 110.975 22.0457C111.691 20.0017 110.94 18.8228 109.463 18.054C110.538 17.8059 111.349 17.0985 111.565 15.6373L111.564 15.6369L111.564 15.6371ZM107.803 20.9106C107.337 22.7859 104.401 22.0106 103.058 21.6559C102.937 21.624 102.829 21.5955 102.737 21.5726L103.641 17.9492C103.753 17.9772 103.891 18.008 104.046 18.0428L104.046 18.0429C105.435 18.3546 108.281 18.9934 107.803 20.9106H107.803ZM104.325 16.3612C105.444 16.66 107.887 17.3119 108.312 15.6075H108.312C108.747 13.8643 106.373 13.3387 105.214 13.0821C105.083 13.0532 104.968 13.0277 104.874 13.0043L104.055 16.2905C104.132 16.3098 104.223 16.334 104.325 16.3612Z" fill="white"/>
    <defs>
        <linearGradient id="paint0_linear_0_1" x1="51.3405" y1="9.65028" x2="56.4925" y2="28.7525" gradientUnits="userSpaceOnUse">
            <stop stop-color="#27D3A2"/>
            <stop offset="1" stop-color="#9388FD"/>
        </linearGradient>
        <linearGradient id="paint1_linear_0_1" x1="113.562" y1="17.5202" x2="83.5205" y2="-12.5208" gradientUnits="userSpaceOnUse">
            <stop stop-color="#4B81EB"/>
            <stop offset="1" stop-color="#6752F4"/>
        </linearGradient>
    </defs>
</svg>
