<svg width="472" height="187" viewBox="0 0 472 187" fill="none" xmlns="http://www.w3.org/2000/svg">
    <rect x="1" y="1" width="619" height="371.698" rx="19" fill="url(#paint0_linear_171_15311)"/>
    <circle cx="38.5" cy="45.5" r="7.5" fill="#6179EE"/>
    <path d="M38.4796 41L38.4199 41.2027V47.0829L38.4796 47.1424L41.2091 45.529L38.4796 41Z" fill="#BFCAF8"/>
    <path d="M38.4795 41L35.75 45.529L38.4795 47.1424V44.2883V41Z" fill="#FFFEFF"/>
    <path d="M38.4799 47.6595L38.4463 47.7005V49.7951L38.4799 49.8932L41.2111 46.0469L38.4799 47.6595Z" fill="#C0CAF9"/>
    <path d="M38.4795 49.8932V47.6595L35.75 46.0469L38.4795 49.8932Z" fill="#FFFEFF"/>
    <path d="M38.4795 47.1422L41.209 45.5288L38.4795 44.2881V47.1422Z" fill="#7F93EE"/>
    <path d="M35.75 45.5288L38.4795 47.1422V44.2881L35.75 45.5288Z" fill="#BFCAF9"/>
    <path d="M50.9588 50V41.2727H56.4304V42.4062H52.2756V45.0653H56.1449V46.1946H52.2756V48.8665H56.4815V50H50.9588ZM57.7589 42.4062V41.2727H64.5131V42.4062H61.7901V50H60.4776V42.4062H57.7589ZM66.0057 50V41.2727H67.3224V45.0653H71.6733V41.2727H72.9943V50H71.6733V46.1946H67.3224V50H66.0057Z" fill="#1A203F"/>
    <path d="M82.1804 40.8636L79.3679 51.3125H78.2301L81.0426 40.8636H82.1804Z" fill="#1A203F"/>
    <path d="M101.774 47.3143C100.772 51.3322 96.7028 53.7774 92.6844 52.7755C88.6677 51.7738 86.2225 47.704 87.2246 43.6865C88.2259 39.6681 92.2953 37.2227 96.3125 38.2244C100.331 39.2261 102.776 43.2963 101.774 47.3144L101.774 47.3143H101.774Z" fill="#F3BA2F"/>
    <path fill-rule="evenodd" clip-rule="evenodd" d="M94.5 42.76L92.558 44.702L91.428 43.572L94.5 40.5L97.573 43.5729L96.443 44.7029L94.5 42.76ZM90.63 44.3698L89.5 45.5L90.63 46.6298L91.76 45.4998L90.63 44.3698ZM92.5579 46.298L94.5 48.24L96.443 46.2971L97.5736 47.4265L97.573 47.4271L94.5 50.5L91.428 47.428L91.4264 47.4264L92.5579 46.298ZM98.37 44.3704L97.24 45.5005L98.37 46.6304L99.5 45.5004L98.37 44.3704Z" fill="white"/>
    <path d="M95.6459 45.4992H95.6463L94.4998 44.3525L93.6523 45.1998L93.5549 45.2972L93.3541 45.498L93.3525 45.4996L93.3541 45.5012L94.4998 46.647L95.6464 45.5004L95.647 45.4997L95.6459 45.4992" fill="white"/>
    <path d="M106.959 50V41.2727H110.155C110.774 41.2727 111.287 41.375 111.693 41.5795C112.099 41.7812 112.403 42.0554 112.605 42.402C112.807 42.7457 112.908 43.1335 112.908 43.5653C112.908 43.929 112.841 44.2358 112.707 44.4858C112.574 44.733 112.395 44.9318 112.17 45.0824C111.949 45.2301 111.705 45.3381 111.438 45.4062V45.4915C111.727 45.5057 112.01 45.5994 112.286 45.7727C112.564 45.9432 112.794 46.1861 112.976 46.5014C113.158 46.8168 113.249 47.2003 113.249 47.652C113.249 48.098 113.143 48.4986 112.933 48.8537C112.726 49.206 112.405 49.4858 111.97 49.6932C111.536 49.8977 110.98 50 110.304 50H106.959ZM108.276 48.8707H110.176C110.807 48.8707 111.259 48.7486 111.531 48.5043C111.804 48.2599 111.94 47.9545 111.94 47.5881C111.94 47.3125 111.871 47.0597 111.732 46.8295C111.592 46.5994 111.393 46.4162 111.135 46.2798C110.879 46.1435 110.575 46.0753 110.223 46.0753H108.276V48.8707ZM108.276 45.0483H110.04C110.335 45.0483 110.601 44.9915 110.837 44.8778C111.075 44.7642 111.264 44.6051 111.403 44.4006C111.545 44.1932 111.616 43.9489 111.616 43.6676C111.616 43.3068 111.49 43.0043 111.237 42.7599C110.984 42.5156 110.597 42.3935 110.074 42.3935H108.276V45.0483ZM121.854 41.2727V50H120.644L116.208 43.5994H116.127V50H114.81V41.2727H116.029L120.469 47.6818H120.55V41.2727H121.854ZM123.775 50V41.2727H126.971C127.591 41.2727 128.103 41.375 128.51 41.5795C128.916 41.7812 129.22 42.0554 129.422 42.402C129.623 42.7457 129.724 43.1335 129.724 43.5653C129.724 43.929 129.657 44.2358 129.524 44.4858C129.39 44.733 129.211 44.9318 128.987 45.0824C128.765 45.2301 128.521 45.3381 128.254 45.4062V45.4915C128.544 45.5057 128.826 45.5994 129.102 45.7727C129.38 45.9432 129.61 46.1861 129.792 46.5014C129.974 46.8168 130.065 47.2003 130.065 47.652C130.065 48.098 129.96 48.4986 129.75 48.8537C129.542 49.206 129.221 49.4858 128.787 49.6932C128.352 49.8977 127.797 50 127.12 50H123.775ZM125.092 48.8707H126.993C127.623 48.8707 128.075 48.7486 128.348 48.5043C128.62 48.2599 128.757 47.9545 128.757 47.5881C128.757 47.3125 128.687 47.0597 128.548 46.8295C128.409 46.5994 128.21 46.4162 127.951 46.2798C127.696 46.1435 127.392 46.0753 127.039 46.0753H125.092V48.8707ZM125.092 45.0483H126.856C127.152 45.0483 127.417 44.9915 127.653 44.8778C127.892 44.7642 128.081 44.6051 128.22 44.4006C128.362 44.1932 128.433 43.9489 128.433 43.6676C128.433 43.3068 128.306 43.0043 128.054 42.7599C127.801 42.5156 127.413 42.3935 126.89 42.3935H125.092V45.0483Z" fill="#1A203F"/>
    <rect x="25.5" y="33.5" width="111" height="24" rx="5.5" stroke="#EAEAEF"/>
    <circle cx="154.5" cy="45.5" r="7.5" fill="#6179EE"/>
    <path d="M154.48 41L154.42 41.2027V47.0829L154.48 47.1424L157.209 45.529L154.48 41Z" fill="#BFCAF8"/>
    <path d="M154.48 41L151.75 45.529L154.48 47.1424V44.2883V41Z" fill="#FFFEFF"/>
    <path d="M154.48 47.6595L154.446 47.7005V49.7951L154.48 49.8932L157.211 46.0469L154.48 47.6595Z" fill="#C0CAF9"/>
    <path d="M154.48 49.8932V47.6595L151.75 46.0469L154.48 49.8932Z" fill="#FFFEFF"/>
    <path d="M154.479 47.1422L157.209 45.5288L154.479 44.2881V47.1422Z" fill="#7F93EE"/>
    <path d="M151.75 45.5288L154.48 47.1422V44.2881L151.75 45.5288Z" fill="#BFCAF9"/>
    <path d="M166.959 50V41.2727H172.43V42.4062H168.276V45.0653H172.145V46.1946H168.276V48.8665H172.482V50H166.959ZM173.759 42.4062V41.2727H180.513V42.4062H177.79V50H176.478V42.4062H173.759ZM182.006 50V41.2727H183.322V45.0653H187.673V41.2727H188.994V50H187.673V46.1946H183.322V50H182.006Z" fill="#1A203F"/>
    <path d="M198.18 40.8636L195.368 51.3125H194.23L197.043 40.8636H198.18Z" fill="#1A203F"/>
    <circle cx="210.5" cy="45.5" r="7.5" fill="#8DC351"/>
    <path fill-rule="evenodd" clip-rule="evenodd" d="M212.944 42.9739C212.569 42.041 211.677 41.9944 210.598 42.181L210.222 40.875L209.425 41.1082L209.8 42.3675C209.724 42.3864 209.64 42.413 209.552 42.441L209.552 42.441C209.422 42.4821 209.283 42.5264 209.143 42.5541L208.768 41.2481L207.97 41.4813L208.345 42.7873C208.252 42.8106 208.169 42.834 208.087 42.8573L208.087 42.8573C208.005 42.8806 207.923 42.9039 207.829 42.9272L206.75 43.3004L206.985 44.1399C206.985 44.1399 207.595 43.9534 207.548 43.9534C207.876 43.8601 208.017 44 208.111 44.1866L208.533 45.6791H208.627L208.533 45.7257L209.143 47.8246C209.143 47.9179 209.143 48.1045 208.909 48.1978L208.345 48.3843L208.439 49.3638L209.472 49.084L210.035 48.944L210.41 50.25L211.208 50.0168L210.832 48.7108C211.067 48.6642 211.255 48.6175 211.489 48.5243L211.865 49.8302L212.662 49.597L212.287 48.291C213.601 47.8246 214.446 47.2183 214.211 45.9123C214.023 44.8862 213.413 44.5597 212.569 44.6063C213.038 44.1399 213.226 43.6735 212.944 42.9739ZM212.662 46.1455C212.911 47.0089 211.591 47.4012 210.889 47.6098C210.795 47.6379 210.711 47.6626 210.645 47.6847L210.129 45.9123C210.203 45.8939 210.295 45.8667 210.401 45.8355L210.401 45.8355C211.101 45.6297 212.377 45.2543 212.662 46.1455ZM210.025 45.0819C210.586 44.9234 211.795 44.5818 211.536 43.7668C211.324 42.9229 210.152 43.3005 209.583 43.4838C209.523 43.5031 209.469 43.5202 209.425 43.5336L209.894 45.1194C209.932 45.1082 209.976 45.0957 210.025 45.0819Z" fill="white"/>
    <path d="M222.959 50V41.2727H226.155C226.774 41.2727 227.287 41.375 227.693 41.5795C228.099 41.7812 228.403 42.0554 228.605 42.402C228.807 42.7457 228.908 43.1335 228.908 43.5653C228.908 43.929 228.841 44.2358 228.707 44.4858C228.574 44.733 228.395 44.9318 228.17 45.0824C227.949 45.2301 227.705 45.3381 227.438 45.4062V45.4915C227.727 45.5057 228.01 45.5994 228.286 45.7727C228.564 45.9432 228.794 46.1861 228.976 46.5014C229.158 46.8168 229.249 47.2003 229.249 47.652C229.249 48.098 229.143 48.4986 228.933 48.8537C228.726 49.206 228.405 49.4858 227.97 49.6932C227.536 49.8977 226.98 50 226.304 50H222.959ZM224.276 48.8707H226.176C226.807 48.8707 227.259 48.7486 227.531 48.5043C227.804 48.2599 227.94 47.9545 227.94 47.5881C227.94 47.3125 227.871 47.0597 227.732 46.8295C227.592 46.5994 227.393 46.4162 227.135 46.2798C226.879 46.1435 226.575 46.0753 226.223 46.0753H224.276V48.8707ZM224.276 45.0483H226.04C226.335 45.0483 226.601 44.9915 226.837 44.8778C227.075 44.7642 227.264 44.6051 227.403 44.4006C227.545 44.1932 227.616 43.9489 227.616 43.6676C227.616 43.3068 227.49 43.0043 227.237 42.7599C226.984 42.5156 226.597 42.3935 226.074 42.3935H224.276V45.0483ZM238.059 44.1108H236.729C236.678 43.8267 236.583 43.5767 236.444 43.3608C236.305 43.1449 236.134 42.9616 235.933 42.8111C235.731 42.6605 235.505 42.5469 235.255 42.4702C235.008 42.3935 234.745 42.3551 234.467 42.3551C233.964 42.3551 233.513 42.4815 233.116 42.7344C232.721 42.9872 232.408 43.358 232.178 43.8466C231.951 44.3352 231.837 44.9318 231.837 45.6364C231.837 46.3466 231.951 46.946 232.178 47.4347C232.408 47.9233 232.722 48.2926 233.12 48.5426C233.518 48.7926 233.965 48.9176 234.462 48.9176C234.738 48.9176 234.999 48.8807 235.246 48.8068C235.496 48.7301 235.722 48.6179 235.924 48.4702C236.126 48.3224 236.296 48.142 236.435 47.929C236.577 47.7131 236.675 47.4659 236.729 47.1875L238.059 47.1918C237.988 47.6207 237.85 48.0156 237.646 48.3764C237.444 48.7344 237.184 49.044 236.866 49.3054C236.55 49.5639 236.19 49.7642 235.783 49.9062C235.377 50.0483 234.934 50.1193 234.454 50.1193C233.698 50.1193 233.025 49.9403 232.434 49.5824C231.843 49.2216 231.377 48.706 231.036 48.0355C230.698 47.3651 230.529 46.5653 230.529 45.6364C230.529 44.7045 230.7 43.9048 231.04 43.2372C231.381 42.5668 231.847 42.0526 232.438 41.6946C233.029 41.3338 233.701 41.1534 234.454 41.1534C234.917 41.1534 235.349 41.2202 235.749 41.3537C236.153 41.4844 236.515 41.6776 236.836 41.9332C237.157 42.1861 237.423 42.4957 237.633 42.8622C237.843 43.2259 237.985 43.642 238.059 44.1108ZM239.635 50V41.2727H240.951V45.0653H245.302V41.2727H246.623V50H245.302V46.1946H240.951V50H239.635Z" fill="#1A203F"/>
    <rect x="141.5" y="33.5" width="112" height="24" rx="5.5" stroke="#EAEAEF"/>
    <circle cx="271.5" cy="45.5" r="7.5" fill="#6179EE"/>
    <path d="M271.48 41L271.42 41.2027V47.0829L271.48 47.1424L274.209 45.529L271.48 41Z" fill="#BFCAF8"/>
    <path d="M271.48 41L268.75 45.529L271.48 47.1424V44.2883V41Z" fill="#FFFEFF"/>
    <path d="M271.48 47.6595L271.446 47.7005V49.7951L271.48 49.8932L274.211 46.0469L271.48 47.6595Z" fill="#C0CAF9"/>
    <path d="M271.48 49.8932V47.6595L268.75 46.0469L271.48 49.8932Z" fill="#FFFEFF"/>
    <path d="M271.479 47.1422L274.209 45.5288L271.479 44.2881V47.1422Z" fill="#7F93EE"/>
    <path d="M268.75 45.5288L271.48 47.1422V44.2881L268.75 45.5288Z" fill="#BFCAF9"/>
    <path d="M283.959 50V41.2727H289.43V42.4062H285.276V45.0653H289.145V46.1946H285.276V48.8665H289.482V50H283.959ZM290.759 42.4062V41.2727H297.513V42.4062H294.79V50H293.478V42.4062H290.759ZM299.006 50V41.2727H300.322V45.0653H304.673V41.2727H305.994V50H304.673V46.1946H300.322V50H299.006Z" fill="#1A203F"/>
    <path d="M315.18 40.8636L312.368 51.3125H311.23L314.043 40.8636H315.18Z" fill="#1A203F"/>
    <circle cx="327.5" cy="45.5" r="7.5" fill="#5F2652"/>
    <path fill-rule="evenodd" clip-rule="evenodd" d="M327.841 40.4042L331.765 47.4422C331.871 47.6237 331.807 47.8592 331.633 47.9717L327.71 50.3162C327.584 50.3882 327.429 50.3882 327.302 50.3162L323.374 47.9672C323.191 47.8592 323.132 47.6237 323.234 47.4422L327.157 40.4042C327.225 40.2785 327.356 40.2002 327.499 40.2002C327.642 40.2002 327.773 40.2785 327.841 40.4042ZM328.703 44.5247L328.799 44.6057C329.053 44.8279 329.246 45.1114 329.359 45.4292C329.39 45.5297 329.417 45.6317 329.417 45.7337L329.465 45.9257C329.513 46.0922 329.678 46.5467 329.93 46.6757C330.364 46.9007 330.925 47.1797 331.241 47.3342L327.682 40.9442V43.7117C327.682 44.2532 326.9 44.6222 326.809 44.6597L326.642 44.7407C326.522 44.8193 326.412 44.9131 326.315 45.0197C326.312 45.0256 326.309 45.0311 326.305 45.0362L326.246 45.1112C326.245 45.1112 326.243 45.1118 326.242 45.1129C326.241 45.1141 326.24 45.1156 326.24 45.1172C326.219 45.1431 326.2 45.1702 326.182 45.1982C326.179 45.2041 326.175 45.2096 326.171 45.2147C326.163 45.2282 326.156 45.2402 326.15 45.2522C326.143 45.2642 326.136 45.2762 326.128 45.2897C326.125 45.2956 326.121 45.3011 326.117 45.3062C326.102 45.3261 326.092 45.3459 326.082 45.3675C326.078 45.3753 326.074 45.3834 326.069 45.3917C326.068 45.3949 326.067 45.3975 326.066 45.3997C326.064 45.405 326.063 45.4085 326.059 45.4127C326.048 45.4337 326.038 45.4607 326.027 45.4877C326.025 45.4898 326.024 45.4932 326.023 45.4968C326.022 45.501 326.02 45.5055 326.017 45.5087L325.985 45.6047C325.985 45.6077 325.984 45.6103 325.982 45.613C325.981 45.6156 325.979 45.6182 325.979 45.6212C325.977 45.6367 325.972 45.6521 325.968 45.6675C325.964 45.6791 325.961 45.6907 325.958 45.7022C325.958 45.7075 325.957 45.7116 325.955 45.7157C325.954 45.7198 325.952 45.724 325.952 45.7292C325.95 45.7412 325.949 45.7527 325.947 45.7639C325.943 45.7876 325.94 45.8098 325.936 45.8312V45.8417C325.935 45.8505 325.933 45.8589 325.932 45.867C325.929 45.8894 325.925 45.9101 325.925 45.9332V45.9602C325.92 45.9955 325.918 46.0311 325.919 46.0667V46.0937C325.924 46.2437 325.945 46.3877 325.988 46.5272C325.832 46.4522 325.688 46.3922 325.549 46.3607C325.534 46.2649 325.527 46.1681 325.528 46.0712V45.9902C325.533 45.9711 325.535 45.9514 325.534 45.9317C325.534 45.9212 325.535 45.9118 325.537 45.9025C325.538 45.8931 325.54 45.8837 325.54 45.8732C325.54 45.865 325.541 45.8582 325.543 45.8515C325.544 45.8447 325.546 45.838 325.546 45.8297C325.548 45.8207 325.549 45.8113 325.55 45.802C325.552 45.7896 325.553 45.7772 325.556 45.7652C325.558 45.7582 325.559 45.7515 325.561 45.7448C325.562 45.7357 325.563 45.7267 325.567 45.7172C325.569 45.71 325.57 45.702 325.571 45.6938C325.573 45.6833 325.574 45.6725 325.577 45.6632C325.579 45.6586 325.581 45.6528 325.582 45.6468C325.583 45.6393 325.585 45.6316 325.588 45.6257C325.59 45.6157 325.594 45.6042 325.597 45.592C325.601 45.5788 325.606 45.5648 325.609 45.5507C325.611 45.5462 325.612 45.5417 325.613 45.5372C325.615 45.5312 325.616 45.5252 325.619 45.5192C325.628 45.5005 325.635 45.4809 325.64 45.4607C325.643 45.4515 325.647 45.4425 325.651 45.4337L325.682 45.3527C325.685 45.3435 325.689 45.3345 325.693 45.3257C325.698 45.3122 325.703 45.3002 325.709 45.2882C325.714 45.2762 325.719 45.2642 325.724 45.2507C325.728 45.2482 325.73 45.2444 325.73 45.2402C325.734 45.2336 325.737 45.2264 325.741 45.2188C325.748 45.2022 325.757 45.1837 325.768 45.1652C325.769 45.1621 325.77 45.1595 325.771 45.1572C325.773 45.1519 325.774 45.1484 325.778 45.1442L325.826 45.0632C325.826 45.0611 325.828 45.06 325.829 45.0588C325.831 45.0574 325.832 45.0559 325.832 45.0527C325.841 45.0392 325.849 45.0272 325.856 45.0152C325.864 45.0032 325.872 44.9912 325.88 44.9777C325.88 44.9756 325.882 44.9745 325.883 44.9733C325.885 44.9719 325.886 44.9704 325.886 44.9672C325.897 44.9537 325.906 44.9402 325.916 44.9267C325.925 44.9132 325.934 44.8997 325.945 44.8862L325.951 44.8802C325.989 44.8265 326.032 44.7763 326.08 44.7302L326.086 44.7242C326.13 44.6737 326.178 44.627 326.23 44.5847C326.312 44.5154 326.4 44.4527 326.492 44.3972L326.503 44.3912C326.514 44.385 326.525 44.3787 326.536 44.3725C326.571 44.352 326.606 44.3324 326.642 44.3162L326.674 44.2997C327.161 44.0792 327.305 43.8227 327.305 43.7267V40.9487L323.779 47.2847C324.1 47.0972 324.631 46.8137 325.096 46.6637C325.321 46.5932 325.615 46.6577 325.963 46.8557C326.111 46.9419 326.251 47.0424 326.38 47.1557L326.519 47.2847C326.609 47.3597 326.707 47.4182 326.813 47.4722C326.819 47.4743 326.825 47.4775 326.831 47.481C326.839 47.4853 326.848 47.4899 326.857 47.4932C326.859 47.4953 326.862 47.4964 326.866 47.4976C326.87 47.499 326.875 47.5005 326.878 47.5037C326.893 47.5126 326.909 47.5196 326.926 47.5247C326.928 47.5268 326.931 47.5279 326.935 47.5291C326.939 47.5305 326.944 47.532 326.947 47.5352C327.088 47.5887 327.236 47.621 327.386 47.6312C327.278 47.7317 327.176 47.8502 327.107 47.9837C327.016 47.9612 326.926 47.9342 326.834 47.9027C326.828 47.9027 326.824 47.9008 326.821 47.8991C326.818 47.8978 326.816 47.8967 326.813 47.8967C326.804 47.8939 326.795 47.8904 326.786 47.8862C326.722 47.8592 326.663 47.8322 326.605 47.8007C326.602 47.7973 326.599 47.7952 326.594 47.7947L326.53 47.7632C326.434 47.7152 326.348 47.6507 326.267 47.5862L326.257 47.5757C326.219 47.548 326.183 47.5175 326.15 47.4842L326.134 47.4677C325.877 47.2592 325.423 46.9712 325.208 47.0402C324.662 47.2112 323.998 47.6072 323.768 47.7467L327.301 49.8497V48.4052C327.301 47.8652 328.087 47.5067 328.178 47.4692L328.21 47.4527C328.387 47.3672 328.541 47.2442 328.67 47.1002C328.673 47.1002 328.674 47.0986 328.676 47.096C328.677 47.0943 328.679 47.0921 328.681 47.0897C328.703 47.0692 328.723 47.046 328.739 47.0207C328.743 47.0182 328.746 47.014 328.748 47.0096C328.751 47.006 328.753 47.0024 328.756 46.9997C328.775 46.9758 328.793 46.9507 328.81 46.9247C328.813 46.9247 328.814 46.9231 328.815 46.9205C328.817 46.9188 328.818 46.9166 328.82 46.9142C328.829 46.8985 328.838 46.8823 328.847 46.8662C328.857 46.8501 328.866 46.834 328.874 46.8182C328.915 46.7448 328.949 46.668 328.976 46.5887C329.041 46.7177 329.122 46.8557 329.228 46.9847C329.213 47.0087 329.198 47.0347 329.182 47.0606C329.171 47.0801 329.159 47.0996 329.147 47.1182C329.147 47.1203 329.146 47.1214 329.145 47.1226C329.143 47.124 329.141 47.1255 329.141 47.1287L329.077 47.2247C329.074 47.2272 329.071 47.2315 329.068 47.2358C329.066 47.2394 329.063 47.243 329.06 47.2457C329.053 47.2548 329.047 47.264 329.04 47.2728C329.028 47.2903 329.016 47.3068 329.002 47.3207C328.999 47.3264 328.995 47.3307 328.991 47.3352C328.987 47.339 328.984 47.3429 328.981 47.3477C328.959 47.3786 328.934 47.4073 328.906 47.4332L328.895 47.4437C328.882 47.4542 328.87 47.4662 328.858 47.4782C328.846 47.4902 328.834 47.5022 328.82 47.5127C328.815 47.5152 328.81 47.5193 328.806 47.5236C328.802 47.5272 328.798 47.531 328.793 47.5337C328.79 47.5409 328.784 47.5453 328.779 47.5492C328.777 47.5511 328.774 47.5528 328.772 47.5547C328.693 47.6253 328.607 47.6881 328.516 47.7422L328.499 47.7527C328.456 47.7782 328.414 47.8007 328.37 47.8217L328.36 47.8277C328.151 47.9177 327.697 48.1862 327.697 48.4157V49.8602L331.222 47.7512C330.955 47.6237 330.275 47.2907 329.761 47.0237C329.312 46.7927 329.119 46.1087 329.098 46.0277L329.05 45.8402C329.034 45.7228 329.003 45.6078 328.958 45.4982C328.952 45.4893 328.947 45.4777 328.943 45.4653C328.939 45.457 328.936 45.4482 328.931 45.4397C328.929 45.4304 328.924 45.4216 328.92 45.4128C328.917 45.4059 328.913 45.3989 328.91 45.3917C328.905 45.3835 328.901 45.3756 328.897 45.3677C328.893 45.3598 328.889 45.352 328.883 45.3437C328.878 45.3355 328.874 45.3276 328.87 45.3197C328.866 45.3118 328.862 45.304 328.856 45.2957C328.85 45.2882 328.845 45.2795 328.84 45.27C328.837 45.2643 328.833 45.2584 328.829 45.2522L328.798 45.2042C328.794 45.1932 328.788 45.1848 328.781 45.1755C328.778 45.1709 328.774 45.1662 328.771 45.1607L328.739 45.1127C328.733 45.1064 328.727 45.0985 328.721 45.0906C328.716 45.0853 328.712 45.08 328.708 45.0752C328.694 45.0617 328.682 45.0472 328.67 45.0317L328.639 45.0002L328.595 44.9567L328.564 44.9252C328.556 44.917 328.548 44.9102 328.54 44.9035C328.532 44.8967 328.524 44.89 328.516 44.8817C328.511 44.8765 328.505 44.8723 328.5 44.8682C328.495 44.8641 328.49 44.86 328.484 44.8547C328.468 44.8384 328.45 44.8239 328.43 44.8112C328.423 44.8029 328.413 44.7958 328.403 44.7902C328.398 44.7856 328.392 44.781 328.387 44.7766C328.373 44.765 328.36 44.7543 328.345 44.7467C328.342 44.7433 328.339 44.7412 328.334 44.7407C328.256 44.6915 328.174 44.6484 328.088 44.6117C327.944 44.5532 327.784 44.5097 327.617 44.4992C327.724 44.3987 327.821 44.2802 327.89 44.1467C327.981 44.1641 328.071 44.1892 328.157 44.2217C328.173 44.227 328.189 44.2337 328.205 44.2405C328.222 44.2472 328.238 44.254 328.253 44.2592C328.255 44.2592 328.257 44.2605 328.258 44.2619C328.259 44.2635 328.261 44.2652 328.264 44.2652C328.274 44.2697 328.284 44.274 328.294 44.2783C328.321 44.2899 328.347 44.3012 328.37 44.3132C328.372 44.3132 328.374 44.3145 328.375 44.3159C328.376 44.3175 328.378 44.3192 328.381 44.3192C328.388 44.323 328.396 44.3267 328.404 44.3305C328.431 44.3435 328.459 44.357 328.483 44.3732C328.485 44.3732 328.486 44.3745 328.487 44.3759C328.489 44.3775 328.49 44.3792 328.493 44.3792C328.527 44.3981 328.557 44.4183 328.586 44.4374C328.589 44.4395 328.592 44.4416 328.595 44.4437L328.601 44.4497C328.635 44.4707 328.667 44.4938 328.697 44.5187L328.703 44.5247Z" fill="white"/>
    <path d="M339.959 50V41.2727H343.07C343.746 41.2727 344.307 41.3892 344.753 41.6222C345.202 41.8551 345.537 42.1776 345.759 42.5895C345.98 42.9986 346.091 43.4716 346.091 44.0085C346.091 44.5426 345.979 45.0128 345.754 45.419C345.533 45.8224 345.197 46.1364 344.749 46.3608C344.303 46.5852 343.741 46.6974 343.065 46.6974H340.709V45.5639H342.946C343.372 45.5639 343.719 45.5028 343.986 45.3807C344.256 45.2585 344.453 45.081 344.578 44.848C344.703 44.6151 344.766 44.3352 344.766 44.0085C344.766 43.679 344.702 43.3935 344.574 43.152C344.449 42.9105 344.251 42.7259 343.982 42.598C343.714 42.4673 343.364 42.402 342.929 42.402H341.276V50H339.959ZM344.267 46.0625L346.423 50H344.923L342.81 46.0625H344.267ZM347.693 50V41.2727H353.165V42.4062H349.01V45.0653H352.879V46.1946H349.01V48.8665H353.216V50H347.693ZM354.924 50V41.2727H358.034C358.713 41.2727 359.276 41.3963 359.722 41.6435C360.168 41.8906 360.502 42.2287 360.723 42.6577C360.945 43.0838 361.056 43.5639 361.056 44.098C361.056 44.6349 360.944 45.1179 360.719 45.5469C360.498 45.973 360.162 46.3111 359.713 46.5611C359.267 46.8082 358.706 46.9318 358.03 46.9318H355.891V45.8153H357.911C358.34 45.8153 358.688 45.7415 358.955 45.5938C359.222 45.4432 359.418 45.2386 359.543 44.9801C359.668 44.7216 359.73 44.4276 359.73 44.098C359.73 43.7685 359.668 43.4759 359.543 43.2202C359.418 42.9645 359.221 42.7642 358.951 42.6193C358.684 42.4744 358.331 42.402 357.894 42.402H356.24V50H354.924Z" fill="#1A203F"/>
    <rect x="258.5" y="33.5" width="109" height="24" rx="5.5" stroke="#EAEAEF"/>
    <circle cx="385.5" cy="45.5" r="7.5" fill="#6179EE"/>
    <path d="M385.48 41L385.42 41.2027V47.0829L385.48 47.1424L388.209 45.529L385.48 41Z" fill="#BFCAF8"/>
    <path d="M385.48 41L382.75 45.529L385.48 47.1424V44.2883V41Z" fill="#FFFEFF"/>
    <path d="M385.48 47.6595L385.446 47.7005V49.7951L385.48 49.8932L388.211 46.0469L385.48 47.6595Z" fill="#C0CAF9"/>
    <path d="M385.48 49.8932V47.6595L382.75 46.0469L385.48 49.8932Z" fill="#FFFEFF"/>
    <path d="M385.479 47.1422L388.209 45.5288L385.479 44.2881V47.1422Z" fill="#7F93EE"/>
    <path d="M382.75 45.5288L385.48 47.1422V44.2881L382.75 45.5288Z" fill="#BFCAF9"/>
    <path d="M397.959 50V41.2727H403.43V42.4062H399.276V45.0653H403.145V46.1946H399.276V48.8665H403.482V50H397.959ZM404.759 42.4062V41.2727H411.513V42.4062H408.79V50H407.478V42.4062H404.759ZM413.006 50V41.2727H414.322V45.0653H418.673V41.2727H419.994V50H418.673V46.1946H414.322V50H413.006Z" fill="#1A203F"/>
    <path d="M429.18 40.8636L426.368 51.3125H425.23L428.043 40.8636H429.18Z" fill="#1A203F"/>
    <circle opacity="0.98" cx="441.5" cy="45.5" r="7.5" fill="#243F8D"/>
    <rect x="444.09" y="41.7764" width="0.744141" height="0.744141" fill="white"/>
    <rect x="445.578" y="41.7764" width="0.744141" height="0.744141" fill="#8DDB2E"/>
    <rect x="444.834" y="42.5205" width="0.744141" height="0.744141" fill="#8DDB2E"/>
    <rect x="445.578" y="47.7354" width="0.744141" height="0.744141" fill="#8DDB2E"/>
    <rect x="444.834" y="46.2471" width="0.744141" height="0.744141" fill="#8DDB2E"/>
    <rect x="443.346" y="44.7588" width="0.744141" height="0.744141" fill="#8DDB2E"/>
    <rect x="444.09" y="44.0146" width="0.744141" height="0.744141" fill="#8DDB2E"/>
    <rect x="445.578" y="44.7588" width="0.744141" height="0.744141" fill="#8DDB2E"/>
    <path fill-rule="evenodd" clip-rule="evenodd" d="M444.834 47.7354V48.4795H445.578V49.2236H444.893H444.834H444.09H443.873H443.727H442.707L441.383 47.1201L440.053 49.2236H439.033H438.887H437.867L440.281 45.4678L437.926 41.7764H438.945H439.08H440.1L441.383 43.8271L442.66 41.7822H444.834V42.5264H444.09V44.0146H443.346V43.2705H442.602V44.0146H443.346V44.7588H442.602V45.5029H443.346V46.2471H444.09V47.7354H443.346V48.4795H444.09V47.7354H444.834ZM442.596 46.2471V46.9912H443.34V46.2471H442.596ZM441.852 45.5029V46.2471H442.596V45.5029H441.852ZM441.852 45.5029V44.7588H441.107V45.5029H441.852Z" fill="#8DDB2E"/>
    <path d="M461.207 44.1108H459.878C459.827 43.8267 459.732 43.5767 459.592 43.3608C459.453 43.1449 459.283 42.9616 459.081 42.8111C458.879 42.6605 458.653 42.5469 458.403 42.4702C458.156 42.3935 457.893 42.3551 457.615 42.3551C457.112 42.3551 456.662 42.4815 456.264 42.7344C455.869 42.9872 455.557 43.358 455.327 43.8466C455.099 44.3352 454.986 44.9318 454.986 45.6364C454.986 46.3466 455.099 46.946 455.327 47.4347C455.557 47.9233 455.871 48.2926 456.268 48.5426C456.666 48.7926 457.114 48.9176 457.611 48.9176C457.886 48.9176 458.148 48.8807 458.395 48.8068C458.645 48.7301 458.871 48.6179 459.072 48.4702C459.274 48.3224 459.445 48.142 459.584 47.929C459.726 47.7131 459.824 47.4659 459.878 47.1875L461.207 47.1918C461.136 47.6207 460.999 48.0156 460.794 48.3764C460.592 48.7344 460.332 49.044 460.014 49.3054C459.699 49.5639 459.338 49.7642 458.932 49.9062C458.526 50.0483 458.082 50.1193 457.602 50.1193C456.847 50.1193 456.173 49.9403 455.582 49.5824C454.991 49.2216 454.526 48.706 454.185 48.0355C453.847 47.3651 453.678 46.5653 453.678 45.6364C453.678 44.7045 453.848 43.9048 454.189 43.2372C454.53 42.5668 454.996 42.0526 455.587 41.6946C456.178 41.3338 456.849 41.1534 457.602 41.1534C458.065 41.1534 458.497 41.2202 458.898 41.3537C459.301 41.4844 459.663 41.6776 459.984 41.9332C460.305 42.1861 460.571 42.4957 460.781 42.8622C460.991 43.2259 461.134 43.642 461.207 44.1108ZM463.594 41.2727L465.682 44.6861H465.75L467.838 41.2727H469.364L466.645 45.6364L469.381 50H467.847L465.75 46.6335H465.682L463.585 50H462.051L464.834 45.6364L462.068 41.2727H463.594ZM478.016 45.6364C478.016 46.5682 477.846 47.3693 477.505 48.0398C477.164 48.7074 476.697 49.2216 476.103 49.5824C475.512 49.9403 474.84 50.1193 474.087 50.1193C473.332 50.1193 472.657 49.9403 472.063 49.5824C471.472 49.2216 471.006 48.706 470.665 48.0355C470.325 47.3651 470.154 46.5653 470.154 45.6364C470.154 44.7045 470.325 43.9048 470.665 43.2372C471.006 42.5668 471.472 42.0526 472.063 41.6946C472.657 41.3338 473.332 41.1534 474.087 41.1534C474.84 41.1534 475.512 41.3338 476.103 41.6946C476.697 42.0526 477.164 42.5668 477.505 43.2372C477.846 43.9048 478.016 44.7045 478.016 45.6364ZM476.712 45.6364C476.712 44.9261 476.597 44.3281 476.367 43.8423C476.14 43.3537 475.827 42.9844 475.43 42.7344C475.035 42.4815 474.587 42.3551 474.087 42.3551C473.585 42.3551 473.136 42.4815 472.741 42.7344C472.346 42.9844 472.033 43.3537 471.803 43.8423C471.576 44.3281 471.462 44.9261 471.462 45.6364C471.462 46.3466 471.576 46.946 471.803 47.4347C472.033 47.9205 472.346 48.2898 472.741 48.5426C473.136 48.7926 473.585 48.9176 474.087 48.9176C474.587 48.9176 475.035 48.7926 475.43 48.5426C475.827 48.2898 476.14 47.9205 476.367 47.4347C476.597 46.946 476.712 46.3466 476.712 45.6364Z" fill="#1A203F"/>
    <rect x="372.5" y="33.5" width="112" height="24" rx="5.5" stroke="#EAEAEF"/>
    <circle cx="38.5" cy="74.5" r="7.5" fill="#6179EE"/>
    <path d="M38.4796 70L38.4199 70.2027V76.0829L38.4796 76.1424L41.2091 74.529L38.4796 70Z" fill="#BFCAF8"/>
    <path d="M38.4795 70L35.75 74.529L38.4795 76.1424V73.2883V70Z" fill="#FFFEFF"/>
    <path d="M38.4799 76.6595L38.4463 76.7005V78.7951L38.4799 78.8932L41.2111 75.0469L38.4799 76.6595Z" fill="#C0CAF9"/>
    <path d="M38.4795 78.8932V76.6595L35.75 75.0469L38.4795 78.8932Z" fill="#FFFEFF"/>
    <path d="M38.4795 76.1422L41.209 74.5288L38.4795 73.2881V76.1422Z" fill="#7F93EE"/>
    <path d="M35.75 74.5288L38.4795 76.1422V73.2881L35.75 74.5288Z" fill="#BFCAF9"/>
    <path d="M50.9588 79V70.2727H56.4304V71.4062H52.2756V74.0653H56.1449V75.1946H52.2756V77.8665H56.4815V79H50.9588ZM57.7589 71.4062V70.2727H64.5131V71.4062H61.7901V79H60.4776V71.4062H57.7589ZM66.0057 79V70.2727H67.3224V74.0653H71.6733V70.2727H72.9943V79H71.6733V75.1946H67.3224V79H66.0057Z" fill="#1A203F"/>
    <path d="M82.1804 69.8636L79.3679 80.3125H78.2301L81.0426 69.8636H82.1804Z" fill="#1A203F"/>
    <circle cx="94.5" cy="74.5" r="7.5" fill="#EDF0F4"/>
    <path d="M95.6243 69.8932C95.1552 69.7809 94.6591 69.7572 94.3905 69.7513C94.2667 69.7484 94.1929 69.7513 94.1929 69.7513H91.4267C90.5058 69.7513 89.75 70.506 89.75 71.4329V74.3368C89.75 74.3634 89.75 74.387 89.753 74.414C89.753 74.4406 89.75 74.4642 89.75 74.4908C89.75 77.1077 91.8638 79.2274 94.4732 79.2274C97.0827 79.2274 99.1965 77.1077 99.1965 74.4908C99.1995 72.2707 97.676 70.4085 95.6243 69.8932Z" fill="#4C66FF"/>
    <path fill-rule="evenodd" clip-rule="evenodd" d="M92.7549 71.7728C92.7549 71.4887 92.5247 71.2578 92.2414 71.2578H92.241C91.9577 71.2578 91.7275 71.4883 91.7275 71.7728V73.3863C91.7276 73.524 91.7825 73.656 91.88 73.7532C91.9775 73.8505 92.1096 73.9049 92.2473 73.9046C92.4617 73.9047 92.654 73.7728 92.7312 73.5729C93.124 72.7692 94.0193 72.3428 94.8907 72.5444C95.7622 72.7459 96.3794 73.5221 96.3794 74.4166C96.3794 75.3111 95.7622 76.0873 94.8907 76.2889C94.0193 76.4904 93.124 76.064 92.7312 75.2603C92.7294 75.2561 92.7276 75.2517 92.7258 75.2472C92.7186 75.2298 92.7111 75.2114 92.7017 75.195C92.613 75.0354 92.442 74.9286 92.2473 74.9286C91.9606 74.9286 91.7275 75.1595 91.7275 75.4469C91.7298 75.5526 91.7626 75.6554 91.8221 75.7428C92.3766 76.8453 93.5584 77.4864 94.785 77.3501C96.0115 77.2138 97.0237 76.3288 97.3226 75.1315C97.6215 73.9342 97.144 72.6773 96.1255 71.9805C95.107 71.2837 93.7625 71.2941 92.7549 72.0066V71.7728ZM95.2554 74.4162C95.2554 73.9785 94.9011 73.6257 94.4671 73.6257C94.0301 73.6257 93.6788 73.9815 93.6788 74.4162C93.6802 74.8514 94.0319 75.2041 94.4671 75.2068C94.9041 75.2068 95.2554 74.8518 95.2554 74.4162Z" fill="white"/>
    <path d="M106.959 79V70.2727H110.155C110.774 70.2727 111.287 70.375 111.693 70.5795C112.099 70.7812 112.403 71.0554 112.605 71.402C112.807 71.7457 112.908 72.1335 112.908 72.5653C112.908 72.929 112.841 73.2358 112.707 73.4858C112.574 73.733 112.395 73.9318 112.17 74.0824C111.949 74.2301 111.705 74.3381 111.438 74.4062V74.4915C111.727 74.5057 112.01 74.5994 112.286 74.7727C112.564 74.9432 112.794 75.1861 112.976 75.5014C113.158 75.8168 113.249 76.2003 113.249 76.652C113.249 77.098 113.143 77.4986 112.933 77.8537C112.726 78.206 112.405 78.4858 111.97 78.6932C111.536 78.8977 110.98 79 110.304 79H106.959ZM108.276 77.8707H110.176C110.807 77.8707 111.259 77.7486 111.531 77.5043C111.804 77.2599 111.94 76.9545 111.94 76.5881C111.94 76.3125 111.871 76.0597 111.732 75.8295C111.592 75.5994 111.393 75.4162 111.135 75.2798C110.879 75.1435 110.575 75.0753 110.223 75.0753H108.276V77.8707ZM108.276 74.0483H110.04C110.335 74.0483 110.601 73.9915 110.837 73.8778C111.075 73.7642 111.264 73.6051 111.403 73.4006C111.545 73.1932 111.616 72.9489 111.616 72.6676C111.616 72.3068 111.49 72.0043 111.237 71.7599C110.984 71.5156 110.597 71.3935 110.074 71.3935H108.276V74.0483ZM122.391 74.6364C122.391 75.5682 122.221 76.3693 121.88 77.0398C121.539 77.7074 121.072 78.2216 120.478 78.5824C119.887 78.9403 119.215 79.1193 118.462 79.1193C117.707 79.1193 117.032 78.9403 116.438 78.5824C115.847 78.2216 115.381 77.706 115.04 77.0355C114.7 76.3651 114.529 75.5653 114.529 74.6364C114.529 73.7045 114.7 72.9048 115.04 72.2372C115.381 71.5668 115.847 71.0526 116.438 70.6946C117.032 70.3338 117.707 70.1534 118.462 70.1534C119.215 70.1534 119.887 70.3338 120.478 70.6946C121.072 71.0526 121.539 71.5668 121.88 72.2372C122.221 72.9048 122.391 73.7045 122.391 74.6364ZM121.087 74.6364C121.087 73.9261 120.972 73.3281 120.742 72.8423C120.515 72.3537 120.202 71.9844 119.805 71.7344C119.41 71.4815 118.962 71.3551 118.462 71.3551C117.96 71.3551 117.511 71.4815 117.116 71.7344C116.721 71.9844 116.408 72.3537 116.178 72.8423C115.951 73.3281 115.837 73.9261 115.837 74.6364C115.837 75.3466 115.951 75.946 116.178 76.4347C116.408 76.9205 116.721 77.2898 117.116 77.5426C117.511 77.7926 117.96 77.9176 118.462 77.9176C118.962 77.9176 119.41 77.7926 119.805 77.5426C120.202 77.2898 120.515 76.9205 120.742 76.4347C120.972 75.946 121.087 75.3466 121.087 74.6364ZM124.033 79V70.2727H127.144C127.82 70.2727 128.381 70.3892 128.827 70.6222C129.276 70.8551 129.611 71.1776 129.833 71.5895C130.054 71.9986 130.165 72.4716 130.165 73.0085C130.165 73.5426 130.053 74.0128 129.828 74.419C129.607 74.8224 129.272 75.1364 128.823 75.3608C128.377 75.5852 127.816 75.6974 127.14 75.6974H124.783V74.5639H127.02C127.446 74.5639 127.793 74.5028 128.06 74.3807C128.33 74.2585 128.527 74.081 128.652 73.848C128.777 73.6151 128.84 73.3352 128.84 73.0085C128.84 72.679 128.776 72.3935 128.648 72.152C128.523 71.9105 128.326 71.7259 128.056 71.598C127.789 71.4673 127.438 71.402 127.003 71.402H125.35V79H124.033ZM128.341 75.0625L130.498 79H128.998L126.884 75.0625H128.341ZM132.505 79H131.107L134.248 70.2727H135.769L138.909 79H137.512L135.044 71.858H134.976L132.505 79ZM132.739 75.5824H137.273V76.6903H132.739V75.5824Z" fill="#1A203F"/>
    <rect x="25.5" y="62.5" width="120" height="24" rx="5.5" stroke="#EAEAEF"/>
    <circle cx="163.5" cy="74.5" r="7.5" fill="#6179EE"/>
    <path d="M163.48 70L163.42 70.2027V76.0829L163.48 76.1424L166.209 74.529L163.48 70Z" fill="#BFCAF8"/>
    <path d="M163.48 70L160.75 74.529L163.48 76.1424V73.2883V70Z" fill="#FFFEFF"/>
    <path d="M163.48 76.6595L163.446 76.7005V78.7951L163.48 78.8932L166.211 75.0469L163.48 76.6595Z" fill="#C0CAF9"/>
    <path d="M163.48 78.8932V76.6595L160.75 75.0469L163.48 78.8932Z" fill="#FFFEFF"/>
    <path d="M163.479 76.1422L166.209 74.5288L163.479 73.2881V76.1422Z" fill="#7F93EE"/>
    <path d="M160.75 74.5288L163.48 76.1422V73.2881L160.75 74.5288Z" fill="#BFCAF9"/>
    <path d="M175.959 79V70.2727H181.43V71.4062H177.276V74.0653H181.145V75.1946H177.276V77.8665H181.482V79H175.959ZM182.759 71.4062V70.2727H189.513V71.4062H186.79V79H185.478V71.4062H182.759ZM191.006 79V70.2727H192.322V74.0653H196.673V70.2727H197.994V79H196.673V75.1946H192.322V79H191.006Z" fill="#1A203F"/>
    <path d="M207.18 69.8636L204.368 80.3125H203.23L206.043 69.8636H207.18Z" fill="#1A203F"/>
    <path d="M219.5 82C223.642 82 227 78.6421 227 74.5C227 70.3579 223.642 67 219.5 67C215.358 67 212 70.3579 212 74.5C212 78.6421 215.358 82 219.5 82Z" fill="#45CD85"/>
    <path fill-rule="evenodd" clip-rule="evenodd" d="M220.584 75.4956H221.18V75.0275C222.059 74.9218 222.625 74.4085 222.625 73.714C222.625 72.7478 221.865 72.5364 221.15 72.4005V71.1172C221.493 71.1474 221.865 71.2531 222.208 71.4192V70.6643C221.88 70.5435 221.522 70.468 221.18 70.4529V70H220.584V70.4529C219.675 70.5586 219.153 71.0719 219.153 71.7211C219.153 72.7025 219.898 72.929 220.613 73.0648V74.3481C220.181 74.2877 219.719 74.1066 219.183 73.8197V74.6199C219.645 74.8464 220.122 74.9973 220.584 75.0275V75.4956ZM222.387 76.2353C221.925 77.5488 220.688 78.5 219.228 78.5C217.38 78.5 215.875 76.9751 215.875 75.103C215.875 73.6234 216.814 72.3703 218.11 71.9023V72.8233C217.276 73.2309 216.709 74.1066 216.709 75.103C216.709 76.5071 217.842 77.6545 219.228 77.6545C220.211 77.6545 221.075 77.0808 221.478 76.2353H222.387ZM221.15 73.1101V74.3481C221.612 74.2877 221.895 74.0462 221.895 73.714C221.895 73.3517 221.567 73.2158 221.15 73.1101ZM219.883 71.7211C219.883 72.0986 220.196 72.2496 220.613 72.3401V71.1172C220.151 71.1625 219.883 71.3739 219.883 71.7211Z" fill="white"/>
    <path d="M239.207 73.1108H237.878C237.827 72.8267 237.732 72.5767 237.592 72.3608C237.453 72.1449 237.283 71.9616 237.081 71.8111C236.879 71.6605 236.653 71.5469 236.403 71.4702C236.156 71.3935 235.893 71.3551 235.615 71.3551C235.112 71.3551 234.662 71.4815 234.264 71.7344C233.869 71.9872 233.557 72.358 233.327 72.8466C233.099 73.3352 232.986 73.9318 232.986 74.6364C232.986 75.3466 233.099 75.946 233.327 76.4347C233.557 76.9233 233.871 77.2926 234.268 77.5426C234.666 77.7926 235.114 77.9176 235.611 77.9176C235.886 77.9176 236.148 77.8807 236.395 77.8068C236.645 77.7301 236.871 77.6179 237.072 77.4702C237.274 77.3224 237.445 77.142 237.584 76.929C237.726 76.7131 237.824 76.4659 237.878 76.1875L239.207 76.1918C239.136 76.6207 238.999 77.0156 238.794 77.3764C238.592 77.7344 238.332 78.044 238.014 78.3054C237.699 78.5639 237.338 78.7642 236.932 78.9062C236.526 79.0483 236.082 79.1193 235.602 79.1193C234.847 79.1193 234.173 78.9403 233.582 78.5824C232.991 78.2216 232.526 77.706 232.185 77.0355C231.847 76.3651 231.678 75.5653 231.678 74.6364C231.678 73.7045 231.848 72.9048 232.189 72.2372C232.53 71.5668 232.996 71.0526 233.587 70.6946C234.178 70.3338 234.849 70.1534 235.602 70.1534C236.065 70.1534 236.497 70.2202 236.898 70.3537C237.301 70.4844 237.663 70.6776 237.984 70.9332C238.305 71.1861 238.571 71.4957 238.781 71.8622C238.991 72.2259 239.134 72.642 239.207 73.1108ZM246.395 70.2727H247.716V76.0128C247.716 76.6236 247.573 77.1648 247.286 77.6364C246.999 78.1051 246.596 78.4744 246.076 78.7443C245.556 79.0114 244.946 79.1449 244.248 79.1449C243.551 79.1449 242.944 79.0114 242.424 78.7443C241.904 78.4744 241.5 78.1051 241.213 77.6364C240.926 77.1648 240.783 76.6236 240.783 76.0128V70.2727H242.1V75.9062C242.1 76.3011 242.186 76.652 242.36 76.9588C242.536 77.2656 242.784 77.5071 243.105 77.6832C243.426 77.8565 243.807 77.9432 244.248 77.9432C244.691 77.9432 245.073 77.8565 245.394 77.6832C245.718 77.5071 245.965 77.2656 246.135 76.9588C246.309 76.652 246.395 76.3011 246.395 75.9062V70.2727ZM254.391 72.5653C254.345 72.1619 254.158 71.8494 253.828 71.6278C253.499 71.4034 253.084 71.2912 252.584 71.2912C252.226 71.2912 251.916 71.348 251.655 71.4616C251.393 71.5724 251.19 71.7259 251.045 71.9219C250.903 72.1151 250.832 72.3352 250.832 72.5824C250.832 72.7898 250.881 72.9687 250.977 73.1193C251.077 73.2699 251.206 73.3963 251.365 73.4986C251.527 73.598 251.7 73.6818 251.885 73.75C252.07 73.8153 252.247 73.8693 252.418 73.9119L253.27 74.1335C253.548 74.2017 253.834 74.294 254.126 74.4105C254.419 74.527 254.69 74.6804 254.94 74.8707C255.19 75.0611 255.392 75.2969 255.545 75.5781C255.702 75.8594 255.78 76.196 255.78 76.5881C255.78 77.0824 255.652 77.5213 255.396 77.9048C255.143 78.2884 254.776 78.5909 254.293 78.8125C253.813 79.0341 253.232 79.1449 252.55 79.1449C251.896 79.1449 251.331 79.0412 250.854 78.8338C250.376 78.6264 250.003 78.3324 249.733 77.9517C249.463 77.5682 249.314 77.1136 249.286 76.5881H250.607C250.632 76.9034 250.734 77.1662 250.913 77.3764C251.095 77.5838 251.327 77.7386 251.608 77.8409C251.892 77.9403 252.203 77.9901 252.541 77.9901C252.913 77.9901 253.244 77.9318 253.534 77.8153C253.827 77.696 254.057 77.5312 254.224 77.321C254.392 77.108 254.476 76.8594 254.476 76.5753C254.476 76.3168 254.402 76.1051 254.254 75.9403C254.109 75.7756 253.912 75.6392 253.662 75.5312C253.415 75.4233 253.135 75.3281 252.822 75.2457L251.791 74.9645C251.092 74.7741 250.538 74.4943 250.129 74.125C249.723 73.7557 249.52 73.267 249.52 72.6591C249.52 72.1562 249.656 71.7173 249.929 71.3423C250.202 70.9673 250.571 70.6761 251.037 70.4688C251.503 70.2585 252.028 70.1534 252.614 70.1534C253.205 70.1534 253.726 70.2571 254.178 70.4645C254.632 70.6719 254.99 70.9574 255.251 71.321C255.513 71.6818 255.649 72.0966 255.661 72.5653H254.391ZM260.179 79H257.353V70.2727H260.268C261.123 70.2727 261.858 70.4474 262.471 70.7969C263.085 71.1435 263.555 71.642 263.882 72.2926C264.211 72.9403 264.376 73.7173 264.376 74.6236C264.376 75.5327 264.21 76.3139 263.877 76.9673C263.548 77.6207 263.071 78.1236 262.446 78.4759C261.821 78.8253 261.065 79 260.179 79ZM258.67 77.8494H260.106C260.771 77.8494 261.324 77.7244 261.764 77.4744C262.204 77.2216 262.534 76.8565 262.752 76.3793C262.971 75.8991 263.081 75.3139 263.081 74.6236C263.081 73.9389 262.971 73.358 262.752 72.8807C262.537 72.4034 262.214 72.0412 261.785 71.794C261.356 71.5469 260.824 71.4233 260.187 71.4233H258.67V77.8494Z" fill="#1A203F"/>
    <rect x="150.5" y="62.5" width="121" height="24" rx="5.5" stroke="#EAEAEF"/>
    <circle cx="289.5" cy="74.5" r="7.5" fill="#6179EE"/>
    <path d="M289.48 70L289.42 70.2027V76.0829L289.48 76.1424L292.209 74.529L289.48 70Z" fill="#BFCAF8"/>
    <path d="M289.48 70L286.75 74.529L289.48 76.1424V73.2883V70Z" fill="#FFFEFF"/>
    <path d="M289.48 76.6595L289.446 76.7005V78.7951L289.48 78.8932L292.211 75.0469L289.48 76.6595Z" fill="#C0CAF9"/>
    <path d="M289.48 78.8932V76.6595L286.75 75.0469L289.48 78.8932Z" fill="#FFFEFF"/>
    <path d="M289.479 76.1422L292.209 74.5288L289.479 73.2881V76.1422Z" fill="#7F93EE"/>
    <path d="M286.75 74.5288L289.48 76.1422V73.2881L286.75 74.5288Z" fill="#BFCAF9"/>
    <path d="M301.959 79V70.2727H307.43V71.4062H303.276V74.0653H307.145V75.1946H303.276V77.8665H307.482V79H301.959ZM308.759 71.4062V70.2727H315.513V71.4062H312.79V79H311.478V71.4062H308.759ZM317.006 79V70.2727H318.322V74.0653H322.673V70.2727H323.994V79H322.673V75.1946H318.322V79H317.006Z" fill="#1A203F"/>
    <path d="M333.18 69.8636L330.368 80.3125H329.23L332.043 69.8636H333.18Z" fill="#1A203F"/>
    <circle cx="345.5" cy="74.5" r="7.5" fill="#2A5ADA"/>
    <path fill-rule="evenodd" clip-rule="evenodd" d="M344.542 70.0275L345.46 69.5L346.377 70.0275L348.877 71.4725L349.795 72V77L348.877 77.5275L346.4 78.9725L345.483 79.5L344.565 78.9725L342.042 77.5275L341.125 77V72L342.042 71.4725L344.542 70.0275ZM342.96 73.055V75.945L345.46 77.3899L347.96 75.945V73.055L345.46 71.6101L342.96 73.055Z" fill="white"/>
    <path d="M357.959 79V70.2727H359.276V77.8665H363.23V79H357.959ZM366.049 70.2727V79H364.732V70.2727H366.049ZM375.011 70.2727V79H373.8L369.364 72.5994H369.283V79H367.967V70.2727H369.185L373.626 76.6818H373.707V70.2727H375.011ZM376.931 79V70.2727H378.248V74.4403H378.355L382.015 70.2727H383.673L380.153 74.2017L383.686 79H382.1L379.279 75.1009L378.248 76.2855V79H376.931Z" fill="#1A203F"/>
    <rect x="276.5" y="62.5" width="113" height="24" rx="5.5" stroke="#EAEAEF"/>
    <path d="M45.7739 122.314C44.7722 126.332 40.7028 128.777 36.6844 127.775C32.6677 126.774 30.2225 122.704 31.2246 118.686C32.2259 114.668 36.2953 112.223 40.3125 113.224C44.3305 114.226 46.7756 118.296 45.7738 122.314L45.7739 122.314H45.7739Z" fill="#23292F"/>
    <path d="M42.1881 116.125H43.7016L40.5519 119.244C39.4112 120.372 37.5619 120.372 36.4204 119.244L33.2695 116.125H34.7842L37.1772 118.494C37.9027 119.209 39.0678 119.209 39.7933 118.494L42.1881 116.125Z" fill="white"/>
    <path d="M34.7645 124.797H33.25L36.4201 121.659C37.5608 120.53 39.4101 120.53 40.5516 121.659L43.7217 124.797H42.2082L39.7948 122.409C39.0693 121.694 37.9042 121.694 37.1787 122.409L34.7645 124.797Z" fill="white"/>
    <path d="M51.875 116.273L53.9631 119.686H54.0312L56.1193 116.273H57.6449L54.9261 120.636L57.6619 125H56.1278L54.0312 121.634H53.9631L51.8665 125H50.3324L53.1151 120.636L50.3494 116.273H51.875ZM58.951 125V116.273H62.0618C62.7379 116.273 63.299 116.389 63.745 116.622C64.1939 116.855 64.5291 117.178 64.7507 117.589C64.9723 117.999 65.0831 118.472 65.0831 119.009C65.0831 119.543 64.9709 120.013 64.7464 120.419C64.5249 120.822 64.1896 121.136 63.7408 121.361C63.2947 121.585 62.7337 121.697 62.0575 121.697H59.701V120.564H61.9382C62.3643 120.564 62.7109 120.503 62.978 120.381C63.2479 120.259 63.4453 120.081 63.5703 119.848C63.6953 119.615 63.7578 119.335 63.7578 119.009C63.7578 118.679 63.6939 118.393 63.5661 118.152C63.4411 117.911 63.2436 117.726 62.9737 117.598C62.7067 117.467 62.3558 117.402 61.9212 117.402H60.2678V125H58.951ZM63.2592 121.062L65.4155 125H63.9155L61.8018 121.062H63.2592ZM66.6854 125V116.273H69.7962C70.4751 116.273 71.0376 116.396 71.4837 116.643C71.9297 116.891 72.2635 117.229 72.4851 117.658C72.7067 118.084 72.8175 118.564 72.8175 119.098C72.8175 119.635 72.7053 120.118 72.4808 120.547C72.2592 120.973 71.924 121.311 71.4751 121.561C71.0291 121.808 70.468 121.932 69.7919 121.932H67.6527V120.815H69.6726C70.1016 120.815 70.4496 120.741 70.7166 120.594C70.9837 120.443 71.1797 120.239 71.3047 119.98C71.4297 119.722 71.4922 119.428 71.4922 119.098C71.4922 118.768 71.4297 118.476 71.3047 118.22C71.1797 117.964 70.9822 117.764 70.7124 117.619C70.4453 117.474 70.093 117.402 69.6555 117.402H68.0021V125H66.6854Z" fill="#1A203F"/>
    <path d="M82.1804 115.864L79.3679 126.312H78.2301L81.0426 115.864H82.1804Z" fill="#1A203F"/>
    <path d="M101.774 122.314C100.772 126.332 96.7028 128.777 92.6844 127.775C88.6677 126.774 86.2225 122.704 87.2246 118.686C88.2259 114.668 92.2953 112.223 96.3125 113.224C100.331 114.226 102.776 118.296 101.774 122.314L101.774 122.314H101.774Z" fill="#F3BA2F"/>
    <path fill-rule="evenodd" clip-rule="evenodd" d="M94.5 117.76L92.558 119.702L91.428 118.572L94.5 115.5L97.573 118.573L96.443 119.703L94.5 117.76ZM90.63 119.37L89.5 120.5L90.63 121.63L91.76 120.5L90.63 119.37ZM92.5579 121.298L94.5 123.24L96.443 121.297L97.5736 122.427L97.573 122.427L94.5 125.5L91.428 122.428L91.4264 122.426L92.5579 121.298ZM98.37 119.37L97.24 120.5L98.37 121.63L99.5 120.5L98.37 119.37Z" fill="white"/>
    <path d="M95.6459 120.499H95.6463L94.4998 119.353L93.6523 120.2L93.5549 120.297L93.3541 120.498L93.3525 120.5L93.3541 120.501L94.4998 121.647L95.6464 120.5L95.647 120.5L95.6459 120.499" fill="white"/>
    <path d="M106.959 125V116.273H110.155C110.774 116.273 111.287 116.375 111.693 116.58C112.099 116.781 112.403 117.055 112.605 117.402C112.807 117.746 112.908 118.134 112.908 118.565C112.908 118.929 112.841 119.236 112.707 119.486C112.574 119.733 112.395 119.932 112.17 120.082C111.949 120.23 111.705 120.338 111.438 120.406V120.491C111.727 120.506 112.01 120.599 112.286 120.773C112.564 120.943 112.794 121.186 112.976 121.501C113.158 121.817 113.249 122.2 113.249 122.652C113.249 123.098 113.143 123.499 112.933 123.854C112.726 124.206 112.405 124.486 111.97 124.693C111.536 124.898 110.98 125 110.304 125H106.959ZM108.276 123.871H110.176C110.807 123.871 111.259 123.749 111.531 123.504C111.804 123.26 111.94 122.955 111.94 122.588C111.94 122.312 111.871 122.06 111.732 121.83C111.592 121.599 111.393 121.416 111.135 121.28C110.879 121.143 110.575 121.075 110.223 121.075H108.276V123.871ZM108.276 120.048H110.04C110.335 120.048 110.601 119.991 110.837 119.878C111.075 119.764 111.264 119.605 111.403 119.401C111.545 119.193 111.616 118.949 111.616 118.668C111.616 118.307 111.49 118.004 111.237 117.76C110.984 117.516 110.597 117.393 110.074 117.393H108.276V120.048ZM121.854 116.273V125H120.644L116.208 118.599H116.127V125H114.81V116.273H116.029L120.469 122.682H120.55V116.273H121.854ZM123.775 125V116.273H126.971C127.591 116.273 128.103 116.375 128.51 116.58C128.916 116.781 129.22 117.055 129.422 117.402C129.623 117.746 129.724 118.134 129.724 118.565C129.724 118.929 129.657 119.236 129.524 119.486C129.39 119.733 129.211 119.932 128.987 120.082C128.765 120.23 128.521 120.338 128.254 120.406V120.491C128.544 120.506 128.826 120.599 129.102 120.773C129.38 120.943 129.61 121.186 129.792 121.501C129.974 121.817 130.065 122.2 130.065 122.652C130.065 123.098 129.96 123.499 129.75 123.854C129.542 124.206 129.221 124.486 128.787 124.693C128.352 124.898 127.797 125 127.12 125H123.775ZM125.092 123.871H126.993C127.623 123.871 128.075 123.749 128.348 123.504C128.62 123.26 128.757 122.955 128.757 122.588C128.757 122.312 128.687 122.06 128.548 121.83C128.409 121.599 128.21 121.416 127.951 121.28C127.696 121.143 127.392 121.075 127.039 121.075H125.092V123.871ZM125.092 120.048H126.856C127.152 120.048 127.417 119.991 127.653 119.878C127.892 119.764 128.081 119.605 128.22 119.401C128.362 119.193 128.433 118.949 128.433 118.668C128.433 118.307 128.306 118.004 128.054 117.76C127.801 117.516 127.413 117.393 126.89 117.393H125.092V120.048Z" fill="#1A203F"/>
    <rect x="25.5" y="108.5" width="111" height="24" rx="5.5" stroke="#EAEAEF"/>
    <path d="M161.774 122.314C160.772 126.332 156.703 128.777 152.684 127.775C148.668 126.774 146.222 122.704 147.225 118.686C148.226 114.668 152.295 112.223 156.312 113.224C160.331 114.226 162.776 118.296 161.774 122.314L161.774 122.314H161.774Z" fill="#23292F"/>
    <path d="M158.188 116.125H159.702L156.552 119.244C155.411 120.372 153.562 120.372 152.42 119.244L149.27 116.125H150.784L153.177 118.494C153.903 119.209 155.068 119.209 155.793 118.494L158.188 116.125Z" fill="white"/>
    <path d="M150.765 124.797H149.25L152.42 121.659C153.561 120.53 155.41 120.53 156.552 121.659L159.722 124.797H158.208L155.795 122.409C155.069 121.694 153.904 121.694 153.179 122.409L150.765 124.797Z" fill="white"/>
    <path d="M167.875 116.273L169.963 119.686H170.031L172.119 116.273H173.645L170.926 120.636L173.662 125H172.128L170.031 121.634H169.963L167.866 125H166.332L169.115 120.636L166.349 116.273H167.875ZM174.951 125V116.273H178.062C178.738 116.273 179.299 116.389 179.745 116.622C180.194 116.855 180.529 117.178 180.751 117.589C180.972 117.999 181.083 118.472 181.083 119.009C181.083 119.543 180.971 120.013 180.746 120.419C180.525 120.822 180.19 121.136 179.741 121.361C179.295 121.585 178.734 121.697 178.058 121.697H175.701V120.564H177.938C178.364 120.564 178.711 120.503 178.978 120.381C179.248 120.259 179.445 120.081 179.57 119.848C179.695 119.615 179.758 119.335 179.758 119.009C179.758 118.679 179.694 118.393 179.566 118.152C179.441 117.911 179.244 117.726 178.974 117.598C178.707 117.467 178.356 117.402 177.921 117.402H176.268V125H174.951ZM179.259 121.062L181.415 125H179.915L177.802 121.062H179.259ZM182.685 125V116.273H185.796C186.475 116.273 187.038 116.396 187.484 116.643C187.93 116.891 188.263 117.229 188.485 117.658C188.707 118.084 188.817 118.564 188.817 119.098C188.817 119.635 188.705 120.118 188.481 120.547C188.259 120.973 187.924 121.311 187.475 121.561C187.029 121.808 186.468 121.932 185.792 121.932H183.653V120.815H185.673C186.102 120.815 186.45 120.741 186.717 120.594C186.984 120.443 187.18 120.239 187.305 119.98C187.43 119.722 187.492 119.428 187.492 119.098C187.492 118.768 187.43 118.476 187.305 118.22C187.18 117.964 186.982 117.764 186.712 117.619C186.445 117.474 186.093 117.402 185.656 117.402H184.002V125H182.685Z" fill="#1A203F"/>
    <path d="M198.18 115.864L195.368 126.312H194.23L197.043 115.864H198.18Z" fill="#1A203F"/>
    <circle cx="210.5" cy="120.5" r="7.5" fill="#8DC351"/>
    <path fill-rule="evenodd" clip-rule="evenodd" d="M212.944 117.974C212.569 117.041 211.677 116.994 210.598 117.181L210.222 115.875L209.425 116.108L209.8 117.368C209.724 117.386 209.64 117.413 209.552 117.441L209.552 117.441C209.422 117.482 209.283 117.526 209.143 117.554L208.768 116.248L207.97 116.481L208.345 117.787C208.252 117.811 208.169 117.834 208.087 117.857L208.087 117.857C208.005 117.881 207.923 117.904 207.829 117.927L206.75 118.3L206.985 119.14C206.985 119.14 207.595 118.953 207.548 118.953C207.876 118.86 208.017 119 208.111 119.187L208.533 120.679H208.627L208.533 120.726L209.143 122.825C209.143 122.918 209.143 123.104 208.909 123.198L208.345 123.384L208.439 124.364L209.472 124.084L210.035 123.944L210.41 125.25L211.208 125.017L210.832 123.711C211.067 123.664 211.255 123.618 211.489 123.524L211.865 124.83L212.662 124.597L212.287 123.291C213.601 122.825 214.446 122.218 214.211 120.912C214.023 119.886 213.413 119.56 212.569 119.606C213.038 119.14 213.226 118.674 212.944 117.974ZM212.662 121.146C212.911 122.009 211.591 122.401 210.889 122.61C210.795 122.638 210.711 122.663 210.645 122.685L210.129 120.912C210.203 120.894 210.295 120.867 210.401 120.836L210.401 120.836C211.101 120.63 212.377 120.254 212.662 121.146ZM210.025 120.082C210.586 119.923 211.795 119.582 211.536 118.767C211.324 117.923 210.152 118.3 209.583 118.484C209.523 118.503 209.469 118.52 209.425 118.534L209.894 120.119C209.932 120.108 209.976 120.096 210.025 120.082Z" fill="white"/>
    <path d="M222.959 125V116.273H226.155C226.774 116.273 227.287 116.375 227.693 116.58C228.099 116.781 228.403 117.055 228.605 117.402C228.807 117.746 228.908 118.134 228.908 118.565C228.908 118.929 228.841 119.236 228.707 119.486C228.574 119.733 228.395 119.932 228.17 120.082C227.949 120.23 227.705 120.338 227.438 120.406V120.491C227.727 120.506 228.01 120.599 228.286 120.773C228.564 120.943 228.794 121.186 228.976 121.501C229.158 121.817 229.249 122.2 229.249 122.652C229.249 123.098 229.143 123.499 228.933 123.854C228.726 124.206 228.405 124.486 227.97 124.693C227.536 124.898 226.98 125 226.304 125H222.959ZM224.276 123.871H226.176C226.807 123.871 227.259 123.749 227.531 123.504C227.804 123.26 227.94 122.955 227.94 122.588C227.94 122.312 227.871 122.06 227.732 121.83C227.592 121.599 227.393 121.416 227.135 121.28C226.879 121.143 226.575 121.075 226.223 121.075H224.276V123.871ZM224.276 120.048H226.04C226.335 120.048 226.601 119.991 226.837 119.878C227.075 119.764 227.264 119.605 227.403 119.401C227.545 119.193 227.616 118.949 227.616 118.668C227.616 118.307 227.49 118.004 227.237 117.76C226.984 117.516 226.597 117.393 226.074 117.393H224.276V120.048ZM238.059 119.111H236.729C236.678 118.827 236.583 118.577 236.444 118.361C236.305 118.145 236.134 117.962 235.933 117.811C235.731 117.661 235.505 117.547 235.255 117.47C235.008 117.393 234.745 117.355 234.467 117.355C233.964 117.355 233.513 117.482 233.116 117.734C232.721 117.987 232.408 118.358 232.178 118.847C231.951 119.335 231.837 119.932 231.837 120.636C231.837 121.347 231.951 121.946 232.178 122.435C232.408 122.923 232.722 123.293 233.12 123.543C233.518 123.793 233.965 123.918 234.462 123.918C234.738 123.918 234.999 123.881 235.246 123.807C235.496 123.73 235.722 123.618 235.924 123.47C236.126 123.322 236.296 123.142 236.435 122.929C236.577 122.713 236.675 122.466 236.729 122.188L238.059 122.192C237.988 122.621 237.85 123.016 237.646 123.376C237.444 123.734 237.184 124.044 236.866 124.305C236.55 124.564 236.19 124.764 235.783 124.906C235.377 125.048 234.934 125.119 234.454 125.119C233.698 125.119 233.025 124.94 232.434 124.582C231.843 124.222 231.377 123.706 231.036 123.036C230.698 122.365 230.529 121.565 230.529 120.636C230.529 119.705 230.7 118.905 231.04 118.237C231.381 117.567 231.847 117.053 232.438 116.695C233.029 116.334 233.701 116.153 234.454 116.153C234.917 116.153 235.349 116.22 235.749 116.354C236.153 116.484 236.515 116.678 236.836 116.933C237.157 117.186 237.423 117.496 237.633 117.862C237.843 118.226 237.985 118.642 238.059 119.111ZM239.635 125V116.273H240.951V120.065H245.302V116.273H246.623V125H245.302V121.195H240.951V125H239.635Z" fill="#1A203F"/>
    <rect x="141.5" y="108.5" width="112" height="24" rx="5.5" stroke="#EAEAEF"/>
    <path d="M278.774 122.314C277.772 126.332 273.703 128.777 269.684 127.775C265.668 126.774 263.222 122.704 264.225 118.686C265.226 114.668 269.295 112.223 273.312 113.224C277.331 114.226 279.776 118.296 278.774 122.314L278.774 122.314H278.774Z" fill="#23292F"/>
    <path d="M275.188 116.125H276.702L273.552 119.244C272.411 120.372 270.562 120.372 269.42 119.244L266.27 116.125H267.784L270.177 118.494C270.903 119.209 272.068 119.209 272.793 118.494L275.188 116.125Z" fill="white"/>
    <path d="M267.765 124.797H266.25L269.42 121.659C270.561 120.53 272.41 120.53 273.552 121.659L276.722 124.797H275.208L272.795 122.409C272.069 121.694 270.904 121.694 270.179 122.409L267.765 124.797Z" fill="white"/>
    <path d="M284.875 116.273L286.963 119.686H287.031L289.119 116.273H290.645L287.926 120.636L290.662 125H289.128L287.031 121.634H286.963L284.866 125H283.332L286.115 120.636L283.349 116.273H284.875ZM291.951 125V116.273H295.062C295.738 116.273 296.299 116.389 296.745 116.622C297.194 116.855 297.529 117.178 297.751 117.589C297.972 117.999 298.083 118.472 298.083 119.009C298.083 119.543 297.971 120.013 297.746 120.419C297.525 120.822 297.19 121.136 296.741 121.361C296.295 121.585 295.734 121.697 295.058 121.697H292.701V120.564H294.938C295.364 120.564 295.711 120.503 295.978 120.381C296.248 120.259 296.445 120.081 296.57 119.848C296.695 119.615 296.758 119.335 296.758 119.009C296.758 118.679 296.694 118.393 296.566 118.152C296.441 117.911 296.244 117.726 295.974 117.598C295.707 117.467 295.356 117.402 294.921 117.402H293.268V125H291.951ZM296.259 121.062L298.415 125H296.915L294.802 121.062H296.259ZM299.685 125V116.273H302.796C303.475 116.273 304.038 116.396 304.484 116.643C304.93 116.891 305.263 117.229 305.485 117.658C305.707 118.084 305.817 118.564 305.817 119.098C305.817 119.635 305.705 120.118 305.481 120.547C305.259 120.973 304.924 121.311 304.475 121.561C304.029 121.808 303.468 121.932 302.792 121.932H300.653V120.815H302.673C303.102 120.815 303.45 120.741 303.717 120.594C303.984 120.443 304.18 120.239 304.305 119.98C304.43 119.722 304.492 119.428 304.492 119.098C304.492 118.768 304.43 118.476 304.305 118.22C304.18 117.964 303.982 117.764 303.712 117.619C303.445 117.474 303.093 117.402 302.656 117.402H301.002V125H299.685Z" fill="#1A203F"/>
    <path d="M315.18 115.864L312.368 126.312H311.23L314.043 115.864H315.18Z" fill="#1A203F"/>
    <circle cx="327.5" cy="120.5" r="7.5" fill="#5F2652"/>
    <path fill-rule="evenodd" clip-rule="evenodd" d="M327.841 115.404L331.765 122.442C331.871 122.624 331.807 122.859 331.633 122.972L327.71 125.316C327.584 125.388 327.429 125.388 327.302 125.316L323.374 122.967C323.191 122.859 323.132 122.624 323.234 122.442L327.157 115.404C327.225 115.279 327.356 115.2 327.499 115.2C327.642 115.2 327.773 115.279 327.841 115.404ZM328.703 119.525L328.799 119.606C329.053 119.828 329.246 120.111 329.359 120.429C329.39 120.53 329.417 120.632 329.417 120.734L329.465 120.926C329.513 121.092 329.678 121.547 329.93 121.676C330.364 121.901 330.925 122.18 331.241 122.334L327.682 115.944V118.712C327.682 119.253 326.9 119.622 326.809 119.66L326.642 119.741C326.522 119.819 326.412 119.913 326.315 120.02C326.312 120.026 326.309 120.031 326.305 120.036L326.246 120.111C326.245 120.111 326.243 120.112 326.242 120.113C326.241 120.114 326.24 120.116 326.24 120.117C326.219 120.143 326.2 120.17 326.182 120.198C326.179 120.204 326.175 120.21 326.171 120.215C326.163 120.228 326.156 120.24 326.15 120.252C326.143 120.264 326.136 120.276 326.128 120.29C326.125 120.296 326.121 120.301 326.117 120.306C326.102 120.326 326.092 120.346 326.082 120.368C326.078 120.375 326.074 120.383 326.069 120.392C326.068 120.395 326.067 120.397 326.066 120.4C326.064 120.405 326.063 120.409 326.059 120.413C326.048 120.434 326.038 120.461 326.027 120.488C326.025 120.49 326.024 120.493 326.023 120.497C326.022 120.501 326.02 120.506 326.017 120.509L325.985 120.605C325.985 120.608 325.984 120.61 325.982 120.613C325.981 120.616 325.979 120.618 325.979 120.621C325.977 120.637 325.972 120.652 325.968 120.668C325.964 120.679 325.961 120.691 325.958 120.702C325.958 120.707 325.957 120.712 325.955 120.716C325.954 120.72 325.952 120.724 325.952 120.729C325.95 120.741 325.949 120.753 325.947 120.764C325.943 120.788 325.94 120.81 325.936 120.831V120.842C325.935 120.851 325.933 120.859 325.932 120.867C325.929 120.889 325.925 120.91 325.925 120.933V120.96C325.92 120.995 325.918 121.031 325.919 121.067V121.094C325.924 121.244 325.945 121.388 325.988 121.527C325.832 121.452 325.688 121.392 325.549 121.361C325.534 121.265 325.527 121.168 325.528 121.071V120.99C325.533 120.971 325.535 120.951 325.534 120.932C325.534 120.921 325.535 120.912 325.537 120.902C325.538 120.893 325.54 120.884 325.54 120.873C325.54 120.865 325.541 120.858 325.543 120.851C325.544 120.845 325.546 120.838 325.546 120.83C325.548 120.821 325.549 120.811 325.55 120.802C325.552 120.79 325.553 120.777 325.556 120.765C325.558 120.758 325.559 120.751 325.561 120.745C325.562 120.736 325.563 120.727 325.567 120.717C325.569 120.71 325.57 120.702 325.571 120.694C325.573 120.683 325.574 120.673 325.577 120.663C325.579 120.659 325.581 120.653 325.582 120.647C325.583 120.639 325.585 120.632 325.588 120.626C325.59 120.616 325.594 120.604 325.597 120.592C325.601 120.579 325.606 120.565 325.609 120.551C325.611 120.546 325.612 120.542 325.613 120.537C325.615 120.531 325.616 120.525 325.619 120.519C325.628 120.5 325.635 120.481 325.64 120.461C325.643 120.451 325.647 120.442 325.651 120.434L325.682 120.353C325.685 120.343 325.689 120.334 325.693 120.326C325.698 120.312 325.703 120.3 325.709 120.288C325.714 120.276 325.719 120.264 325.724 120.251C325.728 120.248 325.73 120.244 325.73 120.24C325.734 120.234 325.737 120.226 325.741 120.219C325.748 120.202 325.757 120.184 325.768 120.165C325.769 120.162 325.77 120.159 325.771 120.157C325.773 120.152 325.774 120.148 325.778 120.144L325.826 120.063C325.826 120.061 325.828 120.06 325.829 120.059C325.831 120.057 325.832 120.056 325.832 120.053C325.841 120.039 325.849 120.027 325.856 120.015C325.864 120.003 325.872 119.991 325.88 119.978C325.88 119.976 325.882 119.975 325.883 119.973C325.885 119.972 325.886 119.97 325.886 119.967C325.897 119.954 325.906 119.94 325.916 119.927C325.925 119.913 325.934 119.9 325.945 119.886L325.951 119.88C325.989 119.826 326.032 119.776 326.08 119.73L326.086 119.724C326.13 119.674 326.178 119.627 326.23 119.585C326.312 119.515 326.4 119.453 326.492 119.397L326.503 119.391C326.514 119.385 326.525 119.379 326.536 119.373C326.571 119.352 326.606 119.332 326.642 119.316L326.674 119.3C327.161 119.079 327.305 118.823 327.305 118.727V115.949L323.779 122.285C324.1 122.097 324.631 121.814 325.096 121.664C325.321 121.593 325.615 121.658 325.963 121.856C326.111 121.942 326.251 122.042 326.38 122.156L326.519 122.285C326.609 122.36 326.707 122.418 326.813 122.472C326.819 122.474 326.825 122.478 326.831 122.481C326.839 122.485 326.848 122.49 326.857 122.493C326.859 122.495 326.862 122.496 326.866 122.498C326.87 122.499 326.875 122.501 326.878 122.504C326.893 122.513 326.909 122.52 326.926 122.525C326.928 122.527 326.931 122.528 326.935 122.529C326.939 122.531 326.944 122.532 326.947 122.535C327.088 122.589 327.236 122.621 327.386 122.631C327.278 122.732 327.176 122.85 327.107 122.984C327.016 122.961 326.926 122.934 326.834 122.903C326.828 122.903 326.824 122.901 326.821 122.899C326.818 122.898 326.816 122.897 326.813 122.897C326.804 122.894 326.795 122.89 326.786 122.886C326.722 122.859 326.663 122.832 326.605 122.801C326.602 122.797 326.599 122.795 326.594 122.795L326.53 122.763C326.434 122.715 326.348 122.651 326.267 122.586L326.257 122.576C326.219 122.548 326.183 122.517 326.15 122.484L326.134 122.468C325.877 122.259 325.423 121.971 325.208 122.04C324.662 122.211 323.998 122.607 323.768 122.747L327.301 124.85V123.405C327.301 122.865 328.087 122.507 328.178 122.469L328.21 122.453C328.387 122.367 328.541 122.244 328.67 122.1C328.673 122.1 328.674 122.099 328.676 122.096C328.677 122.094 328.679 122.092 328.681 122.09C328.703 122.069 328.723 122.046 328.739 122.021C328.743 122.018 328.746 122.014 328.748 122.01C328.751 122.006 328.753 122.002 328.756 122C328.775 121.976 328.793 121.951 328.81 121.925C328.813 121.925 328.814 121.923 328.815 121.921C328.817 121.919 328.818 121.917 328.82 121.914C328.829 121.898 328.838 121.882 328.847 121.866C328.857 121.85 328.866 121.834 328.874 121.818C328.915 121.745 328.949 121.668 328.976 121.589C329.041 121.718 329.122 121.856 329.228 121.985C329.213 122.009 329.198 122.035 329.182 122.061C329.171 122.08 329.159 122.1 329.147 122.118C329.147 122.12 329.146 122.121 329.145 122.123C329.143 122.124 329.141 122.126 329.141 122.129L329.077 122.225C329.074 122.227 329.071 122.231 329.068 122.236C329.066 122.239 329.063 122.243 329.06 122.246C329.053 122.255 329.047 122.264 329.04 122.273C329.028 122.29 329.016 122.307 329.002 122.321C328.999 122.326 328.995 122.331 328.991 122.335C328.987 122.339 328.984 122.343 328.981 122.348C328.959 122.379 328.934 122.407 328.906 122.433L328.895 122.444C328.882 122.454 328.87 122.466 328.858 122.478C328.846 122.49 328.834 122.502 328.82 122.513C328.815 122.515 328.81 122.519 328.806 122.524C328.802 122.527 328.798 122.531 328.793 122.534C328.79 122.541 328.784 122.545 328.779 122.549C328.777 122.551 328.774 122.553 328.772 122.555C328.693 122.625 328.607 122.688 328.516 122.742L328.499 122.753C328.456 122.778 328.414 122.801 328.37 122.822L328.36 122.828C328.151 122.918 327.697 123.186 327.697 123.416V124.86L331.222 122.751C330.955 122.624 330.275 122.291 329.761 122.024C329.312 121.793 329.119 121.109 329.098 121.028L329.05 120.84C329.034 120.723 329.003 120.608 328.958 120.498C328.952 120.489 328.947 120.478 328.943 120.465C328.939 120.457 328.936 120.448 328.931 120.44C328.929 120.43 328.924 120.422 328.92 120.413C328.917 120.406 328.913 120.399 328.91 120.392C328.905 120.383 328.901 120.376 328.897 120.368C328.893 120.36 328.889 120.352 328.883 120.344C328.878 120.335 328.874 120.328 328.87 120.32C328.866 120.312 328.862 120.304 328.856 120.296C328.85 120.288 328.845 120.28 328.84 120.27C328.837 120.264 328.833 120.258 328.829 120.252L328.798 120.204C328.794 120.193 328.788 120.185 328.781 120.175C328.778 120.171 328.774 120.166 328.771 120.161L328.739 120.113C328.733 120.106 328.727 120.099 328.721 120.091C328.716 120.085 328.712 120.08 328.708 120.075C328.694 120.062 328.682 120.047 328.67 120.032L328.639 120L328.595 119.957L328.564 119.925C328.556 119.917 328.548 119.91 328.54 119.903C328.532 119.897 328.524 119.89 328.516 119.882C328.511 119.876 328.505 119.872 328.5 119.868C328.495 119.864 328.49 119.86 328.484 119.855C328.468 119.838 328.45 119.824 328.43 119.811C328.423 119.803 328.413 119.796 328.403 119.79C328.398 119.786 328.392 119.781 328.387 119.777C328.373 119.765 328.36 119.754 328.345 119.747C328.342 119.743 328.339 119.741 328.334 119.741C328.256 119.692 328.174 119.648 328.088 119.612C327.944 119.553 327.784 119.51 327.617 119.499C327.724 119.399 327.821 119.28 327.89 119.147C327.981 119.164 328.071 119.189 328.157 119.222C328.173 119.227 328.189 119.234 328.205 119.24C328.222 119.247 328.238 119.254 328.253 119.259C328.255 119.259 328.257 119.261 328.258 119.262C328.259 119.264 328.261 119.265 328.264 119.265C328.274 119.27 328.284 119.274 328.294 119.278C328.321 119.29 328.347 119.301 328.37 119.313C328.372 119.313 328.374 119.315 328.375 119.316C328.376 119.318 328.378 119.319 328.381 119.319C328.388 119.323 328.396 119.327 328.404 119.331C328.431 119.343 328.459 119.357 328.483 119.373C328.485 119.373 328.486 119.375 328.487 119.376C328.489 119.378 328.49 119.379 328.493 119.379C328.527 119.398 328.557 119.418 328.586 119.437C328.589 119.44 328.592 119.442 328.595 119.444L328.601 119.45C328.635 119.471 328.667 119.494 328.697 119.519L328.703 119.525Z" fill="white"/>
    <path d="M339.959 125V116.273H343.07C343.746 116.273 344.307 116.389 344.753 116.622C345.202 116.855 345.537 117.178 345.759 117.589C345.98 117.999 346.091 118.472 346.091 119.009C346.091 119.543 345.979 120.013 345.754 120.419C345.533 120.822 345.197 121.136 344.749 121.361C344.303 121.585 343.741 121.697 343.065 121.697H340.709V120.564H342.946C343.372 120.564 343.719 120.503 343.986 120.381C344.256 120.259 344.453 120.081 344.578 119.848C344.703 119.615 344.766 119.335 344.766 119.009C344.766 118.679 344.702 118.393 344.574 118.152C344.449 117.911 344.251 117.726 343.982 117.598C343.714 117.467 343.364 117.402 342.929 117.402H341.276V125H339.959ZM344.267 121.062L346.423 125H344.923L342.81 121.062H344.267ZM347.693 125V116.273H353.165V117.406H349.01V120.065H352.879V121.195H349.01V123.866H353.216V125H347.693ZM354.924 125V116.273H358.034C358.713 116.273 359.276 116.396 359.722 116.643C360.168 116.891 360.502 117.229 360.723 117.658C360.945 118.084 361.056 118.564 361.056 119.098C361.056 119.635 360.944 120.118 360.719 120.547C360.498 120.973 360.162 121.311 359.713 121.561C359.267 121.808 358.706 121.932 358.03 121.932H355.891V120.815H357.911C358.34 120.815 358.688 120.741 358.955 120.594C359.222 120.443 359.418 120.239 359.543 119.98C359.668 119.722 359.73 119.428 359.73 119.098C359.73 118.768 359.668 118.476 359.543 118.22C359.418 117.964 359.221 117.764 358.951 117.619C358.684 117.474 358.331 117.402 357.894 117.402H356.24V125H354.924Z" fill="#1A203F"/>
    <rect x="258.5" y="108.5" width="109" height="24" rx="5.5" stroke="#EAEAEF"/>
    <path d="M392.774 122.314C391.772 126.332 387.703 128.777 383.684 127.775C379.668 126.774 377.222 122.704 378.225 118.686C379.226 114.668 383.295 112.223 387.312 113.224C391.331 114.226 393.776 118.296 392.774 122.314L392.774 122.314H392.774Z" fill="#23292F"/>
    <path d="M389.188 116.125H390.702L387.552 119.244C386.411 120.372 384.562 120.372 383.42 119.244L380.27 116.125H381.784L384.177 118.494C384.903 119.209 386.068 119.209 386.793 118.494L389.188 116.125Z" fill="white"/>
    <path d="M381.765 124.797H380.25L383.42 121.659C384.561 120.53 386.41 120.53 387.552 121.659L390.722 124.797H389.208L386.795 122.409C386.069 121.694 384.904 121.694 384.179 122.409L381.765 124.797Z" fill="white"/>
    <path d="M398.875 116.273L400.963 119.686H401.031L403.119 116.273H404.645L401.926 120.636L404.662 125H403.128L401.031 121.634H400.963L398.866 125H397.332L400.115 120.636L397.349 116.273H398.875ZM405.951 125V116.273H409.062C409.738 116.273 410.299 116.389 410.745 116.622C411.194 116.855 411.529 117.178 411.751 117.589C411.972 117.999 412.083 118.472 412.083 119.009C412.083 119.543 411.971 120.013 411.746 120.419C411.525 120.822 411.19 121.136 410.741 121.361C410.295 121.585 409.734 121.697 409.058 121.697H406.701V120.564H408.938C409.364 120.564 409.711 120.503 409.978 120.381C410.248 120.259 410.445 120.081 410.57 119.848C410.695 119.615 410.758 119.335 410.758 119.009C410.758 118.679 410.694 118.393 410.566 118.152C410.441 117.911 410.244 117.726 409.974 117.598C409.707 117.467 409.356 117.402 408.921 117.402H407.268V125H405.951ZM410.259 121.062L412.415 125H410.915L408.802 121.062H410.259ZM413.685 125V116.273H416.796C417.475 116.273 418.038 116.396 418.484 116.643C418.93 116.891 419.263 117.229 419.485 117.658C419.707 118.084 419.817 118.564 419.817 119.098C419.817 119.635 419.705 120.118 419.481 120.547C419.259 120.973 418.924 121.311 418.475 121.561C418.029 121.808 417.468 121.932 416.792 121.932H414.653V120.815H416.673C417.102 120.815 417.45 120.741 417.717 120.594C417.984 120.443 418.18 120.239 418.305 119.98C418.43 119.722 418.492 119.428 418.492 119.098C418.492 118.768 418.43 118.476 418.305 118.22C418.18 117.964 417.982 117.764 417.712 117.619C417.445 117.474 417.093 117.402 416.656 117.402H415.002V125H413.685Z" fill="#1A203F"/>
    <path d="M429.18 115.864L426.368 126.312H425.23L428.043 115.864H429.18Z" fill="#1A203F"/>
    <circle opacity="0.98" cx="441.5" cy="120.5" r="7.5" fill="#243F8D"/>
    <rect x="444.09" y="116.776" width="0.744141" height="0.744141" fill="white"/>
    <rect x="445.578" y="116.776" width="0.744141" height="0.744141" fill="#8DDB2E"/>
    <rect x="444.834" y="117.521" width="0.744141" height="0.744141" fill="#8DDB2E"/>
    <rect x="445.578" y="122.735" width="0.744141" height="0.744141" fill="#8DDB2E"/>
    <rect x="444.834" y="121.247" width="0.744141" height="0.744141" fill="#8DDB2E"/>
    <rect x="443.346" y="119.759" width="0.744141" height="0.744141" fill="#8DDB2E"/>
    <rect x="444.09" y="119.015" width="0.744141" height="0.744141" fill="#8DDB2E"/>
    <rect x="445.578" y="119.759" width="0.744141" height="0.744141" fill="#8DDB2E"/>
    <path fill-rule="evenodd" clip-rule="evenodd" d="M444.834 122.735V123.479H445.578V124.224H444.893H444.834H444.09H443.873H443.727H442.707L441.383 122.12L440.053 124.224H439.033H438.887H437.867L440.281 120.468L437.926 116.776H438.945H439.08H440.1L441.383 118.827L442.66 116.782H444.834V117.526H444.09V119.015H443.346V118.271H442.602V119.015H443.346V119.759H442.602V120.503H443.346V121.247H444.09V122.735H443.346V123.479H444.09V122.735H444.834ZM442.596 121.247V121.991H443.34V121.247H442.596ZM441.852 120.503V121.247H442.596V120.503H441.852ZM441.852 120.503V119.759H441.107V120.503H441.852Z" fill="#8DDB2E"/>
    <path d="M461.207 119.111H459.878C459.827 118.827 459.732 118.577 459.592 118.361C459.453 118.145 459.283 117.962 459.081 117.811C458.879 117.661 458.653 117.547 458.403 117.47C458.156 117.393 457.893 117.355 457.615 117.355C457.112 117.355 456.662 117.482 456.264 117.734C455.869 117.987 455.557 118.358 455.327 118.847C455.099 119.335 454.986 119.932 454.986 120.636C454.986 121.347 455.099 121.946 455.327 122.435C455.557 122.923 455.871 123.293 456.268 123.543C456.666 123.793 457.114 123.918 457.611 123.918C457.886 123.918 458.148 123.881 458.395 123.807C458.645 123.73 458.871 123.618 459.072 123.47C459.274 123.322 459.445 123.142 459.584 122.929C459.726 122.713 459.824 122.466 459.878 122.188L461.207 122.192C461.136 122.621 460.999 123.016 460.794 123.376C460.592 123.734 460.332 124.044 460.014 124.305C459.699 124.564 459.338 124.764 458.932 124.906C458.526 125.048 458.082 125.119 457.602 125.119C456.847 125.119 456.173 124.94 455.582 124.582C454.991 124.222 454.526 123.706 454.185 123.036C453.847 122.365 453.678 121.565 453.678 120.636C453.678 119.705 453.848 118.905 454.189 118.237C454.53 117.567 454.996 117.053 455.587 116.695C456.178 116.334 456.849 116.153 457.602 116.153C458.065 116.153 458.497 116.22 458.898 116.354C459.301 116.484 459.663 116.678 459.984 116.933C460.305 117.186 460.571 117.496 460.781 117.862C460.991 118.226 461.134 118.642 461.207 119.111ZM463.594 116.273L465.682 119.686H465.75L467.838 116.273H469.364L466.645 120.636L469.381 125H467.847L465.75 121.634H465.682L463.585 125H462.051L464.834 120.636L462.068 116.273H463.594ZM478.016 120.636C478.016 121.568 477.846 122.369 477.505 123.04C477.164 123.707 476.697 124.222 476.103 124.582C475.512 124.94 474.84 125.119 474.087 125.119C473.332 125.119 472.657 124.94 472.063 124.582C471.472 124.222 471.006 123.706 470.665 123.036C470.325 122.365 470.154 121.565 470.154 120.636C470.154 119.705 470.325 118.905 470.665 118.237C471.006 117.567 471.472 117.053 472.063 116.695C472.657 116.334 473.332 116.153 474.087 116.153C474.84 116.153 475.512 116.334 476.103 116.695C476.697 117.053 477.164 117.567 477.505 118.237C477.846 118.905 478.016 119.705 478.016 120.636ZM476.712 120.636C476.712 119.926 476.597 119.328 476.367 118.842C476.14 118.354 475.827 117.984 475.43 117.734C475.035 117.482 474.587 117.355 474.087 117.355C473.585 117.355 473.136 117.482 472.741 117.734C472.346 117.984 472.033 118.354 471.803 118.842C471.576 119.328 471.462 119.926 471.462 120.636C471.462 121.347 471.576 121.946 471.803 122.435C472.033 122.92 472.346 123.29 472.741 123.543C473.136 123.793 473.585 123.918 474.087 123.918C474.587 123.918 475.035 123.793 475.43 123.543C475.827 123.29 476.14 122.92 476.367 122.435C476.597 121.946 476.712 121.347 476.712 120.636Z" fill="#1A203F"/>
    <rect x="372.5" y="108.5" width="112" height="24" rx="5.5" stroke="#EAEAEF"/>
    <path d="M45.7739 151.314C44.7722 155.332 40.7028 157.777 36.6844 156.775C32.6677 155.774 30.2225 151.704 31.2246 147.686C32.2259 143.668 36.2953 141.223 40.3125 142.224C44.3305 143.226 46.7756 147.296 45.7738 151.314L45.7739 151.314H45.7739Z" fill="#23292F"/>
    <path d="M42.1881 145.125H43.7016L40.5519 148.244C39.4112 149.372 37.5619 149.372 36.4204 148.244L33.2695 145.125H34.7842L37.1772 147.494C37.9027 148.209 39.0678 148.209 39.7933 147.494L42.1881 145.125Z" fill="white"/>
    <path d="M34.7645 153.797H33.25L36.4201 150.659C37.5608 149.53 39.4101 149.53 40.5516 150.659L43.7217 153.797H42.2082L39.7948 151.409C39.0693 150.694 37.9042 150.694 37.1787 151.409L34.7645 153.797Z" fill="white"/>
    <path d="M51.875 145.273L53.9631 148.686H54.0312L56.1193 145.273H57.6449L54.9261 149.636L57.6619 154H56.1278L54.0312 150.634H53.9631L51.8665 154H50.3324L53.1151 149.636L50.3494 145.273H51.875ZM58.951 154V145.273H62.0618C62.7379 145.273 63.299 145.389 63.745 145.622C64.1939 145.855 64.5291 146.178 64.7507 146.589C64.9723 146.999 65.0831 147.472 65.0831 148.009C65.0831 148.543 64.9709 149.013 64.7464 149.419C64.5249 149.822 64.1896 150.136 63.7408 150.361C63.2947 150.585 62.7337 150.697 62.0575 150.697H59.701V149.564H61.9382C62.3643 149.564 62.7109 149.503 62.978 149.381C63.2479 149.259 63.4453 149.081 63.5703 148.848C63.6953 148.615 63.7578 148.335 63.7578 148.009C63.7578 147.679 63.6939 147.393 63.5661 147.152C63.4411 146.911 63.2436 146.726 62.9737 146.598C62.7067 146.467 62.3558 146.402 61.9212 146.402H60.2678V154H58.951ZM63.2592 150.062L65.4155 154H63.9155L61.8018 150.062H63.2592ZM66.6854 154V145.273H69.7962C70.4751 145.273 71.0376 145.396 71.4837 145.643C71.9297 145.891 72.2635 146.229 72.4851 146.658C72.7067 147.084 72.8175 147.564 72.8175 148.098C72.8175 148.635 72.7053 149.118 72.4808 149.547C72.2592 149.973 71.924 150.311 71.4751 150.561C71.0291 150.808 70.468 150.932 69.7919 150.932H67.6527V149.815H69.6726C70.1016 149.815 70.4496 149.741 70.7166 149.594C70.9837 149.443 71.1797 149.239 71.3047 148.98C71.4297 148.722 71.4922 148.428 71.4922 148.098C71.4922 147.768 71.4297 147.476 71.3047 147.22C71.1797 146.964 70.9822 146.764 70.7124 146.619C70.4453 146.474 70.093 146.402 69.6555 146.402H68.0021V154H66.6854Z" fill="#1A203F"/>
    <path d="M82.1804 144.864L79.3679 155.312H78.2301L81.0426 144.864H82.1804Z" fill="#1A203F"/>
    <circle cx="94.5" cy="149.5" r="7.5" fill="#EDF0F4"/>
    <path d="M95.6243 144.893C95.1552 144.781 94.6591 144.757 94.3905 144.751C94.2667 144.748 94.1929 144.751 94.1929 144.751H91.4267C90.5058 144.751 89.75 145.506 89.75 146.433V149.337C89.75 149.363 89.75 149.387 89.753 149.414C89.753 149.441 89.75 149.464 89.75 149.491C89.75 152.108 91.8638 154.227 94.4732 154.227C97.0827 154.227 99.1965 152.108 99.1965 149.491C99.1995 147.271 97.676 145.408 95.6243 144.893Z" fill="#4C66FF"/>
    <path fill-rule="evenodd" clip-rule="evenodd" d="M92.7549 146.773C92.7549 146.489 92.5247 146.258 92.2414 146.258H92.241C91.9577 146.258 91.7275 146.488 91.7275 146.773V148.386C91.7276 148.524 91.7825 148.656 91.88 148.753C91.9775 148.85 92.1096 148.905 92.2473 148.905C92.4617 148.905 92.654 148.773 92.7312 148.573C93.124 147.769 94.0193 147.343 94.8907 147.544C95.7622 147.746 96.3794 148.522 96.3794 149.417C96.3794 150.311 95.7622 151.087 94.8907 151.289C94.0193 151.49 93.124 151.064 92.7312 150.26C92.7294 150.256 92.7276 150.252 92.7258 150.247C92.7186 150.23 92.7111 150.211 92.7017 150.195C92.613 150.035 92.442 149.929 92.2473 149.929C91.9606 149.929 91.7275 150.159 91.7275 150.447C91.7298 150.553 91.7626 150.655 91.8221 150.743C92.3766 151.845 93.5584 152.486 94.785 152.35C96.0115 152.214 97.0237 151.329 97.3226 150.131C97.6215 148.934 97.144 147.677 96.1255 146.981C95.107 146.284 93.7625 146.294 92.7549 147.007V146.773ZM95.2554 149.416C95.2554 148.979 94.9011 148.626 94.4671 148.626C94.0301 148.626 93.6788 148.981 93.6788 149.416C93.6802 149.851 94.0319 150.204 94.4671 150.207C94.9041 150.207 95.2554 149.852 95.2554 149.416Z" fill="white"/>
    <path d="M106.959 154V145.273H110.155C110.774 145.273 111.287 145.375 111.693 145.58C112.099 145.781 112.403 146.055 112.605 146.402C112.807 146.746 112.908 147.134 112.908 147.565C112.908 147.929 112.841 148.236 112.707 148.486C112.574 148.733 112.395 148.932 112.17 149.082C111.949 149.23 111.705 149.338 111.438 149.406V149.491C111.727 149.506 112.01 149.599 112.286 149.773C112.564 149.943 112.794 150.186 112.976 150.501C113.158 150.817 113.249 151.2 113.249 151.652C113.249 152.098 113.143 152.499 112.933 152.854C112.726 153.206 112.405 153.486 111.97 153.693C111.536 153.898 110.98 154 110.304 154H106.959ZM108.276 152.871H110.176C110.807 152.871 111.259 152.749 111.531 152.504C111.804 152.26 111.94 151.955 111.94 151.588C111.94 151.312 111.871 151.06 111.732 150.83C111.592 150.599 111.393 150.416 111.135 150.28C110.879 150.143 110.575 150.075 110.223 150.075H108.276V152.871ZM108.276 149.048H110.04C110.335 149.048 110.601 148.991 110.837 148.878C111.075 148.764 111.264 148.605 111.403 148.401C111.545 148.193 111.616 147.949 111.616 147.668C111.616 147.307 111.49 147.004 111.237 146.76C110.984 146.516 110.597 146.393 110.074 146.393H108.276V149.048ZM122.391 149.636C122.391 150.568 122.221 151.369 121.88 152.04C121.539 152.707 121.072 153.222 120.478 153.582C119.887 153.94 119.215 154.119 118.462 154.119C117.707 154.119 117.032 153.94 116.438 153.582C115.847 153.222 115.381 152.706 115.04 152.036C114.7 151.365 114.529 150.565 114.529 149.636C114.529 148.705 114.7 147.905 115.04 147.237C115.381 146.567 115.847 146.053 116.438 145.695C117.032 145.334 117.707 145.153 118.462 145.153C119.215 145.153 119.887 145.334 120.478 145.695C121.072 146.053 121.539 146.567 121.88 147.237C122.221 147.905 122.391 148.705 122.391 149.636ZM121.087 149.636C121.087 148.926 120.972 148.328 120.742 147.842C120.515 147.354 120.202 146.984 119.805 146.734C119.41 146.482 118.962 146.355 118.462 146.355C117.96 146.355 117.511 146.482 117.116 146.734C116.721 146.984 116.408 147.354 116.178 147.842C115.951 148.328 115.837 148.926 115.837 149.636C115.837 150.347 115.951 150.946 116.178 151.435C116.408 151.92 116.721 152.29 117.116 152.543C117.511 152.793 117.96 152.918 118.462 152.918C118.962 152.918 119.41 152.793 119.805 152.543C120.202 152.29 120.515 151.92 120.742 151.435C120.972 150.946 121.087 150.347 121.087 149.636ZM124.033 154V145.273H127.144C127.82 145.273 128.381 145.389 128.827 145.622C129.276 145.855 129.611 146.178 129.833 146.589C130.054 146.999 130.165 147.472 130.165 148.009C130.165 148.543 130.053 149.013 129.828 149.419C129.607 149.822 129.272 150.136 128.823 150.361C128.377 150.585 127.816 150.697 127.14 150.697H124.783V149.564H127.02C127.446 149.564 127.793 149.503 128.06 149.381C128.33 149.259 128.527 149.081 128.652 148.848C128.777 148.615 128.84 148.335 128.84 148.009C128.84 147.679 128.776 147.393 128.648 147.152C128.523 146.911 128.326 146.726 128.056 146.598C127.789 146.467 127.438 146.402 127.003 146.402H125.35V154H124.033ZM128.341 150.062L130.498 154H128.998L126.884 150.062H128.341ZM132.505 154H131.107L134.248 145.273H135.769L138.909 154H137.512L135.044 146.858H134.976L132.505 154ZM132.739 150.582H137.273V151.69H132.739V150.582Z" fill="#1A203F"/>
    <rect x="25.5" y="137.5" width="120" height="24" rx="5.5" stroke="#EAEAEF"/>
    <path d="M170.774 151.314C169.772 155.332 165.703 157.777 161.684 156.775C157.668 155.774 155.222 151.704 156.225 147.686C157.226 143.668 161.295 141.223 165.312 142.224C169.331 143.226 171.776 147.296 170.774 151.314L170.774 151.314H170.774Z" fill="#23292F"/>
    <path d="M167.188 145.125H168.702L165.552 148.244C164.411 149.372 162.562 149.372 161.42 148.244L158.27 145.125H159.784L162.177 147.494C162.903 148.209 164.068 148.209 164.793 147.494L167.188 145.125Z" fill="white"/>
    <path d="M159.765 153.797H158.25L161.42 150.659C162.561 149.53 164.41 149.53 165.552 150.659L168.722 153.797H167.208L164.795 151.409C164.069 150.694 162.904 150.694 162.179 151.409L159.765 153.797Z" fill="white"/>
    <path d="M176.875 145.273L178.963 148.686H179.031L181.119 145.273H182.645L179.926 149.636L182.662 154H181.128L179.031 150.634H178.963L176.866 154H175.332L178.115 149.636L175.349 145.273H176.875ZM183.951 154V145.273H187.062C187.738 145.273 188.299 145.389 188.745 145.622C189.194 145.855 189.529 146.178 189.751 146.589C189.972 146.999 190.083 147.472 190.083 148.009C190.083 148.543 189.971 149.013 189.746 149.419C189.525 149.822 189.19 150.136 188.741 150.361C188.295 150.585 187.734 150.697 187.058 150.697H184.701V149.564H186.938C187.364 149.564 187.711 149.503 187.978 149.381C188.248 149.259 188.445 149.081 188.57 148.848C188.695 148.615 188.758 148.335 188.758 148.009C188.758 147.679 188.694 147.393 188.566 147.152C188.441 146.911 188.244 146.726 187.974 146.598C187.707 146.467 187.356 146.402 186.921 146.402H185.268V154H183.951ZM188.259 150.062L190.415 154H188.915L186.802 150.062H188.259ZM191.685 154V145.273H194.796C195.475 145.273 196.038 145.396 196.484 145.643C196.93 145.891 197.263 146.229 197.485 146.658C197.707 147.084 197.817 147.564 197.817 148.098C197.817 148.635 197.705 149.118 197.481 149.547C197.259 149.973 196.924 150.311 196.475 150.561C196.029 150.808 195.468 150.932 194.792 150.932H192.653V149.815H194.673C195.102 149.815 195.45 149.741 195.717 149.594C195.984 149.443 196.18 149.239 196.305 148.98C196.43 148.722 196.492 148.428 196.492 148.098C196.492 147.768 196.43 147.476 196.305 147.22C196.18 146.964 195.982 146.764 195.712 146.619C195.445 146.474 195.093 146.402 194.656 146.402H193.002V154H191.685Z" fill="#1A203F"/>
    <path d="M207.18 144.864L204.368 155.312H203.23L206.043 144.864H207.18Z" fill="#1A203F"/>
    <path d="M219.5 157C223.642 157 227 153.642 227 149.5C227 145.358 223.642 142 219.5 142C215.358 142 212 145.358 212 149.5C212 153.642 215.358 157 219.5 157Z" fill="#45CD85"/>
    <path fill-rule="evenodd" clip-rule="evenodd" d="M220.584 150.496H221.18V150.028C222.059 149.922 222.625 149.409 222.625 148.714C222.625 147.748 221.865 147.536 221.15 147.401V146.117C221.493 146.147 221.865 146.253 222.208 146.419V145.664C221.88 145.544 221.522 145.468 221.18 145.453V145H220.584V145.453C219.675 145.559 219.153 146.072 219.153 146.721C219.153 147.702 219.898 147.929 220.613 148.065V149.348C220.181 149.288 219.719 149.107 219.183 148.82V149.62C219.645 149.846 220.122 149.997 220.584 150.028V150.496ZM222.387 151.235C221.925 152.549 220.688 153.5 219.228 153.5C217.38 153.5 215.875 151.975 215.875 150.103C215.875 148.623 216.814 147.37 218.11 146.902V147.823C217.276 148.231 216.709 149.107 216.709 150.103C216.709 151.507 217.842 152.655 219.228 152.655C220.211 152.655 221.075 152.081 221.478 151.235H222.387ZM221.15 148.11V149.348C221.612 149.288 221.895 149.046 221.895 148.714C221.895 148.352 221.567 148.216 221.15 148.11ZM219.883 146.721C219.883 147.099 220.196 147.25 220.613 147.34V146.117C220.151 146.163 219.883 146.374 219.883 146.721Z" fill="white"/>
    <path d="M239.207 148.111H237.878C237.827 147.827 237.732 147.577 237.592 147.361C237.453 147.145 237.283 146.962 237.081 146.811C236.879 146.661 236.653 146.547 236.403 146.47C236.156 146.393 235.893 146.355 235.615 146.355C235.112 146.355 234.662 146.482 234.264 146.734C233.869 146.987 233.557 147.358 233.327 147.847C233.099 148.335 232.986 148.932 232.986 149.636C232.986 150.347 233.099 150.946 233.327 151.435C233.557 151.923 233.871 152.293 234.268 152.543C234.666 152.793 235.114 152.918 235.611 152.918C235.886 152.918 236.148 152.881 236.395 152.807C236.645 152.73 236.871 152.618 237.072 152.47C237.274 152.322 237.445 152.142 237.584 151.929C237.726 151.713 237.824 151.466 237.878 151.188L239.207 151.192C239.136 151.621 238.999 152.016 238.794 152.376C238.592 152.734 238.332 153.044 238.014 153.305C237.699 153.564 237.338 153.764 236.932 153.906C236.526 154.048 236.082 154.119 235.602 154.119C234.847 154.119 234.173 153.94 233.582 153.582C232.991 153.222 232.526 152.706 232.185 152.036C231.847 151.365 231.678 150.565 231.678 149.636C231.678 148.705 231.848 147.905 232.189 147.237C232.53 146.567 232.996 146.053 233.587 145.695C234.178 145.334 234.849 145.153 235.602 145.153C236.065 145.153 236.497 145.22 236.898 145.354C237.301 145.484 237.663 145.678 237.984 145.933C238.305 146.186 238.571 146.496 238.781 146.862C238.991 147.226 239.134 147.642 239.207 148.111ZM246.395 145.273H247.716V151.013C247.716 151.624 247.573 152.165 247.286 152.636C246.999 153.105 246.596 153.474 246.076 153.744C245.556 154.011 244.946 154.145 244.248 154.145C243.551 154.145 242.944 154.011 242.424 153.744C241.904 153.474 241.5 153.105 241.213 152.636C240.926 152.165 240.783 151.624 240.783 151.013V145.273H242.1V150.906C242.1 151.301 242.186 151.652 242.36 151.959C242.536 152.266 242.784 152.507 243.105 152.683C243.426 152.857 243.807 152.943 244.248 152.943C244.691 152.943 245.073 152.857 245.394 152.683C245.718 152.507 245.965 152.266 246.135 151.959C246.309 151.652 246.395 151.301 246.395 150.906V145.273ZM254.391 147.565C254.345 147.162 254.158 146.849 253.828 146.628C253.499 146.403 253.084 146.291 252.584 146.291C252.226 146.291 251.916 146.348 251.655 146.462C251.393 146.572 251.19 146.726 251.045 146.922C250.903 147.115 250.832 147.335 250.832 147.582C250.832 147.79 250.881 147.969 250.977 148.119C251.077 148.27 251.206 148.396 251.365 148.499C251.527 148.598 251.7 148.682 251.885 148.75C252.07 148.815 252.247 148.869 252.418 148.912L253.27 149.134C253.548 149.202 253.834 149.294 254.126 149.411C254.419 149.527 254.69 149.68 254.94 149.871C255.19 150.061 255.392 150.297 255.545 150.578C255.702 150.859 255.78 151.196 255.78 151.588C255.78 152.082 255.652 152.521 255.396 152.905C255.143 153.288 254.776 153.591 254.293 153.812C253.813 154.034 253.232 154.145 252.55 154.145C251.896 154.145 251.331 154.041 250.854 153.834C250.376 153.626 250.003 153.332 249.733 152.952C249.463 152.568 249.314 152.114 249.286 151.588H250.607C250.632 151.903 250.734 152.166 250.913 152.376C251.095 152.584 251.327 152.739 251.608 152.841C251.892 152.94 252.203 152.99 252.541 152.99C252.913 152.99 253.244 152.932 253.534 152.815C253.827 152.696 254.057 152.531 254.224 152.321C254.392 152.108 254.476 151.859 254.476 151.575C254.476 151.317 254.402 151.105 254.254 150.94C254.109 150.776 253.912 150.639 253.662 150.531C253.415 150.423 253.135 150.328 252.822 150.246L251.791 149.964C251.092 149.774 250.538 149.494 250.129 149.125C249.723 148.756 249.52 148.267 249.52 147.659C249.52 147.156 249.656 146.717 249.929 146.342C250.202 145.967 250.571 145.676 251.037 145.469C251.503 145.259 252.028 145.153 252.614 145.153C253.205 145.153 253.726 145.257 254.178 145.464C254.632 145.672 254.99 145.957 255.251 146.321C255.513 146.682 255.649 147.097 255.661 147.565H254.391ZM260.179 154H257.353V145.273H260.268C261.123 145.273 261.858 145.447 262.471 145.797C263.085 146.143 263.555 146.642 263.882 147.293C264.211 147.94 264.376 148.717 264.376 149.624C264.376 150.533 264.21 151.314 263.877 151.967C263.548 152.621 263.071 153.124 262.446 153.476C261.821 153.825 261.065 154 260.179 154ZM258.67 152.849H260.106C260.771 152.849 261.324 152.724 261.764 152.474C262.204 152.222 262.534 151.857 262.752 151.379C262.971 150.899 263.081 150.314 263.081 149.624C263.081 148.939 262.971 148.358 262.752 147.881C262.537 147.403 262.214 147.041 261.785 146.794C261.356 146.547 260.824 146.423 260.187 146.423H258.67V152.849Z" fill="#1A203F"/>
    <rect x="150.5" y="137.5" width="121" height="24" rx="5.5" stroke="#EAEAEF"/>
    <path d="M296.774 151.314C295.772 155.332 291.703 157.777 287.684 156.775C283.668 155.774 281.222 151.704 282.225 147.686C283.226 143.668 287.295 141.223 291.312 142.224C295.331 143.226 297.776 147.296 296.774 151.314L296.774 151.314H296.774Z" fill="#23292F"/>
    <path d="M293.188 145.125H294.702L291.552 148.244C290.411 149.372 288.562 149.372 287.42 148.244L284.27 145.125H285.784L288.177 147.494C288.903 148.209 290.068 148.209 290.793 147.494L293.188 145.125Z" fill="white"/>
    <path d="M285.765 153.797H284.25L287.42 150.659C288.561 149.53 290.41 149.53 291.552 150.659L294.722 153.797H293.208L290.795 151.409C290.069 150.694 288.904 150.694 288.179 151.409L285.765 153.797Z" fill="white"/>
    <path d="M302.875 145.273L304.963 148.686H305.031L307.119 145.273H308.645L305.926 149.636L308.662 154H307.128L305.031 150.634H304.963L302.866 154H301.332L304.115 149.636L301.349 145.273H302.875ZM309.951 154V145.273H313.062C313.738 145.273 314.299 145.389 314.745 145.622C315.194 145.855 315.529 146.178 315.751 146.589C315.972 146.999 316.083 147.472 316.083 148.009C316.083 148.543 315.971 149.013 315.746 149.419C315.525 149.822 315.19 150.136 314.741 150.361C314.295 150.585 313.734 150.697 313.058 150.697H310.701V149.564H312.938C313.364 149.564 313.711 149.503 313.978 149.381C314.248 149.259 314.445 149.081 314.57 148.848C314.695 148.615 314.758 148.335 314.758 148.009C314.758 147.679 314.694 147.393 314.566 147.152C314.441 146.911 314.244 146.726 313.974 146.598C313.707 146.467 313.356 146.402 312.921 146.402H311.268V154H309.951ZM314.259 150.062L316.415 154H314.915L312.802 150.062H314.259ZM317.685 154V145.273H320.796C321.475 145.273 322.038 145.396 322.484 145.643C322.93 145.891 323.263 146.229 323.485 146.658C323.707 147.084 323.817 147.564 323.817 148.098C323.817 148.635 323.705 149.118 323.481 149.547C323.259 149.973 322.924 150.311 322.475 150.561C322.029 150.808 321.468 150.932 320.792 150.932H318.653V149.815H320.673C321.102 149.815 321.45 149.741 321.717 149.594C321.984 149.443 322.18 149.239 322.305 148.98C322.43 148.722 322.492 148.428 322.492 148.098C322.492 147.768 322.43 147.476 322.305 147.22C322.18 146.964 321.982 146.764 321.712 146.619C321.445 146.474 321.093 146.402 320.656 146.402H319.002V154H317.685Z" fill="#1A203F"/>
    <path d="M333.18 144.864L330.368 155.312H329.23L332.043 144.864H333.18Z" fill="#1A203F"/>
    <circle cx="345.5" cy="149.5" r="7.5" fill="white"/>
    <path d="M346.943 149.86C346.943 149.761 346.943 149.711 346.844 149.661C346.497 149.411 346.099 149.162 345.752 148.913C345.677 148.862 345.579 148.862 345.503 148.913L344.411 149.711C344.318 149.758 344.26 149.855 344.262 149.96C344.26 150.068 344.225 150.172 344.163 150.259C344.112 150.335 344.112 150.433 344.163 150.509C344.56 151.306 344.908 152.104 345.305 152.902C345.454 153.152 345.553 153.451 345.702 153.75C345.752 153.7 345.752 153.65 345.801 153.6C346.248 152.603 346.645 151.606 347.092 150.608C347.142 150.509 347.142 150.459 347.043 150.409C346.93 150.25 346.893 150.049 346.943 149.86Z" fill="#CD0124"/>
    <path d="M345.25 148.549C344.25 147.849 343.25 147.15 342.3 146.5L342.25 146.55C342.3 146.65 342.3 146.7 342.35 146.8L343.4 149.048C343.5 149.248 343.55 149.448 343.85 149.498C343.936 149.506 344.023 149.489 344.1 149.448C344.4 149.198 344.75 148.998 345.05 148.749L345.25 148.549Z" fill="#CD0124"/>
    <path fill-rule="evenodd" clip-rule="evenodd" d="M338 149.5C338 145.358 341.358 142 345.5 142C347.489 142 349.397 142.79 350.803 144.197C352.21 145.603 353 147.511 353 149.5C353 153.642 349.642 157 345.5 157C341.358 157 338 153.642 338 149.5ZM349.35 146.5C349.4 146.4 349.45 146.35 349.55 146.35C349.869 146.3 350.104 146.023 350.1 145.7C350.079 145.43 349.904 145.196 349.65 145.1C349.387 145.001 349.091 145.107 348.95 145.35C348.9 145.5 348.8 145.5 348.7 145.5H342.35C342.2 145.5 342.15 145.5 342.1 145.4C341.942 145.147 341.628 145.042 341.35 145.15C341.092 145.267 340.919 145.517 340.9 145.8C340.916 146.106 341.147 146.357 341.45 146.4C341.6 146.4 341.65 146.45 341.65 146.5C342.15 147.5 342.6 148.45 343.05 149.45C343.101 149.526 343.101 149.624 343.05 149.7C342.946 149.882 342.937 150.103 343.027 150.293C343.116 150.482 343.293 150.616 343.5 150.65C343.611 150.672 343.704 150.747 343.75 150.85C344 151.35 344.237 151.85 344.475 152.35C344.713 152.85 344.95 153.35 345.2 153.85C345.25 153.944 345.25 154.056 345.2 154.15C345.114 154.276 345.081 154.431 345.109 154.581C345.137 154.731 345.224 154.864 345.35 154.95C345.592 155.135 345.933 155.114 346.15 154.9C346.4 154.686 346.444 154.316 346.25 154.05C346.199 153.974 346.199 153.876 346.25 153.8C346.65 152.8 347.1 151.75 347.55 150.75C347.6 150.65 347.65 150.6 347.7 150.6C347.881 150.545 348.029 150.415 348.106 150.242C348.183 150.069 348.181 149.871 348.1 149.7V149.5C348.3 149 348.513 148.5 348.725 148C348.938 147.5 349.15 147 349.35 146.5Z" fill="#CD0124"/>
    <path d="M345.5 148.212C345.575 148.263 345.673 148.263 345.748 148.212C346.69 147.508 347.633 146.855 348.526 146.151C348.575 146.101 348.625 146.101 348.625 146.05V146H342.375C342.432 146.021 342.483 146.056 342.524 146.101L345.5 148.212Z" fill="#CD0124"/>
    <path d="M346 148.559C346.393 148.857 346.786 149.105 347.179 149.353C347.277 149.403 347.424 149.353 347.571 149.353C347.621 149.353 347.67 149.254 347.67 149.204C348.013 148.411 348.357 147.567 348.701 146.774C348.701 146.724 348.75 146.675 348.75 146.625H348.701C347.866 147.22 346.933 147.865 346 148.559Z" fill="#CD0124"/>
    <path d="M365.207 148.111H363.878C363.827 147.827 363.732 147.577 363.592 147.361C363.453 147.145 363.283 146.962 363.081 146.811C362.879 146.661 362.653 146.547 362.403 146.47C362.156 146.393 361.893 146.355 361.615 146.355C361.112 146.355 360.662 146.482 360.264 146.734C359.869 146.987 359.557 147.358 359.327 147.847C359.099 148.335 358.986 148.932 358.986 149.636C358.986 150.347 359.099 150.946 359.327 151.435C359.557 151.923 359.871 152.293 360.268 152.543C360.666 152.793 361.114 152.918 361.611 152.918C361.886 152.918 362.148 152.881 362.395 152.807C362.645 152.73 362.871 152.618 363.072 152.47C363.274 152.322 363.445 152.142 363.584 151.929C363.726 151.713 363.824 151.466 363.878 151.188L365.207 151.192C365.136 151.621 364.999 152.016 364.794 152.376C364.592 152.734 364.332 153.044 364.014 153.305C363.699 153.564 363.338 153.764 362.932 153.906C362.526 154.048 362.082 154.119 361.602 154.119C360.847 154.119 360.173 153.94 359.582 153.582C358.991 153.222 358.526 152.706 358.185 152.036C357.847 151.365 357.678 150.565 357.678 149.636C357.678 148.705 357.848 147.905 358.189 147.237C358.53 146.567 358.996 146.053 359.587 145.695C360.178 145.334 360.849 145.153 361.602 145.153C362.065 145.153 362.497 145.22 362.898 145.354C363.301 145.484 363.663 145.678 363.984 145.933C364.305 146.186 364.571 146.496 364.781 146.862C364.991 147.226 365.134 147.642 365.207 148.111ZM366.783 154V145.273H368.1V149.065H372.451V145.273H373.772V154H372.451V150.195H368.1V154H366.783ZM375.463 154V153.122L380.053 146.406H375.425V145.273H381.664V146.151L377.074 152.866H381.702V154H375.463Z" fill="#1A203F"/>
    <rect x="276.5" y="137.5" width="112" height="24" rx="5.5" stroke="#EAEAEF"/>
    <rect x="1" y="1" width="619" height="371.698" rx="19" stroke="#BEBEBE" stroke-width="2"/>
    <defs>
        <linearGradient id="paint0_linear_171_15311" x1="71" y1="12.7471" x2="398" y2="226.747" gradientUnits="userSpaceOnUse">
            <stop stop-color="white"/>
            <stop offset="1" stop-color="white" stop-opacity="0"/>
        </linearGradient>
    </defs>
</svg>
