<svg width="16" height="16" viewBox="0 0 16 16" fill="none" xmlns="http://www.w3.org/2000/svg">
<path d="M14.6667 5.66683C14.6667 8.06016 12.7267 10.0002 10.3333 10.0002C10.22 10.0002 10.1 9.9935 9.98667 9.98684C9.82001 7.8735 8.12666 6.18016 6.01333 6.01349C6.00666 5.90016 6 5.78016 6 5.66683C6 3.2735 7.94 1.3335 10.3333 1.3335C12.7267 1.3335 14.6667 3.2735 14.6667 5.66683Z" stroke="white" stroke-width="1.5" stroke-linecap="round" stroke-linejoin="round"/>
<path d="M9.99967 10.3333C9.99967 12.7267 8.05967 14.6667 5.66634 14.6667C3.27301 14.6667 1.33301 12.7267 1.33301 10.3333C1.33301 7.94 3.27301 6 5.66634 6C5.77967 6 5.89967 6.00666 6.013 6.01333C8.12633 6.17999 9.81968 7.87334 9.98635 9.98667C9.99302 10.1 9.99967 10.22 9.99967 10.3333Z" stroke="white" stroke-width="1.5" stroke-linecap="round" stroke-linejoin="round"/>
<path d="M3.72634 1.3335H1.99967C1.63301 1.3335 1.33301 1.6335 1.33301 2.00016V3.72683C1.33301 4.32016 2.053 4.62015 2.473 4.20015L4.19967 2.47349C4.613 2.05349 4.31967 1.3335 3.72634 1.3335Z" stroke="white" stroke-width="1.5" stroke-linecap="round" stroke-linejoin="round"/>
<path d="M12.2738 14.6667H14.0005C14.3671 14.6667 14.6671 14.3667 14.6671 14V12.2733C14.6671 11.68 13.9471 11.38 13.5271 11.8L11.8005 13.5267C11.3871 13.9467 11.6805 14.6667 12.2738 14.6667Z" stroke="white" stroke-width="1.5" stroke-linecap="round" stroke-linejoin="round"/>
</svg>
