<svg width="34" height="34" viewBox="0 0 34 34" fill="none" xmlns="http://www.w3.org/2000/svg">
<path fill-rule="evenodd" clip-rule="evenodd" d="M34 17C34 26.3882 26.3882 34 17 34C7.61175 34 0 26.3882 0 17C0 7.61175 7.61175 0 17 0C26.3882 0 34 7.61175 34 17Z" fill="#272C3C"/>
<path d="M23.9149 13.9259C23.922 14.0711 23.9238 14.2163 23.9238 14.358C23.9238 18.7851 20.5574 23.8868 14.3985 23.8868C12.5786 23.8899 10.7965 23.3672 9.2666 22.3816C9.52691 22.4135 9.79431 22.4259 10.0652 22.4259C11.6342 22.4259 13.0774 21.8929 14.2232 20.9933C13.525 20.9796 12.8484 20.7484 12.2878 20.3319C11.7273 19.9155 11.3106 19.3345 11.0959 18.67C11.5973 18.7653 12.1138 18.7453 12.6064 18.6115C11.8486 18.4583 11.1671 18.0477 10.6774 17.4493C10.1878 16.8509 9.92023 16.1016 9.92004 15.3284V15.2877C10.3716 15.5374 10.8887 15.6897 11.4376 15.7074C10.7272 15.2344 10.2242 14.5079 10.0317 13.6765C9.83912 12.845 9.97148 11.9714 10.4017 11.2342C11.2428 12.2684 12.2916 13.1144 13.4804 13.7175C14.6692 14.3206 15.9714 14.6673 17.3026 14.7352C17.1334 14.0168 17.2062 13.2626 17.5098 12.5898C17.8135 11.9171 18.3308 11.3635 18.9815 11.0151C19.6322 10.6668 20.3798 10.5431 21.108 10.6635C21.8362 10.7838 22.5042 11.1413 23.0083 11.6805C23.7576 11.5322 24.4762 11.2574 25.1333 10.8677C24.8835 11.6435 24.3606 12.3024 23.6617 12.7217C24.3255 12.6418 24.9737 12.4633 25.5848 12.1923C25.1359 12.865 24.5704 13.4521 23.9149 13.9259Z" fill="white"/>
</svg>
