<svg width="16" height="16" viewBox="0 0 16 16" fill="none" xmlns="http://www.w3.org/2000/svg">
<path d="M8.66699 6H4.66699" stroke="white" stroke-width="1.5" stroke-linecap="round" stroke-linejoin="round"/>
<path d="M14.6665 7.31327V8.68665C14.6665 9.05331 14.3732 9.35328 13.9998 9.36662H12.6931C11.9731 9.36662 11.3132 8.83995 11.2532 8.11995C11.2132 7.69995 11.3731 7.30662 11.6531 7.03328C11.8998 6.77995 12.2398 6.6333 12.6131 6.6333H13.9998C14.3732 6.64663 14.6665 6.94661 14.6665 7.31327Z" stroke="white" stroke-width="1.5" stroke-linecap="round" stroke-linejoin="round"/>
<path d="M11.653 7.03349C11.373 7.30682 11.213 7.70016 11.253 8.12016C11.313 8.84016 11.973 9.36682 12.693 9.36682H13.9997V10.3335C13.9997 12.3335 12.6663 13.6668 10.6663 13.6668H4.66634C2.66634 13.6668 1.33301 12.3335 1.33301 10.3335V5.66683C1.33301 3.8535 2.42634 2.58683 4.12634 2.37349C4.29968 2.34683 4.47967 2.3335 4.66634 2.3335H10.6663C10.8397 2.3335 11.0063 2.34015 11.1663 2.36682C12.8863 2.56682 13.9997 3.84016 13.9997 5.66683V6.6335H12.613C12.2397 6.6335 11.8997 6.78015 11.653 7.03349Z" stroke="white" stroke-width="1.5" stroke-linecap="round" stroke-linejoin="round"/>
</svg>
